<svg width="21" height="23" viewBox="0 0 21 23" version="1.1" xmlns="http://www.w3.org/2000/svg" xmlns:xlink="http://www.w3.org/1999/xlink"><title>box</title><desc>Created with Sketch.</desc><g id="Landing-Page" stroke="none" stroke-width="1" fill="none" fill-rule="evenodd"><g id="GraphQL-landingpage-2018" transform="translate(-727.000000, -1958.000000)" fill-rule="nonzero" fill="#DB3F74"><g id="highlight-2" transform="translate(638.000000, 1958.000000)"><path d="M99.4843758,0.000717612846 C99.420411,0.00393794373 99.3620511,0.0174071054 99.3125012,0.0326653398 L89.3125238,4.12197439 C89.1275992,4.19845214 88.997952,4.39726412 89.0000245,4.6011903 L89.0000245,18.4026262 C89.0010245,18.6038969 89.1300217,18.7983691 89.3125238,18.8738424 L99.3125012,22.963177 C99.4312834,23.0122743 99.5687181,23.0122743 99.6875004,22.963177 L109.687478,18.8738424 C109.86998,18.7983691 109.99895,18.6038969 109.999977,18.4026262 L109.999977,4.6011903 C110.001977,4.39726412 109.872402,4.19845214 109.687478,4.12197439 L99.6875004,0.0326653398 C99.6179155,0.00454878427 99.5483407,-0.00249505058 99.4843758,0.000717612846 L99.4843758,0.000717612846 Z M99.5000008,1.06297953 L108.148419,4.6011903 L104.49999,6.0867596 L95.8515715,2.55653577 L99.5000008,1.06297953 Z M94.500012,3.10763406 L103.14843,6.64584482 L99.5000008,8.13141413 L90.8515828,4.6011903 L94.500012,3.10763406 Z M90.0000222,5.35196188 L99.0000019,9.03393742 L99.0000019,21.7251899 L90.0000222,18.0512012 L90.0000222,5.35196188 L90.0000222,5.35196188 Z M108.999979,5.35196188 L108.999979,18.0512012 L99.9999997,21.7251899 L99.9999997,9.03393742 L103.999991,7.39661641 L103.999991,10.7351615 C103.997444,10.9195034 104.092182,11.0909674 104.247929,11.1838982 C104.403676,11.2768289 104.596303,11.2768289 104.75205,11.1838982 C104.907797,11.0909674 105.002535,10.9195034 104.999988,10.7351615 L104.999988,6.98928289 L108.999979,5.35196188 L108.999979,5.35196188 Z" id="box"/></g></g></g></svg>