<svg width="24" height="23" viewBox="0 0 24 23" version="1.1" xmlns="http://www.w3.org/2000/svg" xmlns:xlink="http://www.w3.org/1999/xlink"><title>prize</title><desc>Created with Sketch.</desc><g id="Landing-Page" stroke="none" stroke-width="1" fill="none" fill-rule="evenodd"><g id="GraphQL-landingpage-2018" transform="translate(-333.000000, -1958.000000)" fill-rule="nonzero" fill="#DB3F74"><g id="highlight-1" transform="translate(268.000000, 1958.000000)"><path d="M88.9973441,4.76683938 L88.9973441,2.97927461 C88.9973441,2.97927461 88.9973441,2.94948187 88.9973441,2.94948187 C88.9368399,2.3238342 88.5133103,1.90673575 87.9082679,1.84715026 C87.9082679,1.84715026 87.8780158,1.84715026 87.8780158,1.84715026 L84.2477619,1.84715026 L84.2477619,1.04274611 C84.2477619,0.476683938 83.763728,0 83.1889378,0 L70.483049,0 C69.9082588,0 69.4242249,0.476683938 69.4242249,1.04274611 L69.4242249,1.84715026 L66.1267442,1.84715026 C66.1267442,1.84715026 66.0964921,1.84715026 66.0964921,1.84715026 C65.4914498,1.87694301 65.0679202,2.3238342 65.0074159,2.94948187 C65.0074159,2.94948187 65.0074159,2.97927461 65.0074159,2.97927461 L65.0074159,4.76683938 C64.9771638,5.24352332 64.8259032,9.86139896 69.8477545,10.6360104 C70.6343096,12.8108808 72.4494365,14.5388601 74.7485974,15.1943005 L74.7485974,18.1437824 L70.755318,20.0207254 C70.755318,20.0207254 70.7250659,20.0207254 70.7250659,20.0505181 C70.1502757,20.3782383 69.8477545,20.8549223 69.8477545,21.3911917 L69.8477545,21.9870466 C69.8477545,21.9870466 69.8477545,22.0168394 69.8477545,22.0168394 C69.9082588,22.6126943 70.3317884,23 70.9670828,23 L82.7351561,23 C83.3704505,23 83.8242322,22.6126943 83.8544844,22.0168394 C83.8544844,22.0168394 83.8544844,21.9870466 83.8544844,21.9870466 L83.8544844,21.3911917 C83.8544844,20.8549223 83.5519632,20.3782383 82.977173,20.0505181 C82.977173,20.0505181 82.9469209,20.0207254 82.9469209,20.0207254 L79.0141458,18.1735751 L79.0141458,15.1645078 C81.2225502,14.5090674 83.0074251,12.8108808 83.8242322,10.6658031 C85.5183508,10.4572539 86.8191918,9.83160622 87.7267552,8.7888601 C89.1183526,7.15025907 88.9973441,5.06476684 88.9973441,4.76683938 Z M69.5452334,9.47409326 C65.8242231,8.61010363 66.0964921,5.03497409 66.1267442,4.85621762 C66.1267442,4.82642487 66.1267442,4.82642487 66.1267442,4.79663212 L66.1267442,3.00906736 C66.1267442,2.97927461 66.1267442,2.94948187 66.1267442,2.94948187 C66.1267442,2.94948187 66.1569964,2.94948187 66.1569964,2.94948187 L69.4242249,2.94948187 L69.4242249,8.19300518 C69.4242249,8.4015544 69.4242249,8.58031088 69.454477,8.7888601 C69.454477,8.81865285 69.454477,8.8484456 69.454477,8.8484456 C69.4847291,9.05699482 69.5149813,9.2357513 69.5452334,9.47409326 C69.5452334,9.44430052 69.5452334,9.44430052 69.5452334,9.47409326 Z M82.7351561,21.361399 L82.7351561,21.8678756 C82.7351561,21.8678756 82.7351561,21.8678756 82.7351561,21.8678756 L70.9368307,21.8678756 C70.9368307,21.8678756 70.9368307,21.8678756 70.9368307,21.8678756 L70.9368307,21.361399 C70.9368307,21.2124352 71.1183434,21.0634715 71.2393519,21.003886 L75.3536397,19.0971503 L78.3183471,19.0971503 L82.4326349,21.003886 C82.5536434,21.0634715 82.7351561,21.2124352 82.7351561,21.361399 Z M77.8645653,15.492228 L77.8645653,17.9948187 L75.8679257,17.9948187 L75.8679257,15.492228 L77.8645653,15.492228 Z M76.8359934,14.3898964 C73.9922945,14.3898964 71.6023773,12.5427461 70.8158223,10.0103627 C70.8158223,10.0103627 70.8158223,10.0103627 70.8158223,10.0103627 C70.7855701,9.86139896 70.7250659,9.71243523 70.6948138,9.5634715 C70.6948138,9.5634715 70.6948138,9.5634715 70.6948138,9.5634715 C70.6343096,9.29533679 70.6040574,8.99740933 70.5738053,8.72927461 C70.5738053,8.69948187 70.5738053,8.66968912 70.5738053,8.63989637 C70.5738053,8.49093264 70.5435532,8.37176166 70.5435532,8.22279793 L70.5435532,2.41321244 L70.5435532,1.10233161 L83.0981815,1.10233161 L83.0981815,2.59196891 L83.0981815,8.16321244 C83.0981815,8.31217617 83.0981815,8.43134715 83.0679293,8.58031088 C83.0679293,8.61010363 83.0679293,8.63989637 83.0679293,8.66968912 C83.0679293,8.7888601 83.0376772,8.93782383 83.0376772,9.05699482 C83.0376772,9.05699482 83.0376772,9.08678756 83.0376772,9.08678756 C83.0074251,9.2357513 82.977173,9.35492228 82.9469209,9.50388601 C82.9469209,9.53367876 82.9469209,9.5634715 82.9166688,9.59326425 C82.8864166,9.71243523 82.8561645,9.83160622 82.8259124,9.9507772 C82.0696095,12.5129534 79.6494402,14.3898964 76.8359934,14.3898964 Z M86.8494439,8.10362694 C86.2141494,8.8484456 85.3065859,9.32512953 84.1267534,9.53367876 C84.1267534,9.53367876 84.1267534,9.50388601 84.1267534,9.50388601 C84.1570055,9.29533679 84.1872576,9.11658031 84.2175098,8.90803109 C84.2175098,8.87823834 84.2175098,8.8484456 84.2175098,8.8484456 C84.2477619,8.63989637 84.2477619,8.43134715 84.2477619,8.22279793 L84.2477619,2.94948187 L87.8477637,2.94948187 C87.8780158,2.94948187 87.8780158,2.94948187 87.8780158,2.94948187 C87.8780158,2.94948187 87.8780158,2.97927461 87.8780158,3.00906736 L87.8780158,4.79663212 C87.8780158,4.82642487 87.8780158,4.82642487 87.8780158,4.85621762 C87.8780158,4.88601036 88.0292764,6.70336788 86.8494439,8.10362694 Z M75.686413,11.7979275 C75.5956566,12.0064767 75.3838918,12.1554404 75.172127,12.1554404 C75.1116228,12.1554404 75.0511185,12.1554404 74.9603622,12.1256477 C73.1149831,11.4404145 72.7217056,9.80181347 72.7519577,9.05699482 L72.7519577,3.45595855 C72.7519577,3.15803109 72.9939746,2.91968912 73.2964958,2.91968912 C73.599017,2.91968912 73.8410339,3.15803109 73.8410339,3.45595855 L73.8410339,9.08678756 C73.8410339,9.1761658 73.7805296,10.5466321 75.3233876,11.1126943 C75.6561609,11.2020725 75.8074214,11.5297927 75.686413,11.7979275 Z" id="prize"/></g></g></g></svg>