<svg viewBox="0,0,816,240"><path class="apollo" d="M169.68,161.48h-22l-25.27-71.7L108.22,129h21.84l6,17.07H102.89l-5.74,15.43h-22l35.1-91.1h24.31Zm392.25,0V144.41H523.41v-74H503.88v91.1Zm112.57,0V144.41H636v-74H616.44v91.1ZM395.71,86.71A29.29,29.29,0,1,0,425,116a29.32,29.32,0,0,0-29.29-29.29m0-17.83A47.12,47.12,0,1,1,348.6,116a47.12,47.12,0,0,1,47.12-47.12ZM764.28,86.71A29.29,29.29,0,1,0,793.57,116a29.32,29.32,0,0,0-29.29-29.29m0-17.83A47.12,47.12,0,1,1,717.16,116a47.12,47.12,0,0,1,47.12-47.12Zm-466,31.38c0,16.19-13.12,29.87-29.32,29.87H245.9v31.35H226.5V70.38H269C285.17,70.38,298.29,84.06,298.29,100.25Zm-17.83,0c0-6.33-5.15-12-11.49-12H245.9V112.3H269C275.31,112.3,280.47,106.59,280.47,100.25Zm-70.71,88.87a5,5,0,0,0-4.09,2.12s-4.37,5-6.73,7.35a108.71,108.71,0,1,1-8.49-161.28A12.25,12.25,0,1,0,197.3,30a118.67,118.67,0,1,0,16,167.71,5,5,0,0,0-3.55-8.56Z" transform="translate(-3.46 -3.12)"></path></svg>