<?xml version="1.0" encoding="UTF-8"?>
<svg width="89.3px" height="62px" viewBox="0 0 85 59" version="1.1" xmlns="http://www.w3.org/2000/svg" xmlns:xlink="http://www.w3.org/1999/xlink">
    <g id="Page-1" stroke="none" stroke-width="1" fill="none" fill-rule="evenodd">
        <g id="BR_Dachmarke" fill="#0086CB">
            <path d="M74.3604844,1.56613214 C69.3482741,1.56613214 65.2850749,5.64322125 65.2850749,10.6725656 C65.2850749,15.7035716 69.3496167,19.7820079 74.3634831,19.7820079 C79.3773495,19.7820079 83.4418913,15.7035716 83.4418913,10.6725656 C83.4394078,5.64190374 79.3740083,1.56530083 74.3604844,1.56613214 Z M78.6365571,14.9948493 L78.6365571,4.31024821 L67.9268842,8.16916143 L67.9268842,10.824515 L71.472786,9.53670611 L71.472786,17.570467 L78.6365571,14.9978582 L78.6365571,14.9948493 Z M74.3604844,1.06764635e-07 C78.6633075,-0.000608382009 82.5427558,2.59982222 84.1896551,6.58858529 C85.8365543,10.5773484 84.9265327,15.1688209 81.8839773,18.2217771 C78.8414219,21.2747333 74.2655916,22.1878658 70.2904175,20.5353367 C66.3152434,18.8828077 63.7236719,14.9900976 63.7242784,10.6725656 C63.7242784,4.77827042 68.48627,1.06764636e-07 74.3604844,1.06764635e-07 Z M50.0249529,32.2779662 C56.2366532,30.1235944 60.6821495,25.1528929 60.6821495,17.7705588 C60.6821495,15.9215902 59.7495698,11.4338171 56.3625964,8.53775158 C54.1301026,6.62860504 50.9020576,4.37042619 40.4817542,4.11767866 C38.3272253,4.06502292 31.7766777,4.29821261 31.7766777,4.29821261 L31.7766777,4.67733391 C33.6268438,6.09452543 35.6149477,8.4444757 36.5715166,11.1539894 C37.5670679,11.1208915 39.075388,11.0411557 40.5627177,11.1208915 C44.7473316,11.3450545 46.5705099,12.1288728 48.4551604,13.6182779 C50.3518056,15.1106919 51.3728454,17.6772829 51.3593514,20.0046664 C51.3473569,23.182064 49.845034,26.464773 45.2750937,28.3332994 C41.5762609,29.8467757 37.1037767,30.179259 37.1037767,30.179259 L37.100778,31.3376852 C37.100778,31.3376852 39.7800704,32.6239896 42.4563642,36.1744907 C44.7608255,39.2315323 58.1437936,58.9969911 58.1437936,58.9969911 L69.1998104,58.9969911 C69.1998104,58.9969911 51.3323636,34.0231278 50.0234536,32.2779662 L50.0249529,32.2779662 Z M14.6603923,51.3694316 L8.47118189,51.3694316 L8.47118189,11.075758 C8.5581427,11.075758 11.2494297,11.0426602 12.9256742,11.0426602 C19.8375589,11.0426602 23.6713309,14.629268 23.7777829,19.5518271 C23.8452525,22.539664 22.9621506,25.4071449 19.9245197,27.5148788 C17.4446374,29.2404825 13.9901944,29.7534998 13.9901944,29.7534998 L13.9901944,31.0518398 C13.9901944,31.0518398 18.779036,31.7679578 21.2109399,32.9083306 C25.738899,35.0296046 27.0837929,38.3243492 27.1152787,42.5879593 C27.1647564,49.3263891 20.6831777,51.3724405 14.6618916,51.3724405 L14.6603923,51.3694316 Z M4.26133576e-15,4.28316811 L0,59 L12.0995465,59 C27.9848867,59 36.3811024,53.1266288 36.3811024,42.0117551 C36.3811024,35.3951858 32.2399689,31.0172375 25.7209071,29.4992478 C29.969992,26.9762859 32.6972628,23.2708265 32.6972628,17.7464876 C32.6972628,11.8400184 29.2038373,4.03192503 14.5704329,4.03192503 C8.40821027,4.03192503 1.65675327,4.23201683 0,4.28316811 Z" id="Shape"></path>
        </g>
    </g>
</svg>
