<?xml version="1.0" encoding="UTF-8"?>
<svg width="203px" height="55px" viewBox="0 0 203 55" version="1.1" xmlns="http://www.w3.org/2000/svg" xmlns:xlink="http://www.w3.org/1999/xlink">
    <!-- Generator: Sketch 48.2 (47327) - http://www.bohemiancoding.com/sketch -->
    <title>Artboard</title>
    <desc>Created with Sketch.</desc>
    <defs></defs>
    <g id="Page-1" stroke="none" stroke-width="1" fill="none" fill-rule="evenodd">
        <g id="Artboard" fill="#11110F">
            <g id="GitHub_Logo">
                <path d="M39.4434184,23.5646939 L22.4568367,23.5646939 C22.0185204,23.5646939 21.6632653,23.919949 21.6632653,24.3588265 L21.6632653,32.6638265 C21.6632653,33.1015816 22.0185204,33.4585204 22.4568367,33.4585204 L29.0832143,33.4585204 L29.0832143,43.7766327 C29.0832143,43.7766327 27.5954082,44.2839796 23.4816327,44.2839796 C18.6287245,44.2839796 11.8491327,42.5110714 11.8491327,27.6027041 C11.8491327,12.6915306 18.9087755,10.7294898 25.5362755,10.7294898 C31.2736735,10.7294898 33.7447449,11.7391327 35.3178571,12.2262755 C35.8122959,12.3772449 36.2691327,11.8856122 36.2691327,11.4467347 L38.1638265,3.42290816 C38.1638265,3.2175 38.0942347,2.97 37.8607653,2.8027551 C37.2220918,2.34704082 33.3255102,0.166683673 23.4816327,0.166683673 C12.1420918,0.166683673 0.509591837,4.99096939 0.509591837,28.1841327 C0.509591837,51.3772959 13.827449,54.8333163 25.0502551,54.8333163 C34.342449,54.8333163 39.9793878,50.8626531 39.9793878,50.8626531 C40.2117347,50.7341327 40.2369898,50.4097449 40.2369898,50.2610204 L40.2369898,24.3588265 C40.2369898,23.919949 39.8817347,23.5646939 39.4434184,23.5646939" id="Fill-11"></path>
                <path d="M126.985459,2.94530612 C126.985459,2.50362245 126.635255,2.1472449 126.196378,2.1472449 L116.63199,2.1472449 C116.195357,2.1472449 115.840102,2.50362245 115.840102,2.94530612 C115.840102,2.94755102 115.842908,21.4292347 115.842908,21.4292347 L100.93398,21.4292347 L100.93398,2.94530612 C100.93398,2.50362245 100.582653,2.1472449 100.144898,2.1472449 L90.5810714,2.1472449 C90.1461224,2.1472449 89.7908673,2.50362245 89.7908673,2.94530612 L89.7908673,52.9941837 C89.7908673,53.4358673 90.1461224,53.795051 90.5810714,53.795051 L100.144898,53.795051 C100.582653,53.795051 100.93398,53.4358673 100.93398,52.9941837 L100.93398,31.5868367 L115.842908,31.5868367 C115.842908,31.5868367 115.816531,52.9925 115.816531,52.9941837 C115.816531,53.4358673 116.171224,53.795051 116.60898,53.795051 L126.195816,53.795051 C126.634133,53.795051 126.984337,53.4358673 126.985459,52.9941837 L126.985459,2.94530612" id="Fill-13"></path>
                <path d="M57.4918367,9.51331633 C57.4918367,6.06908163 54.7311735,3.28596939 51.3245408,3.28596939 C47.9212755,3.28596939 45.1578061,6.06908163 45.1578061,9.51331633 C45.1578061,12.9536224 47.9212755,15.7440306 51.3245408,15.7440306 C54.7311735,15.7440306 57.4918367,12.9536224 57.4918367,9.51331633" id="Fill-14"></path>
                <path d="M56.8082653,42.4369898 C56.8082653,41.1540306 56.8082653,19.3341837 56.8082653,19.3341837 C56.8082653,18.8953061 56.4541327,18.5366837 56.0169388,18.5366837 L46.4822959,18.5366837 C46.045102,18.5366837 45.6539286,18.9879082 45.6539286,19.4267857 C45.6539286,19.4267857 45.6539286,47.2264796 45.6539286,52.5255612 C45.6539286,53.4981633 46.260051,53.7877551 47.0440816,53.7877551 C47.0440816,53.7877551 51.1140816,53.7877551 55.6341837,53.7877551 C56.5770408,53.7877551 56.8082653,53.3247449 56.8082653,52.5098469 C56.8082653,50.7358163 56.8082653,43.7856122 56.8082653,42.4369898" id="Fill-15"></path>
                <path d="M163.334286,18.612449 L153.843418,18.612449 C153.408469,18.612449 153.053776,18.9710714 153.053776,19.4121939 L153.053776,43.9528571 C153.053776,43.9528571 150.642194,45.7167857 147.219847,45.7167857 C143.798061,45.7167857 142.89,44.1638776 142.89,40.8133673 C142.89,37.4583673 142.89,19.4121939 142.89,19.4121939 C142.89,18.9710714 142.536429,18.612449 142.100357,18.612449 L132.4675,18.612449 C132.033112,18.612449 131.676735,18.9710714 131.676735,19.4121939 C131.676735,19.4121939 131.676735,32.4808673 131.676735,42.4336224 C131.676735,52.3869388 137.223878,54.8220918 144.854847,54.8220918 C151.115867,54.8220918 156.16352,51.3632653 156.16352,51.3632653 C156.16352,51.3632653 156.403724,53.1861224 156.512602,53.4021939 C156.620918,53.6177041 156.904337,53.8354592 157.210765,53.8354592 L163.338776,53.8079592 C163.773163,53.8079592 164.129541,53.4487755 164.129541,53.0093367 L164.126173,19.4121939 C164.126173,18.9710714 163.772041,18.612449 163.334286,18.612449" id="Fill-16"></path>
                <path d="M185.531837,45.6864796 C182.239694,45.5865816 180.006582,44.092602 180.006582,44.092602 L180.006582,28.2430612 C180.006582,28.2430612 182.209388,26.8927551 184.912245,26.6514286 C188.330102,26.3455612 191.623367,27.3776531 191.623367,35.5311224 C191.623367,44.1285204 190.137245,45.8256633 185.531837,45.6864796 Z M189.275204,17.4877551 C183.884643,17.4877551 180.218163,19.8931633 180.218163,19.8931633 L180.218163,2.94530612 C180.218163,2.50362245 179.864592,2.1472449 179.429082,2.1472449 L169.837194,2.1472449 C169.401122,2.1472449 169.04699,2.50362245 169.04699,2.94530612 L169.04699,52.9941837 C169.04699,53.4358673 169.401122,53.795051 169.838316,53.795051 C169.839439,53.795051 176.491071,53.795051 176.493316,53.795051 C176.79301,53.795051 177.019745,53.6407143 177.187551,53.3702041 C177.353112,53.1013776 177.591633,51.062449 177.591633,51.062449 C177.591633,51.062449 181.513469,54.7788776 188.937908,54.7788776 C197.654847,54.7788776 202.653673,50.357551 202.653673,34.9311735 C202.653673,19.5036735 194.669694,17.4877551 189.275204,17.4877551 Z" id="Fill-17"></path>
                <path d="M84.2970408,18.5321939 L77.1223469,18.5321939 C77.1223469,18.5321939 77.1116837,9.05591837 77.1116837,9.05423469 C77.1116837,8.69505102 76.9264796,8.51602041 76.5117347,8.51602041 L66.7352041,8.51602041 C66.3546939,8.51602041 66.1509694,8.68326531 66.1509694,9.04862245 L66.1509694,18.8431122 C66.1509694,18.8431122 61.2514796,20.0261735 60.9197959,20.1215816 C60.5903571,20.2169898 60.3473469,20.5211735 60.3473469,20.8842857 L60.3473469,27.0392347 C60.3473469,27.4820408 60.7009184,27.8389796 61.1381122,27.8389796 L66.1509694,27.8389796 C66.1509694,27.8389796 66.1509694,34.2767857 66.1509694,42.6463265 C66.1509694,53.6446429 73.8655612,54.725 79.0709184,54.725 C81.449949,54.725 84.2953571,53.9611735 84.765102,53.7877551 C85.0490816,53.6833673 85.2140816,53.3887245 85.2140816,53.069949 L85.2225,46.2993367 C85.2225,45.8576531 84.8492857,45.5001531 84.4294898,45.5001531 C84.0108163,45.5001531 82.9416837,45.6702041 81.8405612,45.6702041 C78.3160714,45.6702041 77.1223469,44.0314286 77.1223469,41.9105612 C77.1223469,39.7913776 77.1217857,27.8389796 77.1217857,27.8389796 L84.2970408,27.8389796 C84.7342347,27.8389796 85.0883673,27.4820408 85.0883673,27.0392347 L85.0883673,19.3296939 C85.0883673,18.8880102 84.7342347,18.5321939 84.2970408,18.5321939" id="Fill-18"></path>
            </g>
        </g>
    </g>
</svg>