<svg xmlns="http://www.w3.org/2000/svg" width="109" height="25"><g fill="none" fill-rule="evenodd"><path fill="#27AE60" d="M19.84 8.1c-1.2-.67-2.7.2-2.94.35l-5.15 2.92c-.76-.6-1.84-.58-2.57.06-.73.64-.9 1.7-.4 2.54.5.84 1.5 1.2 2.42.85.9-.34 1.45-1.28 1.28-2.23l5.14-2.92.03-.02c.34-.2 1.13-.53 1.5-.33.25.15.4.64.4 1.38v6.45c0 .6-.32 1.16-.84 1.46l-7.37 4.27c-.52.3-1.16.3-1.7 0L2.28 18.6c-.52-.3-.85-.84-.85-1.44V8.64c0-.6.33-1.16.85-1.46l6.68-3.85c.64.73 1.7.9 2.53.4.83-.48 1.2-1.5.87-2.4C12.02.4 11.1-.14 10.13.02 9.18.2 8.47 1 8.46 1.97l-6.9 3.98C.58 6.5 0 7.53 0 8.65v8.5c0 1.1.6 2.13 1.55 2.7l7.4 4.25c.95.55 2.13.55 3.1 0l7.38-4.26c.96-.56 1.55-1.58 1.56-2.7v-6.18c.03-1.45-.37-2.4-1.16-2.86z"/><g fill="#95E2A6" fill-rule="nonzero"><path d="M34.42 13.06h3.3v4.36c-.54.18-1.06.3-1.55.37-.5.06-1.03.1-1.6.1-1.36 0-2.4-.4-3.14-1.17-.73-.78-1.1-1.88-1.1-3.3 0-1.4.4-2.5 1.24-3.3.82-.78 1.97-1.18 3.42-1.18.92 0 1.8.18 2.65.53l-.52 1.18c-.73-.32-1.45-.5-2.17-.5-.95 0-1.7.3-2.26.88-.56.6-.84 1.38-.84 2.4 0 1.06.25 1.87.75 2.42.52.56 1.23.83 2.17.83.47 0 .98-.06 1.52-.18v-2.24H34.4v-1.22zM41.5 14.7v3.6h-1.45V9.33h2.48c1.14 0 1.98.22 2.53.65.54.42.82 1.07.82 1.94 0 1.12-.57 1.9-1.7 2.4l2.48 3.94h-1.64l-2.1-3.57h-1.43zm.1-1.08h.94c.63 0 1.08-.13 1.36-.4.3-.27.42-.67.42-1.2 0-.54-.15-.93-.45-1.16-.3-.23-.77-.35-1.38-.35h-.9v3.12zM54.07 18.3l-.88-2.48H49.8l-.87 2.47h-1.52l3.3-8.96h1.57l3.3 8.95h-1.53zm-1.2-3.9L52 12c-.06-.14-.15-.4-.26-.74-.12-.34-.2-.6-.24-.75-.12.5-.28 1.04-.5 1.62l-.84 2.28h2.72zM63 12.05c0 .93-.32 1.65-.92 2.15-.6.5-1.46.74-2.57.74h-.9v3.35h-1.45V9.33h2.54c1.1 0 1.92.23 2.47.68.54.47.82 1.14.82 2.03zm-4.3 1.57h.83c.8 0 1.37-.13 1.74-.4.37-.25.55-.65.55-1.2 0-.5-.16-.9-.5-1.13-.32-.26-.84-.4-1.54-.4h-1.06v3.12zM72.32 18.3h-1.45v-4.04h-4.1v4.03h-1.45V9.33h1.45V13h4.1V9.34h1.45M78.78 10.18c-.82 0-1.46.3-1.93.86-.47.58-.7 1.38-.7 2.4 0 1.07.22 1.87.67 2.42.46.55 1.1.83 1.96.83.38 0 .73-.05 1.08-.12.35-.08.7-.17 1.08-.28v1.22c-.7.25-1.46.38-2.33.38-1.26 0-2.24-.38-2.92-1.16-.7-.77-1.03-1.88-1.03-3.3 0-.9.17-1.7.5-2.38.33-.68.8-1.2 1.44-1.57.6-.37 1.35-.55 2.2-.55.9 0 1.7.2 2.46.56l-.5 1.2c-.3-.15-.62-.27-.95-.37-.32-.1-.66-.15-1.02-.15zM90.98 13.62c0 1.47-.35 2.62-1.06 3.44-.7.82-1.72 1.23-3.02 1.23s-2.32-.42-3.03-1.23c-.7-.8-1.05-1.97-1.05-3.47 0-1.5.35-2.64 1.06-3.45.7-.8 1.72-1.2 3.04-1.2 1.3 0 2.3.4 3 1.22.7.8 1.06 1.97 1.06 3.45zm-6.6-.2c0 1.1.2 1.9.63 2.47.44.56 1.07.83 1.9.83.84 0 1.46-.27 1.9-.83.42-.56.63-1.38.63-2.48 0-1.08-.2-1.9-.64-2.46-.43-.56-1.05-.84-1.9-.84-.83 0-1.46.28-1.9.84-.42.56-.63 1.38-.63 2.46zM101.1 13.62c0 1.47-.36 2.62-1.07 3.44-.7.82-1.72 1.23-3.02 1.23s-2.3-.42-3.02-1.23c-.7-.8-1.05-1.97-1.05-3.47 0-1.5.35-2.64 1.06-3.45.7-.8 1.7-1.2 3.03-1.2 1.3 0 2.3.4 3 1.22.7.8 1.06 1.97 1.06 3.45zm-6.62-.2c0 1.1.2 1.9.64 2.47.42.56 1.06.83 1.9.83.83 0 1.45-.27 1.88-.83.42-.56.63-1.38.63-2.48 0-1.08-.2-1.9-.63-2.46-.42-.56-1.04-.84-1.88-.84-.84 0-1.47.28-1.9.84-.42.56-.64 1.38-.64 2.46zM103.8 18.3V9.33h1.42v7.7h3.65v1.25"/></g></g></svg>