<svg xmlns="http://www.w3.org/2000/svg" width="110" height="24" xmlns:xlink="http://www.w3.org/1999/xlink"><defs><path id="a" d="M0 .1v19.85h18.9V.1H0z"/></defs><g fill="none" fill-rule="evenodd"><g transform="translate(-1022.000000, -5825.000000) translate(-2.000000, 5624.000000) translate(1024.000000, 200.000000) translate(0.000000, 1.000000) translate(0.000000, 3.699958)"><mask id="b" fill="#fff"><use xlink:href="#a"/></mask><path fill="#F6C724" d="M18.9 9.8c-.12-1.6-.5-3.12-1.07-4.53-.15-.37-.32-.74-.5-1.1.65-.38 1.1-1.08 1.1-1.88 0-1.23-1-2.2-2.22-2.2H2.7C1.5.1.5 1.06.5 2.3c0 .8.43 1.5 1.08 1.87-.18.36-.34.73-.5 1.1C.5 6.67.13 8.2.02 9.8l-.02.56c0 1.37.23 2.7.64 3.93.12.34.35.94.64 1.34.03.05.06.1.1.13.14.17.3.33.48.5.2.15.4.32.65.45.26.14.54.24.83.28.3.04.6 0 .84-.17.24-.16.42-.45.52-.77.2-.65.16-1.38.1-2.04-.06-.67-.2-1.3-.3-1.82-.25-1.06-.5-1.75-.5-1.75s.3.67.6 1.7c.17.54.34 1.15.46 1.83.1.68.2 1.43 0 2.2-.08.36-.26.76-.6 1.03-.34.28-.77.36-1.15.37-.4 0-.76-.1-1.08-.2l-.1-.06c.58.9 1.3 1.7 2.08 2.42.43.23 1.12.4 2.03-.07 1.6-.83 3.2-.92 3.2-.92s1.6.1 3.2.92c1.06.55 1.82.22 2.2-.05.75-.68 1.4-1.45 1.97-2.28-.04 0-.07.03-.1.04-.33.13-.7.22-1.1.22-.37 0-.8-.1-1.14-.37-.34-.26-.53-.65-.62-1.03-.17-.76-.1-1.5.02-2.18.12-.7.28-1.3.44-1.83.32-1.05.6-1.7.6-1.7s-.23.67-.48 1.73c-.12.53-.24 1.15-.3 1.82-.07.66-.1 1.4.1 2.05.1.32.28.6.53.76.23.17.54.22.84.17.27-.03.56-.14.8-.28.25-.13.47-.3.66-.45.25-.22.44-.44.6-.64.22-.32.4-.77.54-1.1.46-1.32.7-2.7.7-4.17V9.8" mask="url(#b)"/></g><path fill="#FFFFFE" d="M7.47 7.55c0 1.1-.9 2-2.02 2-1.1 0-2.02-.9-2.02-2s.9-2 2.02-2 2.02.9 2.02 2"/><path fill="#26292D" d="M2.7 4.88c-.6 0-1.1.5-1.1 1.1 0 .4.2.74.52.94.4-.63.82-1.22 1.3-1.78-.2-.16-.44-.26-.7-.26M16.2 4.88c-.26 0-.5.1-.7.26.48.56.9 1.15 1.3 1.78.3-.2.52-.54.52-.93 0-.62-.5-1.12-1.1-1.12M5.45 6.66c-.06 0-.12 0-.18.02.04.07.06.15.06.23 0 .28-.22.5-.5.5-.1 0-.17-.03-.25-.07l-.03.22c0 .5.4.9.9.9s.9-.4.9-.9-.4-.9-.9-.9"/><path fill="#FFFFFE" d="M15.48 7.55c0 1.1-.9 2-2.02 2s-2.02-.9-2.02-2 .9-2 2.02-2c1.1 0 2.02.9 2.02 2"/><path fill="#26292D" d="M13.46 6.66c-.06 0-.12 0-.18.02.03.07.05.15.05.23 0 .28-.22.5-.5.5-.08 0-.17-.03-.24-.07-.03.07-.04.15-.04.22 0 .5.4.9.9.9s.9-.4.9-.9-.4-.9-.9-.9"/><path fill="#FFFFFE" d="M12.17 11.43c0 1.5-1.23 2.72-2.74 2.72-1.52 0-2.75-1.22-2.75-2.72 0-1.5 1.23-2.73 2.75-2.73 1.5 0 2.74 1.22 2.74 2.73"/><path fill="#26292D" d="M10.85 9.94c0-.04 0-.08-.02-.1V9.8l-.06-.1s-.16-.32-1.33-.32c-.7 0-1.03.1-1.2.2-.1.04-.17.12-.2.22 0 0-.02 0-.02.03l-.02.1v.02c0 .17.05.47.44.78.36.28.64.4.8.43v2.98h.36v-2.98c.17-.04.45-.15.8-.43.4-.3.46-.6.45-.78"/><path fill="#F6C724" d="M5 3.2h8.86c-1.06-.72-2.3-1.2-3.65-1.33L10.76.4S10.4.13 9.45.13c-.98 0-1.33.3-1.33.3l.54 1.45C7.3 2 6.06 2.47 5 3.2"/><path fill="#FFFFFE" d="M1.5 18.44s-.16-.2-.32-.5c-.16-.33-.33-.78-.43-1.25-.1-.47-.16-.94-.17-1.3v-.6l.06.17.1.4c.07.36.16.8.27 1.26.1.46.23.9.32 1.24l.12.4c.04.1.05.17.05.17M15.18 15.57s0 .16-.03.4c-.02.23-.08.53-.14.83-.05.3-.13.6-.2.8-.02.13-.06.22-.08.28l-.03.1s-.04-.15-.04-.4c0-.22.03-.53.1-.84.06-.3.15-.6.24-.8.1-.23.18-.37.18-.37M2.67 4.06s-.16.06-.38.2c-.12.05-.24.13-.36.22-.12.1-.24.2-.35.32-.12.1-.22.24-.3.36-.1.13-.17.25-.23.36l-.14.28-.06.1v-.12c.02-.07.02-.2.06-.3.03-.14.1-.3.16-.44.07-.14.17-.3.3-.43.25-.25.57-.43.83-.5.26-.06.44-.04.44-.04"/><g fill="#000"><path d="M45.32 16.53c-.53.55-1.2.82-1.97.82s-1.42-.27-1.95-.82c-.54-.54-.8-1.24-.8-2.1 0-.84.26-1.54.8-2.1.53-.54 1.18-.8 1.95-.8s1.42.26 1.97.8c.54.56.8 1.26.8 2.1 0 .86-.26 1.56-.8 2.1zm-1.97-7c-1.44 0-2.65.47-3.63 1.4-.98.9-1.47 2.08-1.47 3.5s.5 2.6 1.47 3.5c.98.94 2.2 1.4 3.63 1.4 1.45 0 2.67-.46 3.65-1.4.98-.9 1.47-2.08 1.47-3.5s-.5-2.6-1.48-3.5c-1-.93-2.2-1.4-3.65-1.4zM63.84 13.22c.13-.58.4-1.05.8-1.38.4-.34.9-.5 1.48-.5.5 0 .9.17 1.24.53.33.35.5.8.52 1.35h-4.04zm2.28-3.68c-1.4 0-2.54.45-3.4 1.36-.9.9-1.33 2.1-1.33 3.53 0 1.37.45 2.53 1.37 3.48.92.96 2.13 1.43 3.63 1.43.44 0 .87-.05 1.3-.16.4-.1.75-.2 1.02-.34.27-.12.53-.26.78-.42.25-.15.4-.26.48-.33l.16-.15-.96-1.62-.33.26c-.2.17-.53.35-.97.52-.44.18-.88.27-1.32.27-.73 0-1.36-.22-1.88-.66-.52-.45-.83-1.07-.9-1.86h6.42l.06-.87c0-1.28-.37-2.34-1.1-3.18-.73-.85-1.74-1.26-3.04-1.26zM88.84 16.6c-.45.5-1 .77-1.68.77-.73 0-1.3-.3-1.7-.86-.4-.55-.6-1.23-.6-2 0-1 .22-1.73.67-2.22.46-.5 1-.75 1.67-.75.7 0 1.25.27 1.68.8.43.55.64 1.26.64 2.14 0 .9-.23 1.6-.68 2.12zM87.7 9.53c-.4 0-.77.05-1.13.16-.36.1-.64.23-.84.36-.2.13-.4.28-.56.45-.17.18-.28.3-.32.37-.04.06-.08.1-.1.15h-.04v-.37c0-.6-.38-.9-1.16-.9H79.3c-.63 0-1.05.3-1.24.9l-.05.14-1.84 5.38-2.2-5.54c-.12-.32-.27-.55-.45-.68-.17-.14-.43-.2-.76-.2h-1.8l4.14 9.33-.3.7c-.34.8-.85 1.2-1.55 1.2-.5 0-.95-.22-1.33-.64L71 22l.28.24c.17.16.45.32.84.48.4.16.8.24 1.24.24.73 0 1.4-.2 2-.6.6-.42 1.05-1.03 1.36-1.84l3.35-8.45c.08-.22.26-.33.53-.33h1.6c.28 0 .4.13.4.4v10.64h2.3V18.9c0-.3 0-.58-.02-.8h.03l.27.3c.17.2.48.4.92.62.44.2.93.3 1.48.3 1.24 0 2.27-.44 3.07-1.34.8-.9 1.2-2.08 1.2-3.55 0-1.45-.37-2.63-1.12-3.54-.76-.9-1.77-1.36-3.02-1.36zM100.1 16.53c-.53.55-1.2.82-1.97.82s-1.42-.27-1.96-.82c-.53-.54-.8-1.24-.8-2.1 0-.84.27-1.54.8-2.1.54-.54 1.2-.8 1.96-.8.77 0 1.42.26 1.96.8.53.56.8 1.26.8 2.1 0 .86-.26 1.56-.8 2.1zm-1.97-7c-1.44 0-2.65.47-3.63 1.4-.98.9-1.47 2.08-1.47 3.5s.5 2.6 1.47 3.5c.98.94 2.2 1.4 3.63 1.4 1.45 0 2.66-.46 3.64-1.4.98-.9 1.48-2.08 1.48-3.5s-.5-2.6-1.48-3.5c-1-.93-2.2-1.4-3.64-1.4zM109.55 17.15c-.46 0-.9-.13-1.27-.38-.38-.25-.58-.7-.58-1.38v-3.8h2.12V9.77h-2.12V7.2h-2.26v2.56h-1.26v1.85h1.2v4.08c0 .6.1 1.12.3 1.57.17.44.4.8.68 1.02.28.24.6.44.98.58.38.15.7.24 1 .3.3.03.6.05.92.05.28 0 .52-.02.7-.05V17.1l-.4.05M34.06 7.34v4.27h-5.72V7.35c0-.43-.1-.75-.3-.95-.2-.2-.5-.3-.94-.3h-1.16v13h2.4v-5.46h5.72v5.47h2.4v-13H35.3c-.83 0-1.24.4-1.24 1.24M56.1 9.54c-.85 0-1.55.2-2.1.58-.54.4-.94.85-1.2 1.36h-.04l.04-.4v-.28c0-.7-.4-1.04-1.22-1.04h-1v9.35h2.3v-4.28c0-.47.05-.88.18-1.25.17-.57.47-1.04.92-1.38.44-.36.97-.54 1.58-.54.55 0 .93.17 1.14.5.22.3.32.8.32 1.4v4.3c0 .44.1.76.3.96.2.2.5.3.95.3h1.07v-6.03c0-2.38-1.08-3.56-3.25-3.56"/></g></g></svg>