<svg width="200" height="45" viewBox="0 0 985 195" version="1.1" xmlns="http://www.w3.org/2000/svg" xmlns:xlink="http://www.w3.org/1999/xlink"><g id="Page-1" stroke="none" stroke-width="1" fill="none" fill-rule="evenodd"><g id="okgrow-logo" transform="translate(0.000000, -1.000000)" fill="#000" fill-rule="nonzero"><path d="M248.55,100.99 C248.420277,93.1038297 249.77727,85.2637985 252.55,77.88 C254.886031,71.6280684 258.526791,65.9453475 263.23,61.21 C272.043333,52.5833333 283.296667,48.27 296.99,48.27 C310.683333,48.27 321.936667,52.5166667 330.75,61.01 C340.516667,70.3433333 345.403333,83.56 345.41,100.66 C345.416667,117.76 340.93,130.873333 331.95,140 C322.976667,149.153333 311.31,153.73 296.95,153.73 C282.59,153.73 270.946667,149.096667 262.02,139.83 C253.04,130.556667 248.55,117.61 248.55,100.99 Z M297.17,144.82 C304.860888,144.950894 312.221047,141.696775 317.3,135.92 C324.133333,128.433333 327.55,117.043333 327.55,101.75 C327.55,86.4566667 324.626667,75.2033333 318.78,67.99 C312.933333,60.7766667 305.583333,57.17 296.73,57.17 C287.876667,57.17 280.616667,60.7633333 274.95,67.95 C269.223333,75.1433333 266.36,85.93 266.36,100.31 C266.36,120.976667 272.026667,134.603333 283.36,141.19 C287.554167,143.617381 292.324323,144.871231 297.17,144.82 Z" id="Shape" stroke="#000" stroke-width="3"/><path d="M437.83,134.62 C439.99,137.9 441.38,139.34 442.6,141.03 C443.82,142.72 444.83,143.39 449.6,146.38 L452.36,147.59 L450.69,152.38 L419.97,152.38 L418.15,150.14 L419.97,147.62 C422.31,144.53 423.84,141.27 422.55,138.04 L420.43,134.52 L399.43,100.89 L382.55,117.22 L382.55,124.38 C382.55,129.99 382.21,134.57 383.14,137.8 C384.153258,141.349603 385.818272,144.679632 388.05,147.62 L389.87,150.14 L388.05,152.38 L357.33,152.38 L355.65,147.61 L358.88,146.77 C362.433333,145.736667 364.816667,144.38 366.03,142.7 C367.243333,141.02 367.85,138.02 367.85,133.7 L367.85,69.31 C367.85,65.01 367.25,61.31 366.04,59.67 C364.83,58.03 362.44,56.67 358.89,55.6 L355.66,54.76 L357.34,49.99 L388.05,49.99 L389.87,52.23 L388.05,54.75 C385.71,57.84 383.8,61.05 383.14,64.57 C382.42,68.41 382.57,75.57 382.57,81.19 L382.57,105.58 L420.86,68.58 C423.28,66 425.81,63.04 425.81,61.22 C425.671567,58.8532328 425.052302,56.5394962 423.99,54.42 L422.73,51.9 L425.39,49.66 L450.77,49.66 L452.45,54.38 L449.22,55.22 C444.45,56.53 437.38,63.84 437.38,63.84 L409.47,91.11 L437.82,134.6 L437.83,134.62 Z" id="Shape" stroke="#000" stroke-width="3"/><path d="M516.06,131.64 C513.650401,127.418783 511.852453,122.876774 510.72,118.15 C509.43915,113.045674 508.794259,107.802575 508.8,102.54 C508.756511,97.703593 509.181832,92.874354 510.07,88.12 C510.898361,83.8791005 512.196358,79.7436218 513.94,75.79 C517.500695,67.6138374 523.379679,60.6605736 530.85,55.79 C538.43,50.79 547.743333,48.29 558.79,48.29 C569.836667,48.29 579.036667,51.03 586.39,56.51 C593.723333,61.99 597.39,68.68 597.39,76.58 C597.39,81.9666667 595.243333,85.5966667 590.95,87.47 C589.613053,88.0664798 588.163938,88.3699415 586.7,88.36 C584.050665,88.4657945 581.474925,87.4745687 579.58,85.62 C577.826382,83.9660215 576.834707,81.6605589 576.84,79.25 C576.84,74.41 578.78,71.0766667 582.66,69.25 C580.674723,65.2585892 577.391887,62.0603807 573.35,60.18 C569.180524,58.0184623 564.55642,56.8804324 559.86,56.86 C550.133333,56.86 542.2,60.49 536.06,67.75 C529.92,75.01 526.86,85.8866667 526.88,100.38 C526.88,114.873333 530.076667,125.91 536.47,133.49 C542.863333,141.07 550.623333,144.86 559.75,144.86 C567.19,144.86 572.953333,142.986667 577.04,139.24 C581.126667,135.493333 583.17,131.373333 583.17,126.88 C583.17,122.386667 582.143333,119.556667 580.09,118.39 C578.036667,117.223333 573.333333,116.64 565.98,116.64 L565.98,107.53 L597.35,107.53 L597.35,152.38 L588.17,152.38 L585.64,144.16 C581.713333,148.266667 575.64,151.143333 567.42,152.79 C564.040604,153.478549 560.598747,153.813686 557.15,153.79 C553.222782,153.77961 549.307675,153.35391 545.47,152.52 C541.544342,151.682366 537.738355,150.358837 534.14,148.58 C530.5057,146.770492 527.140236,144.465149 524.14,141.73 C520.940358,138.805429 518.214516,135.4015 516.06,131.64 Z" id="Shape" stroke="#000" stroke-width="3"/><path d="M702.61,100.99 C702.480277,93.1038297 703.83727,85.2637985 706.61,77.88 C708.946031,71.6280684 712.586791,65.9453475 717.29,61.21 C726.103333,52.5833333 737.356667,48.27 751.05,48.27 C764.743333,48.27 775.996667,52.5166667 784.81,61.01 C794.576667,70.3433333 799.46,83.56 799.46,100.66 C799.46,117.76 794.973333,130.873333 786,140 C777.026667,149.153333 765.36,153.73 751,153.73 C736.64,153.73 724.996667,149.096667 716.07,139.83 C707.096667,130.556667 702.61,117.61 702.61,100.99 Z M751.23,144.82 C758.920888,144.950894 766.281047,141.696775 771.36,135.92 C778.206667,128.433333 781.63,117.043333 781.63,101.75 C781.63,86.4566667 778.706667,75.2033333 772.86,67.99 C767.013333,60.7766667 759.663333,57.17 750.81,57.17 C741.956667,57.17 734.686667,60.7666667 729,67.96 C723.266667,75.1533333 720.403333,85.94 720.41,100.32 C720.41,120.986667 726.076667,134.613333 737.41,141.2 C741.608082,143.625626 746.381865,144.876067 751.23,144.82 Z" id="Shape" stroke="#000" stroke-width="3"/><path d="M962.16,143.18 C962.170706,138.163139 965.722488,133.8519 970.644563,132.881234 C975.566637,131.910568 980.489257,134.550597 982.403806,139.187785 C984.318355,143.824973 982.692042,149.168852 978.518838,151.953341 C974.345634,154.73783 968.786886,154.188043 965.24,150.64 C963.228347,148.684584 962.113791,145.985042 962.16,143.18 Z M969.76,121.68 C969.166667,115.973333 968.5,110.243333 967.76,104.49 C965.093333,82.7566667 963.563333,65.66 963.17,53.2 C963.03,49.9133333 966.25,48.27 972.83,48.27 C977.623333,48.27 980.683333,49 982.01,50.46 C982.629729,51.2316945 982.923922,52.214731 982.83,53.2 C982.416667,65.9866667 981.416667,79.17 979.83,92.75 C978.243333,106.33 977.136667,115.973333 976.51,121.68 L969.76,121.68 Z" id="Shape" stroke="#000" stroke-width="3"/><path d="M697.82,148.71 C693.986667,152.45 689.733333,154.32 685.06,154.32 C680.386667,154.32 676.646667,153.006667 673.84,150.38 C671.033333,147.766667 668.276667,143.606667 665.57,137.9 L654.91,115.32 C654.07,113.45 652.36,110.43 649.37,109.32 C647.709334,108.829699 646.60655,107.25844 646.71,105.53 C646.71,103.663333 647.456667,102.73 648.95,102.73 C649.04,102.73 650.39,102.73 651.82,102.73 C653.25,102.73 650.14,102.73 651.82,102.73 C658.833333,102.73 664.303333,100.73 668.23,96.73 C672.156667,92.73 674.12,87.3766667 674.12,80.67 C674.12,73.9366667 672.04,68.3966667 667.88,64.05 C663.72,59.7033333 657.97,57.53 650.63,57.53 C643.296667,57.53 639.63,59.68 639.63,63.98 L639.63,124.15 C639.511916,128.701477 639.982479,133.249133 641.03,137.68 C642.040662,141.252061 643.705522,144.605517 645.94,147.57 L647.76,150.09 L645.93,152.38 L615.21,152.38 L613.55,147.59 L616.78,146.75 C620.333333,145.816667 622.716667,144.46 623.93,142.68 C625.143333,140.9 625.75,137.9 625.75,133.68 L625.75,64.38 C625.75,62.1333333 624.72,61.01 622.66,61.01 L614.55,61.01 L612.87,55.82 C618.036546,53.9155548 623.364985,52.4830348 628.79,51.54 C635.04944,50.3114207 641.411193,49.6785937 647.79,49.65 C661.623333,49.65 671.906667,52.5033333 678.64,58.21 C685.373333,63.9166667 688.74,71.3033333 688.74,80.37 C688.873938,86.8695683 686.852058,93.2305796 682.99,98.46 C679.156667,103.606667 673.49,107.066667 665.99,108.84 C668.384429,110.646399 670.308667,113.002819 671.6,115.71 L684.6,142.22 C686,145.12 687.666667,146.57 689.6,146.57 C691.679037,146.523151 693.690654,145.823458 695.35,144.57 L697.82,148.71 Z" id="Shape" stroke="#000" stroke-width="3"/><path d="M828.73,59.53 C827.72538,60.5281472 827.191157,61.9054966 827.26,63.32 C827.426687,65.7163139 827.945594,68.0749843 828.8,70.32 L851.66,140.73 L872.56,75.51 L871.16,71.02 C870.144229,67.4976049 868.530754,64.1759421 866.39,61.2 C864.081997,58.4574586 861.445551,56.0090912 858.54,53.91 L860.36,51.67 L891.92,51.67 L893.6,56.44 L890.37,57.28 C888.595686,57.6131608 886.932288,58.3829976 885.53,59.52 C884.52538,60.5181472 883.991157,61.8954966 884.06,63.31 C884.22712,65.7062516 884.746013,68.0648592 885.6,70.31 L908.46,140.72 L928.09,79.72 C929.863333,74.1066667 930.753333,69.7733333 930.76,66.72 C930.573333,61.58 928.47,58.4466667 924.45,57.32 L921.22,56.48 L922.9,51.71 L949.55,51.71 L951.37,53.95 L949.27,56.47 C945.809296,60.5876344 943.189849,65.3440876 941.56,70.47 L914.49,152.38 L898.49,152.38 L877.87,91.23 L857.69,152.38 L841.69,152.38 L814.34,71.04 C813.324229,67.5176049 811.710754,64.1959421 809.57,61.22 C807.261997,58.4774586 804.625551,56.0290912 801.72,53.93 L803.54,51.69 L835.1,51.69 L836.78,56.46 L833.55,57.3 C831.783665,57.6333694 830.127571,58.3995705 828.73,59.53 Z" id="Shape" stroke="#000" stroke-width="3"/><path d="M47.71,38.38 L48.4,38.49 L48.69,38.49 L50.3,38.78 L50.51,38.78 L51.89,39.07 L52.23,39.15 L53.76,39.52 L53.9,39.52 L55.27,39.89 L55.64,39.99 L57.12,40.43 L58.56,40.9 L58.95,41.03 L60.21,41.48 L60.4,41.55 L61.79,42.1 L62.18,42.26 L63.32,42.75 L63.61,42.88 L64.97,43.51 L65.32,43.68 L65.85,43.93 L65.85,43.85 C65.85,43.4566667 65.8766667,43.07 65.93,42.69 L65.93,42.42 C65.93,42.01 66,41.61 66.04,41.21 C66.04,40.81 66.12,40.41 66.17,40.02 L66.17,39.74 C66.21,39.4266667 66.2533333,39.1166667 66.3,38.81 L66.3,38.57 C66.3533333,38.1966667 66.41,37.8266667 66.47,37.46 L66.47,37.26 C66.5233333,36.96 66.58,36.66 66.64,36.36 L66.7,36.07 C66.77,35.73 66.84,35.39 66.91,35.07 C66.99,34.72 67.07,34.37 67.15,34.07 L67.22,33.8 C67.2866667,33.52 67.36,33.2433333 67.44,32.97 L67.5,32.75 C67.5933333,32.4166667 67.69,32.0833333 67.79,31.75 L67.85,31.56 L68.11,30.74 L68.19,30.48 C68.4033333,29.8133333 68.6333333,29.1466667 68.88,28.48 L68.97,28.23 L69.28,27.42 L69.36,27.23 L69.76,26.23 L69.84,26.04 L70.18,25.23 L70.24,25.09 C68.36,23.87 66.47,22.71 64.63,21.61 L48.35,13.92 L47.3,31.65 L47.44,34.95 C47.61,36.23 47.66,37.38 47.71,38.38 Z" id="Shape"/><path d="M22.65,68.18 L24.5,71.09 L24.99,70.91 L25.52,70.71 L26.9,70.22 L27.35,70.07 L28.4,69.72 L28.91,69.56 L30.3,69.14 L30.64,69.05 L31.78,68.74 L32.27,68.61 L33.57,68.3 L33.87,68.23 L35.16,67.96 L35.65,67.87 L36.83,67.66 L37.14,67.61 L38.55,67.38 L39.04,67.32 L40.17,67.18 L40.57,67.18 L42.01,67.05 L42.49,67.05 L42.97,67.05 L42.83,66.82 L42.91,66.82 L42.5,65.99 L42.33,65.63 L41.9,64.71 L41.82,64.54 C41.66,64.19 41.51,63.84 41.36,63.54 L41.22,63.21 L40.9,62.42 L40.78,62.13 C40.6466667,61.79 40.5166667,61.4566667 40.39,61.13 L40.3,60.89 L40.01,60.08 L39.91,59.78 C39.8033333,59.46 39.7,59.1266667 39.6,58.78 L39.6,58.72 C39.49,58.38 39.39,58.04 39.29,57.72 L39.21,57.45 L38.98,56.63 L38.92,56.42 C38.8333333,56.08 38.75,55.7466667 38.67,55.42 L38.67,55.23 C38.6033333,54.9433333 38.54,54.66 38.48,54.38 L38.43,54.13 C38.2833333,53.4633333 38.1533333,52.7733333 38.04,52.06 L38.04,51.82 C37.9933333,51.5266667 37.9466667,51.23 37.9,50.93 L37.9,50.76 C37.8466667,50.4066667 37.7966667,50.0533333 37.75,49.7 L37.75,49.52 C37.75,49.22 37.67,48.95 37.64,48.65 C37.64,48.6 37.64,48.58 37.64,48.53 C35.4,48.41 33.18,48.29 31.04,48.25 L13.1,49.73 L21.1,65.61 L22.65,68.18 Z" id="Shape"/><path d="M78.45,88.64 C78.8207154,88.602884 79.1883137,88.5393897 79.55,88.45 L79.55,88.38 L79.55,88.45 C79.55,88.45 79.98,88.45 80.1,88.45 L80.3,88.45 L80.55,88.45 L80.55,88.24 C77.55,81.24 70.94,75.35 60.12,73.35 L59.96,73.35 C57.74,73.35 55.16,72.55 52.58,72.35 C53.9480631,74.3821846 55.4514664,76.3199045 57.08,78.15 L57.26,78.15 L57.09,78.15 C64.04,85.88 71.41,88.97 78.54,88.58" id="Shape"/><path d="M48,44.03 C46.18,43.71 44.36,43.45 42.52,43.27 C42.64,45.12 43.04,47.11 43.28,48.81 C44.0335973,55.1559327 46.0753182,61.2810955 49.28,66.81 C50.47,66.81 51.6,66.89 52.77,66.97 L53.03,66.97 L54.17,67.06 L55.63,67.17 L55.69,67.17 L55.41,66.71 L55.69,67.17 C60.6092101,67.665811 65.4206499,68.9277174 69.95,70.91 L69.89,70.78 L69.74,70.44 L69.59,70.09 L69.44,69.72 L69.3,69.38 L69.13,68.96 L69.01,68.65 L68.74,67.91 L68.66,67.67 L68.47,67.13 L68.36,66.81 L68.21,66.34 L68.1,65.99 L67.96,65.53 L67.85,65.15 L67.72,64.69 L67.61,64.29 L67.49,63.83 L67.39,63.42 L67.28,62.96 L67.18,62.54 L67.08,62.07 L66.99,61.63 L66.9,61.16 L66.81,60.7 L66.73,60.24 C66.6633333,59.8466667 66.5966667,59.45 66.53,59.05 L66.53,58.83 C66.53,58.63 66.47,58.43 66.44,58.23 L66.39,57.85 C66.39,57.65 66.34,57.44 66.31,57.24 L66.31,56.85 L66.31,56.67 C66.3040228,56.6327087 66.2821238,56.5998602 66.25,56.58 L66.11,56.5 L65.55,56.38 L65.88,56.53 L65.77,56.46 L65.55,56.38 C65.47,56.33 65.42,56.28 65.34,56.22 L65.59,56.38 L65.82,56.52 C65.9175873,56.5636115 66.0084933,56.6208486 66.09,56.69 L66.19,56.75 L65.81,54.14 L65.62,54.14 C65.62,52.85 65.62,51.59 65.62,50.32 C60.0606242,47.2730821 54.0307644,45.177503 47.78,44.12 C47.78,44.12 48.02,44.12 48.02,44.12 L48,44.03 Z M48.67,49.72 L49.04,49.8 L48.67,49.72 Z M49.44,49.9 L49.68,49.9 L49.44,49.9 L49.05,49.84 L48.8,49.84 L49.44,49.9 Z M49.25,52.68 C49.3833333,53.2466667 49.53,53.81 49.69,54.37 C49.5166667,53.71 49.3633333,53.11 49.23,52.57 L49.25,52.68 Z" id="Shape"/><path d="M17.72,109.38 L20.72,110.95 L21.19,110.38 L21.34,110.2 C21.7,109.766667 22.06,109.343333 22.42,108.93 L22.52,108.81 L23.52,107.71 L23.72,107.49 C24.09,107.09 24.45,106.7 24.83,106.32 L25.89,105.26 L26.13,105.03 C26.8833333,104.303333 27.65,103.596667 28.43,102.91 L28.68,102.7 L29.82,101.7 L31.06,100.7 L31.29,100.52 L32.45,99.65 L32.56,99.57 L33.88,98.64 L34.05,98.52 L34.5,98.21 L34.25,98.07 L34.42,97.98 L33.55,97.39 L33.43,97.3 C32.71,96.8066667 32.0233333,96.3133333 31.37,95.82 L31.26,95.74 L30.36,95.04 L30.29,94.99 L29.34,94.22 L28.49,93.5 L28.37,93.39 C27.7966667,92.89 27.2433333,92.3833333 26.71,91.87 L26.6,91.76 L25.88,91.05 L25.81,90.98 L25.03,90.18 L24.34,89.43 L24.23,89.31 C23.7433333,88.77 23.2666667,88.2166667 22.8,87.65 L22.72,87.55 L22.04,86.71 C21.56,86.1033333 21.0866667,85.4833333 20.62,84.85 C18.62,85.85 16.62,86.93 14.8,87.96 L1.13686838e-13,98.21 L14.83,107.98 L17.72,109.38 Z" id="Shape"/><path d="M45.71,92 C48.2489404,90.918088 50.8707103,90.0419353 53.55,89.38 C55.6542546,88.7467693 57.803856,88.2753948 59.98,87.97 C55.9333734,85.0899882 52.4405713,81.5023282 49.67,77.38 L49.67,77.55 M49.67,77.55 L49.67,77.38 C49.67,77.38 49.67,77.51 49.67,77.5 L49.56,77.58 L48.08,75.44 C47.35,74.36 46.67,73.32 46.02,72.25 C39.7107684,72.3740529 33.4672086,73.5571855 27.55,75.75 C25.81,76.39 24.1,77.1 22.41,77.86 C23.5,79.49 24.55,80.98 25.62,82.39 C29.4802156,87.5070144 34.3424151,91.7839807 39.91,94.96 L43.06,93.2 C43.94,92.77 44.82,92.29 45.69,91.92" id="Shape"/><path d="M43.03,129.28 L42.87,129.28 L41.93,129.22 L41.55,129.22 L40.55,129.13 L40.4,129.13 L39.26,129 L38.92,129 L38.07,128.89 L37.76,128.89 L36.69,128.72 L36.41,128.67 L35.55,128.38 L35.19,128.31 L34.34,128.13 L34.07,128.07 L33.18,127.86 L32.8,127.76 L32.15,127.59 L31.78,127.49 L30.88,127.23 L30.49,127.11 L29.9,126.93 L29.47,126.79 L28.84,126.58 L28.28,126.38 L27.66,126.16 L27.22,125.99 L26.68,125.78 L26.26,125.62 L25.41,125.27 L25.01,125.1 L24.43,124.85 L24.2,124.75 C22.98,126.63 21.82,128.52 20.72,130.36 L13.03,146.63 L30.76,147.68 L34.06,147.54 L37.42,147.4 L37.51,146.83 L37.55,146.38 C37.6366667,145.873333 37.73,145.37 37.83,144.87 L37.9,144.53 C37.9866667,144.11 38.0733333,143.693333 38.16,143.28 L38.25,142.88 C38.36,142.38 38.48,141.88 38.61,141.38 L38.61,141.22 C38.7233333,140.766667 38.8433333,140.316667 38.97,139.87 L39.07,139.5 C39.3566667,138.506667 39.6633333,137.526667 39.99,136.56 L40.11,136.21 C40.2633333,135.77 40.4233333,135.33 40.59,134.89 L40.59,134.76 C40.77,134.286667 40.9566667,133.813333 41.15,133.34 L41.29,132.99 C41.4566667,132.596667 41.6266667,132.2 41.8,131.8 L41.91,131.54 C42.1166667,131.08 42.3266667,130.623333 42.54,130.17 L42.71,129.82 L42.88,129.47" id="Shape"/><path d="M25.71,113.5 C24.52,114.92 23.4,116.39 22.32,117.89 C24.07,118.75 25.73,119.52 27.32,120.2 C33.230921,122.704428 39.5905157,123.977028 46.01,123.94 C46.67,122.85 47.36,121.78 48.07,120.73 L48.15,120.61 L49.55,118.55 L49.62,118.55 L46.05,118.55 L45.14,118.55 L46.05,118.55 L48.94,118.55 L49.71,118.55 L49.85,118.36 L50.23,117.86 L50.47,117.55 L50.83,117.09 L51.06,116.8 L51.6,116.14 L51.83,115.86 L52.17,115.45 L52.44,115.14 L52.76,114.78 L53.02,114.48 L53.41,114.05 L53.76,113.67 L54.13,113.28 L54.4,113 L54.71,112.68 L54.98,112.41 L55.32,112.08 L55.58,111.83 L56.09,111.35 L56.35,111.11 L56.66,110.83 L56.94,110.58 L57.25,110.31 L57.52,110.08 L58.04,109.65 L58.32,109.42 L58.61,109.19 L58.92,108.95 L59.17,108.75 L59.49,108.51 L59.69,108.36 L60.01,108.12 C56.5334473,107.741562 53.1133606,106.956184 49.82,105.78 C48.4866667,105.333333 47.1533333,104.823333 45.82,104.25 L45.24,104.56 L45.81,104.25 L45.75,104.25 L45.34,104.05 C44.6,103.73 43.85,103.39 43.1,103.05 L42.1,102.52 C41.37,102.15 40.65,101.77 39.93,101.38 C34.548138,104.599931 29.741991,108.696309 25.71,113.5 Z M30.93,115.78 L31.44,115.22 L30.94,115.78 L31.08,115.83 L30.94,115.78 L30.93,115.78 Z" id="Shape"/><path d="M52.88,101.38 C62.51,104.38 70.71,103.19 76.66,99.18 C77.08,98.9 77.41,98.5 77.81,98.18 C77.41,97.87 76.92,97.48 76.51,97.18 C70.51,93.18 62.51,92.06 52.51,95.18 C52.51,95.18 52.51,95.18 52.51,95.18 C52.51,95.18 52.51,95.18 52.51,95.18 C50.1651129,95.9899788 47.8651692,96.9246439 45.62,97.98" id="Shape"/><path d="M69.72,169.64 C69.54,169.16 69.3666667,168.68 69.2,168.2 L69.09,167.87 C68.9566667,167.47 68.8233333,167.066667 68.69,166.66 L68.56,166.26 C68.4066667,165.766667 68.26,165.276667 68.12,164.79 L68.07,164.6 C67.95,164.16 67.8333333,163.72 67.72,163.28 L67.62,162.89 C67.5,162.39 67.38,161.89 67.26,161.4 C67.15,160.91 67.05,160.4 66.95,159.92 L66.87,159.53 C66.7833333,159.083333 66.7033333,158.633333 66.63,158.18 L66.63,158.02 C66.55,157.52 66.4766667,157.02 66.41,156.52 L66.36,156.14 C66.3066667,155.713333 66.2533333,155.283333 66.2,154.85 L66.2,154.59 C66.1466667,154.083333 66.1,153.573333 66.06,153.06 L66.06,152.73 C66.06,152.54 66.06,152.36 66.06,152.17 L65.85,152.29 L65.85,152.24 L65.61,152.33 L65.43,152.42 L65.08,152.63 L65.41,152.43 L64.86,152.7 L64.73,152.76 C63.95,153.133333 63.1833333,153.466667 62.43,153.76 L62.27,153.83 L61.27,154.24 L61.14,154.29 L60.03,154.71 L59.95,154.71 L58.95,155.06 L58.76,155.13 C58.0466667,155.37 57.34,155.593333 56.64,155.8 L56.46,155.85 L55.52,156.11 L55.4,156.11 L54.33,156.38 L54.24,156.38 L53.24,156.6 L53.05,156.6 C52.3833333,156.746667 51.6833333,156.88 50.95,157 L50.73,157 L49.84,157.14 L49.65,157.14 L48.65,157.28 L48.39,157.28 L47.61,157.37 L47.4,157.37 C47.28,159.59 47.23,161.82 47.19,163.97 L48.55,182.16 L64.43,174.16 L67.17,172.42 L70.05,170.59 L69.85,170.05 L69.72,169.64 Z" id="Shape"/><path d="M42.99,147.08 C42.72,148.68 42.52,150.14 42.35,151.64 L42.28,152.3 L42.28,152.56 L44.71,152.38 L44.83,152.38 L45.63,152.31 L46.58,152.21 L46.92,152.21 L47.47,152.13 L47.8,152.13 M47.8,152.13 C48.56,152.05 49.12,151.95 49.74,151.85 C55.2205828,150.916817 60.4984093,149.042511 65.34,146.31 C65.51,146.22 65.55,146.14 65.71,146.05 L65.55,146.05 L65.68,146.44 C65.68,145.44 65.59,145.76 65.59,145.62 C65.59,144.62 65.59,143.62 65.65,142.68 C65.65,142.54 65.59,142.4 65.59,142.26 C65.59,142.21 65.83,142.16 65.83,142.1 L66.12,139.63 L66.23,139.57 C66.2266973,139.540091 66.2266973,139.509909 66.23,139.48 C66.18,139.48 66.13,139.57 66.08,139.61 L66.24,139.53 L66.24,139.38 C66.24,139.11 66.31,138.85 66.34,138.58 L66.34,138.35 C66.34,138.05 66.42,137.75 66.47,137.45 L66.47,137.34 C66.5233333,137 66.5766667,136.666667 66.63,136.34 L66.63,136.28 C66.6833333,135.986667 66.7366667,135.693333 66.79,135.4 L66.86,135.07 L66.98,134.49 L67.07,134.09 L67.18,133.6 L67.28,133.16 L67.38,132.72 L67.49,132.26 L67.59,131.88 L67.72,131.4 L67.81,131.07 L67.96,130.55 L68.03,130.31 L68.21,129.73 L68.21,129.63 C68.6865325,128.124927 69.2508326,126.649065 69.9,125.21 L69.3,125.48 L69.17,125.54 L68.56,125.79 L68.43,125.84 L67.76,126.1 L67.68,126.1 L66.9,126.39 L66.15,126.65 L65.87,126.74 L65.36,126.91 L65.02,127.02 L64.55,127.16 L64.17,127.27 L63.71,127.4 L63.32,127.51 L62.85,127.63 L62.45,127.73 L61.96,127.85 L61.57,127.94 L61.03,128.06 L60.67,128.14 L60.03,128.27 L59.75,128.33 C58.79,128.51 57.79,128.67 56.75,128.81 L56.64,128.81 L55.71,128.93 C55.71,128.93 55.71,129.14 55.71,129.14 C55.71,129.14 55.71,129.38 55.71,129.38 C55.59,129.38 55.47,129.57 55.35,129.77 C55.44,129.61 55.54,129.4 55.64,129.22 C55.54,129.39 55.45,129.44 55.35,129.6 C55.25,129.76 55.23,129.76 55.16,129.86 C55.22,129.76 55.28,129.86 55.35,129.75 C55.42,129.64 55.58,129.38 55.7,129.38 L55.64,129.38 L55.64,129.21 L55.45,129.12 L53.21,129.25 C53.15,129.25 53.09,129.3 53.03,129.31 C52.97,129.32 53.03,129.38 53.03,129.38 L51.81,129.38 C52.22,129.38 52.62,129.3 53.03,129.3 C51.73,129.3 50.47,129.41 49.21,129.44 C46.1660086,134.950853 44.0701343,140.934236 43.01,147.14" id="Shape"/><path d="M80.36,107.63 L80.36,107.38 C80.36,107.38 80.36,107.51 80.43,107.46 C80.5,107.41 80.34,107.57 80.3,107.56 C79.77,107.49 79.23,107.5 78.7,107.47 C71.57,107.08 64.11,110.2 57.16,117.94 L57.32,117.94 L57.14,117.94 C55.5151587,119.763589 54.0150917,121.694633 52.65,123.72 C55.086412,123.550153 57.5085829,123.21606 59.9,122.72 L61.03,121.35 C60.69,121.8 60.35,122.13 60.03,122.58 C70.86,120.3 77.41,114.69 80.36,107.63 Z" id="Shape"/><path d="M146.42,157.71 C146.18,157.71 146.07,157.65 145.89,157.62 L146.1,157.62 L146.01,157.62 L145.91,157.62 L145.4,157.53 L143.93,157.26 L143.52,157.18 L142.36,156.94 L141.89,156.84 L140.44,156.49 L140.16,156.42 L138.94,156.09 L138.5,155.96 L137.13,155.55 L136.96,155.5 L135.63,155.06 L135.2,154.91 L134.02,154.48 L133.76,154.39 L132.4,153.85 L131.97,153.67 L130.91,153.21 L130.55,153.05 L129.23,152.44 L128.79,152.23 L128.31,152 L128.31,152.13 C128.31,152.503333 128.286667,152.873333 128.24,153.24 L128.24,153.52 C128.173333,154.353333 128.093333,155.16 128,155.94 L128,156.19 C127.96,156.523333 127.916667,156.856667 127.87,157.19 L127.87,157.39 C127.816667,157.77 127.756667,158.146667 127.69,158.52 L127.69,158.68 C127.64,159 127.58,159.31 127.52,159.62 L127.47,159.89 C127.403333,160.236667 127.333333,160.57 127.26,160.89 C127.18,161.236667 127.1,161.57 127.02,161.89 L126.95,162.18 L126.75,162.97 L126.68,163.23 C126.593333,163.556667 126.5,163.89 126.4,164.23 L126.32,164.5 L126.09,165.22 L125.98,165.56 L125.71,166.36 L125.61,166.64 L125.32,167.44 L125.18,167.82 L124.94,168.44 L124.8,168.8 L124.45,169.67 L124.29,170.06 L124.04,170.64 L123.94,170.87 C125.82,172.09 127.71,173.25 129.55,174.35 L145.82,182.04 L146.7,164.38 L146.56,161.08 C146.513333,159.906667 146.466667,158.783333 146.42,157.71 Z" id="Shape"/><path d="M171.55,127.99 L169.68,125.04 L169.11,125.25 L168.7,125.4 L167.24,125.92 L166.91,126.03 L165.71,126.43 L165.3,126.56 L163.84,127 L163.62,127.06 L162.34,127.4 L161.93,127.51 L160.47,127.86 L160.39,127.86 L158.97,128.16 L158.54,128.24 L157.27,128.47 L157.03,128.47 L155.58,128.69 L155.12,128.75 L153.97,128.89 L153.58,128.89 L152.14,129.03 L151.63,129.03 L151.28,129.03 C151.28,129.03 151.19,129.03 151.15,129.03 L151.28,129.3 L151.61,129.98 L151.83,130.43 L152.2,131.22 L152.34,131.54 L152.77,132.54 L152.92,132.9 L153.23,133.65 L153.36,133.96 C153.493333,134.3 153.623333,134.633333 153.75,134.96 L153.84,135.2 L154.13,136.02 L154.23,136.32 C154.343333,136.646667 154.45,136.98 154.55,137.32 C154.66,137.66 154.76,138 154.86,138.32 L154.93,138.58 L155.16,139.42 L155.21,139.62 C155.296667,139.96 155.38,140.293333 155.46,140.62 L155.46,140.79 C155.526667,141.076667 155.59,141.363333 155.65,141.65 L155.7,141.9 C155.84,142.566667 155.97,143.25 156.09,143.95 L156.09,144.23 C156.136667,144.503333 156.18,144.776667 156.22,145.05 L156.22,145.29 C156.22,145.62 156.32,145.96 156.36,146.29 C156.36,146.39 156.36,146.5 156.36,146.6 C156.398656,146.84162 156.422036,147.085437 156.43,147.33 C156.43,147.4 156.43,147.47 156.48,147.54 C158.72,147.66 160.94,147.71 163.08,147.75 L181.08,146.27 L173.13,130.39 L171.55,127.99 Z" id="Shape"/><path d="M141.44,134.22 L141.3,133.93 L140.83,133.03 L140.7,132.79 L140.29,132.04 L140.13,131.75 L139.57,130.75 C139.38,130.41 139.18,130.09 138.98,129.75 L138.81,129.5 C138.76,129.41 138.71,129.3 138.65,129.2 L138.52,128.99 L138.47,128.99 C138.577454,129.112419 138.659085,129.255273 138.71,129.41 C138.659599,129.255045 138.577911,129.112092 138.47,128.99 L138.23,128.99 L138.09,128.99 L137.25,128.88 L137.19,128.88 C136.343333,128.766667 135.52,128.636667 134.72,128.49 L134.46,128.49 L133.93,128.39 L133.53,128.31 L133.05,128.21 L132.62,128.12 L132.17,128.02 L131.73,127.91 L131.3,127.8 L130.86,127.69 L130.45,127.58 L130.01,127.46 L129.61,127.35 L129.18,127.22 L128.8,127.1 L128.38,126.96 L128.01,126.84 L127.59,126.69 L126.91,126.45 L126.52,126.31 L126.1,126.15 L125.79,126.03 L125.37,125.86 L125.08,125.74 L124.66,125.56 L124.39,125.44 L124.23,125.37 L124.29,125.51 L124.44,125.85 L124.59,126.2 L124.75,126.58 L124.89,126.92 L125.06,127.35 L125.18,127.65 L125.45,128.39 L125.54,128.64 L125.72,129.17 L125.83,129.5 L125.98,129.96 L126.09,130.32 L126.23,130.78 L126.34,131.16 L126.47,131.62 L126.58,132.01 L126.7,132.47 L126.8,132.87 L126.91,133.35 L127,133.76 L127.11,134.26 L127.2,134.67 L127.31,135.21 L127.39,135.6 C127.39,135.82 127.47,136.05 127.51,136.27 L127.51,136.54 C127.563333,136.853333 127.613333,137.186667 127.66,137.54 L127.66,137.87 C127.66,138.09 127.72,138.31 127.75,138.54 L127.75,138.93 L127.83,139.56 L127.83,139.68 C128.11,139.68 128.28,139.96 128.5,140.1 C128.28,139.96 128.1,139.83 127.83,139.69 C128.11,139.83 128.24,139.97 128.46,140.1 C128.53,140.1 128.56,140.19 128.63,140.23 L128.42,140.1 L127.78,139.71 L128.14,142.31 L128.32,142.31 C128.32,143.61 128.32,143.57 128.19,146.57 L128.19,146.35 C129.09,146.85 130.19,147.19 131.1,147.62 C136.006759,149.859338 141.20999,151.381578 146.55,152.14 C146.55,152.14 146.36,152.25 146.36,152.24 L146.27,152.39 C146.38,152.39 146.47,152.31 146.58,152.34 C146.69,152.37 146.83,152.34 146.96,152.34 C147.56,152.43 148.16,152.47 148.77,152.55 L147.89,152.44 L148.83,152.57 L151.04,152.84 L151.68,152.91 C151.68,152.6 151.68,152.3 151.62,152 C151.56,151.7 151.56,151.22 151.53,150.83 C151.43,149.68 151.53,148.56 151.39,147.48 C151.39,147.48 151.61,147.48 151.61,147.43" id="Shape"/><path d="M151.31,147.38 C151.31,147.31 151.18,147.25 151.18,147.18 C151.07,146.29 150.9,145.58 150.76,144.82 C150.76,144.74 150.7,144.65 150.69,144.57 C149.674104,139.24259 147.752979,134.128611 145.01,129.45 C143.75,129.45 142.47,129.4 141.17,129.4 C141.17,129.4 141.17,129.27 141.17,129.27 L138.6,129.27 C138.6,129.27 138.6,129.44 138.53,129.44 L138.55,129.44 L138.55,128.98 L138.61,129.09 C138.657598,129.155376 138.697841,129.225802 138.73,129.3 L138.89,129.56 L139.06,129.84 L139.65,130.84 L140.21,131.84 L140.37,132.13 L140.78,132.88 L140.91,133.12 L141.38,134.02 L141.52,134.31" id="Shape"/><polyline id="Shape" points="145.35 146.58 145.35 146.46 145.35 146.46 145.35 146.46 145.35 146.46"/><path d="M172.15,109.58 L172.73,110.33 L172.96,110.64 L173.37,111.18 L173.51,111.36 C175.51,110.36 177.51,109.28 179.33,108.25 L194.13,98 L179.3,88.23 L176.41,86.72 L173.41,85.14 L172.89,85.78 L172.83,85.86 C172.456667,86.3133333 172.08,86.7566667 171.7,87.19 C171.346667,87.5966667 170.986667,87.9966667 170.62,88.39 L170.47,88.55 C169.73,89.3566667 168.976667,90.1333333 168.21,90.88 L168.01,91.07 C167.25,91.81 166.473333,92.5266667 165.68,93.22 L165.46,93.41 L164.27,94.41 L163.02,95.41 L162.81,95.57 L161.62,96.46 L161.54,96.52 L160.21,97.46 L160.05,97.57 L159.5,97.95 L159.57,97.95 L159.52,97.95 L159.58,97.95 L160.47,98.54 L160.75,98.73 L161.62,99.34 L161.74,99.43 L162.66,100.1 L162.96,100.33 L163.6,100.82 L163.88,101.04 L164.69,101.7 L164.96,101.92 L165.53,102.4 L165.84,102.67 L166.43,103.2 L166.72,103.46 L167.34,104.04 L167.64,104.33 L168.1,104.79 L168.38,105.07 L169.03,105.74 L169.3,106.03 L169.73,106.5 L170.02,106.82 L170.5,107.36 L170.81,107.72 L171.29,108.29 L171.56,108.62 L171.96,109.12 L172.15,109.58 Z" id="Shape"/><polygon id="Shape" points="148.08 123.75 148.08 123.75 148.08 123.75 147.99 123.63 147.83 123.41"/><path d="M149.35,123.5 L149.35,123.38 L149.35,123.5 Z M152.06,123.6 L152.88,123.54 L153.07,123.54 L153.49,123.54 L154.18,123.46 L154.64,123.4 L155.29,123.31 L155.73,123.25 L156.5,123.12 L156.81,123.07 L157.81,122.88 L158.21,122.8 L158.85,122.67 L159.3,122.57 L159.89,122.44 L160.34,122.33 L160.94,122.18 L161.35,122.07 L162.29,121.81 L162.7,121.69 L163.27,121.52 L163.75,121.37 L164.24,121.21 L164.73,121.05 L165.2,120.89 L165.69,120.72 L166.15,120.55 L166.55,120.38 L166.31,120.04 L166.56,120.38 C168.3,119.74 170,119.04 171.68,118.28 L171.68,118.1 C170.54571,116.588913 169.500599,115.012899 168.55,113.38 C166.863328,114.288903 165.0957,115.038805 163.27,115.62 L163.27,115.72 C163.27,115.72 163.27,115.79 163.27,115.8 L162.35,116.11 L163.26,115.81 L162.66,115.09 L163.26,115.81 C164.99,115.23 166.75,114.55 168.56,113.76 C164.694353,108.637877 159.825247,104.357419 154.25,101.18 C153.15,101.79 152.02,102.37 150.85,102.94 L148.48,104.09 L148.36,104.03 C148.36,104.03 148.36,104.2 148.3,104.21 C148.24,104.22 148.3,104.4 148.35,104.4 C148.549746,104.400091 148.746084,104.451758 148.92,104.55 C148.73,104.45 148.54,104.26 148.35,104.16 C143.859352,106.165143 139.086796,107.467056 134.2,108.02 L134.76,108.42 L134.94,108.55 L135.35,108.86 L135.55,109.01 L135.99,109.37 L136.13,109.48 L136.72,109.97 L136.83,110.07 L137.31,110.49 L137.48,110.64 L137.94,111.05 L138.08,111.18 L138.68,111.75 L139.25,112.31 L139.4,112.46 L139.86,112.93 L140.01,113.08 C140.41,113.5 140.81,113.933333 141.21,114.38 L141.33,114.52 L141.81,115.07 L141.95,115.24 L142.49,115.88 L142.54,115.94 L143.16,116.7 L143.22,116.78 L143.76,117.47 L143.88,117.62 L144.42,118.34 L144.42,118.39 L145.12,118.39 C144.9,118.39 144.48,118.39 144.48,118.39 L144.48,118.38 L145.93,120.52 L146.28,121.04 L145.94,120.46 L146.02,120.58 L145.93,120.44 C146.12,120.72 146.31,121.02 146.5,121.32 C146.92,121.96 147.33,122.6 147.73,123.24 L147.9,123.47 L147.99,123.59 L152.06,123.6 Z M149.3,123.59 C149.71,123.59 150.11,123.42 150.51,123.39 L149.3,123.59 Z M150.26,123.63 L149.31,123.63 C149.31,123.63 149.31,123.63 149.31,123.63 C149.72,123.63 150.12,123.63 150.52,123.63 C150.55,123.71 150.47,123.75 150.38,123.75 L150.26,123.63 Z M150.1,105.01 L151.1,105.59 L150.1,105.01 Z M151.53,123.56 L151.34,123.56 L151.63,123.56 L151.81,123.56 L151.53,123.56 Z M156.67,117.39 C157.543333,117.216667 158.416667,117.02 159.29,116.8 C158.496667,117.106667 157.663333,117.343333 156.79,117.51 L156.67,117.39 Z M161.24,113.56 C161.653333,114.006667 162.056667,114.46 162.45,114.92 C162.136667,114.56 161.776667,114.146667 161.37,113.68 L161.24,113.56 Z" id="Shape"/><path d="M141.55,123.71 C140.187635,121.688461 138.690928,119.760783 137.07,117.94 L136.58,117.94 L137.07,117.94 C130.6,110.73 123.69,107.55 117.01,107.46 C116.563333,107.46 116.12,107.46 115.68,107.46 L115.55,107.46 C114.95,107.46 114.35,107.55 113.75,107.63 C114.145921,108.598529 114.610434,109.53758 115.14,110.44 C118.53,116.21 124.74,120.64 134.22,122.66 L133.7,121.95 L134.33,122.68 C136.710875,123.18469 139.122977,123.528798 141.55,123.71 Z" id="Shape"/><path d="M151.3,66.28 L151.11,66.67 L151.22,66.67 L151.11,66.86 L152.21,66.93 L152.5,66.93 C153.326667,66.9966667 154.13,67.0766667 154.91,67.17 L155.17,67.17 L156.17,67.3 L156.38,67.3 L157.51,67.48 L157.68,67.48 L158.62,67.65 L158.88,67.7 L159.93,67.92 L160.93,68.17 L161.19,68.24 L162.02,68.46 L162.24,68.52 L163.24,68.81 L163.45,68.88 L164.24,69.13 L164.52,69.22 L165.45,69.53 L166.45,69.88 L166.74,69.99 L167.48,70.28 L167.73,70.38 L168.67,70.76 L168.94,70.87 L169.65,71.17 L169.83,71.25 C171.05,69.37 172.21,67.48 173.31,65.64 L181,49.37 L163.37,48.38 L160.27,48.51 L156.71,48.66 L156.61,49.23 L156.53,49.69 C156.443333,50.1966667 156.353333,50.7 156.26,51.2 L156.19,51.56 C156.11,51.9666667 156.023333,52.3733333 155.93,52.78 L155.83,53.21 C155.716667,53.71 155.6,54.2033333 155.48,54.69 L155.42,54.91 C155.306667,55.3433333 155.19,55.7733333 155.07,56.2 L154.96,56.6 C154.82,57.09 154.68,57.6 154.52,58.06 C154.37,58.54 154.21,59.06 154.04,59.51 L153.91,59.88 C153.756667,60.32 153.6,60.7566667 153.44,61.19 L153.39,61.33 C153.21,61.8033333 153.023333,62.2766667 152.83,62.75 L152.69,63.09 C152.523333,63.4966667 152.35,63.9033333 152.17,64.31 L152.07,64.53 C151.863333,65.0033333 151.646667,65.4733333 151.42,65.94 L151.3,66.28 Z" id="Shape"/><path d="M150.55,77.72 L150.3,77.72 L149.3,77.72 L149.08,77.72 L148.18,77.72 L145.55,77.72 L144.71,77.72 L144.48,77.72 L144.4,77.83 L143.92,78.47 L143.76,78.67 L143.28,79.29 L143.16,79.44 L142.56,80.18 L142.47,80.29 L141.97,80.88 L141.8,81.08 L141.36,81.58 L141.19,81.77 L140.55,82.38 L139.99,82.98 L139.81,83.17 L139.39,83.59 L139.2,83.78 L138.73,84.25 L138.62,84.36 L138.04,84.9 L137.86,85.07 L137.45,85.44 L137.24,85.63 L136.84,85.98 L136.66,86.14 L136.1,86.61 L135.92,86.75 L135.52,87.07 L135.28,87.26 L134.93,87.53 L134.69,87.71 L134.28,88.01 L134.13,88.12 C137.941136,88.5362816 141.684233,89.4334152 145.27,90.79 L145.32,90.79 L146.55,91.26 L146.95,91.42 L147.65,91.71 L148.27,91.97 C148.91,91.63 149.54,91.47 150.16,91.11 C149.54,91.47 148.91,91.35 148.27,92.35 C148.27,92.35 148.27,92.17 148.33,92.18 L148.39,92.05 L150.39,92.98 L150.74,93.12 L150.81,93.12 C151.95,93.67 153.05,94.23 154.14,94.83 C159.539945,91.5698999 164.353642,87.4255229 168.38,82.57 C169.57,81.15 170.69,79.68 171.77,78.18 C170.02,77.32 168.36,76.54 166.77,75.86 C160.858913,73.3561097 154.49943,72.0835327 148.08,72.12 C147.42,73.2 146.74,74.27 146.08,75.32 L145.92,75.55 L144.55,77.59 C144.606488,77.5963577 144.663512,77.5963577 144.72,77.59 L148.1,77.59 L149,77.59 L149.22,77.59 L150.22,77.59 L150.55,77.59 L151.36,77.64 L151.63,77.64 L151.36,77.64 L150.55,77.72 Z M163.09,80.3 L163.24,80.36 L162.84,80.81 L163.24,80.36 L163.09,80.3 Z" id="Shape"/><path d="M148.41,98.03 C146.214596,96.9614991 143.949425,96.042735 141.63,95.28 L140.74,95.58 L141.52,95.24 C131.93,92.14 124.12,93.06 118.21,96.72 C117.547024,97.1292115 116.906131,97.5731635 116.29,98.05 L116.34,98.05 L116.41,98.05 L116.41,98.11 C116.783333,98.3966667 117.163333,98.67 117.55,98.93 C123.55,102.93 131.55,104.06 141.55,100.83 L140.65,100.45 L141.65,100.79 C143.962644,100.022547 146.221071,99.100467 148.41,98.03 Z" id="Shape"/><path d="M124.38,26.38 C124.58,26.9133333 124.77,27.4433333 124.95,27.97 L124.95,28.08 C125.116667,28.5666667 125.276667,29.0533333 125.43,29.54 L125.51,29.78 C125.836667,30.82 126.13,31.86 126.39,32.9 L126.46,33.16 C126.72,34.1933333 126.953333,35.23 127.16,36.27 L127.21,36.53 C127.41,37.57 127.58,38.6133333 127.72,39.66 L127.72,39.91 C127.78,40.4 127.85,40.91 127.9,41.38 C127.9,41.38 127.9,41.46 127.9,41.5 C127.96,42.03 128.02,42.57 128.06,43.11 C128.06,43.19 128.06,43.26 128.06,43.34 C128.06,43.42 128.15,43.77 128.16,43.98 L129.16,43.49 L129.55,43.38 L130.63,42.88 L131.73,42.4 L131.98,42.29 L132.86,41.93 L133.07,41.84 L134.12,41.43 L134.29,41.37 L135.17,41.06 C135.26,41.06 135.34,40.88 135.43,40.85 C135.77,40.73 136.11,40.39 136.43,40.39 C136.767029,40.3479584 137.101038,40.2844967 137.43,40.2 C137.51,40.2 137.6,40.2 137.68,40.2 C137.96,40.12 138.24,40.07 138.52,40 L138.72,40 L139.72,39.75 L139.9,39.75 L140.76,39.56 L141.01,39.51 C141.676667,39.3633333 142.363333,39.2333333 143.07,39.12 L143.33,39.12 L144.19,38.98 L144.39,38.98 L145.39,38.83 L145.61,38.83 L146.46,38.73 L146.62,38.73 C146.74,36.5 146.79,34.27 146.83,32.13 L145.55,13.97 L129.67,21.97 L127,23.67 L124,25.55 L124.26,26.25 L124.38,26.38 Z" id="Shape"/><path d="M143.99,66.58 L142.72,66.38 L141.55,66.92 L143.99,66.58 Z M145.02,66.39 C148.031059,60.9776892 150.103702,55.0944935 151.15,48.99 C151.15,48.99 151.15,49.2 151.15,49.2 C151.42,47.41 151.71,45.34 151.88,43.53 C149.94,43.66 148.12,43.82 146.38,44.04 L146.69,44.38 L146.37,44.04 L145.97,44.1 L145.85,44.1 L144.99,44.22 L144.93,44.22 L144.83,44.22 L144.4,44.29 L144.34,44.29 L143.25,44.48 L142.63,44.6 L141.48,44.85 L141.18,44.92 L140.35,45.12 L139.99,45.22 L139.19,45.44 L138.85,45.54 L137.92,45.83 L137.72,45.89 C136.92,46.15 136.12,46.44 135.3,46.76 C134.46,47.09 133.61,47.45 132.73,47.84 L132.07,48.15 L131.51,48.42 L131.4,48.42 L131.35,48.42 L131.2,48.42 L130.9,48.57 L130.79,48.67 L130.47,48.8 L130.39,48.8 L129.87,49.05 C129.73,49.13 129.69,49.2 129.55,49.28 C129.22,49.46 128.61,49.66 128.61,49.84 C128.61,50.01 128.48,50.19 128.47,50.36 C128.46,50.53 128.38,51.01 128.37,51.36 C128.37,51.42 128.37,51.48 128.37,51.55 C128.37,51.85 128.37,52.16 128.32,52.46 C128.27,52.76 128.32,52.84 128.32,53.03 C128.32,53.22 128.24,53.26 128.24,53.38 C128.24,53.5 128.29,53.62 128.29,53.72 L128.29,54.42 L128.13,56.2 C128.13,56.02 128.13,55.85 128.13,55.81 L128.13,55.7 C128.2,55.05 128.24,54.4 128.29,53.7 L128.16,53.7 L128.22,53.7 C128.22,54.37 128.14,55.03 128.07,55.7 C128.07,55.8 128.07,56.16 128.07,56.41 L128.07,56.56 L128,57.13 L127.95,57.56 C127.95,57.8 127.88,58.03 127.85,58.27 L127.85,58.55 C127.803333,58.8833333 127.75,59.2166667 127.69,59.55 C127.64,59.86 127.58,60.17 127.52,60.48 L127.52,60.71 L127.38,61.42 L127.32,61.7 L127.18,62.34 L127.11,62.63 L126.96,63.24 L126.89,63.53 L126.74,64.12 L126.67,64.39 L126.51,64.98 L126.44,65.23 L126.26,65.84 L126.19,66.06 L125.98,66.72 L125.98,66.85 C125.713333,67.65 125.43,68.42 125.13,69.16 L125.06,69.32 L124.83,69.87 L124.74,70.08 L124.53,70.56 L124.53,70.65 L124.67,70.59 L125.02,70.43 L125.36,70.28 L125.74,70.12 L126.07,69.98 L126.5,69.81 L126.8,69.69 L127.54,69.42 L127.78,69.34 L128.31,69.16 L128.64,69.05 L129.1,68.9 L129.46,68.79 L129.91,68.65 L130.29,68.54 L130.75,68.41 L131.14,68.31 L131.61,68.19 L132,68.09 L132.49,67.97 L132.88,67.88 L133.41,67.76 L133.78,67.68 L134.39,67.56 L134.7,67.5 L135.6,67.34 L136.6,67.18 L136.71,67.18 L137.61,67.05 L137.82,67.05 L138.65,66.95 L138.72,66.95 L138.72,66.9 L139.35,66.9 L141.35,66.82 L145.02,66.39 Z M128.35,53.98 C128.35,53.92 128.35,53.86 128.35,53.8 L128.35,54.15 L128.35,53.98 Z M128.22,56.43 L128.22,56.35 C128.22,56.35 128.22,56.35 128.22,56.4 L128.22,56.43 Z M131.22,54.65 L131.3,54.65 L131.23,54.65 L131.22,54.65 Z M134.35,53.04 L134.1,53.16 L133.38,53.52 L133.15,53.64 L133.38,53.52 L134.1,53.16 L134.35,53.04 Z M138.6,66.86 C138.73,66.86 138.85,66.46 138.97,66.26 C138.64,66.66 138.55,67.06 138.39,67.06 L138.6,66.86 Z" id="Shape"/><polygon id="Shape" points="140.43 67.04 141.1 67.04 141.1 67.04"/><polygon id="Shape" points="139.73 67.09 140.42 67.09 139.12 67.15"/><polygon id="Shape" points="113.78 88.25 113.77 88.25 113.77 88.27 113.78 88.27 113.77 88.27"/><path d="M113.55,88.27 L113.67,88.27 L113.73,88.27 C114.28,88.35 115.13,88.54 115.73,88.58 L115.5,88.58 C122.64,88.97 130.11,85.98 137.06,78.23 L137.06,78.38 L137.06,78.18 C137.17,78.06 137.28,77.91 137.38,77.78 C138.818821,76.1711598 140.138957,74.4599965 141.33,72.66 L141.4,72.55 L141.5,72.39 C139.452858,72.527374 137.415842,72.787845 135.4,73.17 C135.02,73.25 134.64,73.33 134.27,73.42 L133.71,74.01 C133.86,73.81 133.89,73.62 134.04,73.42 C123.16,75.72 116.55,81.21 113.55,88.27 Z" id="Shape"/><path d="M84.93,22.38 L86.13,23.38 L86.38,23.6 L87.32,24.44 L87.65,24.74 L88.75,25.74 L88.94,25.93 L89.84,26.83 L90.16,27.16 L91.16,28.16 L91.26,28.27 L92.21,29.33 L92.5,29.66 L93.34,30.66 L93.48,30.83 C93.7933333,31.2166667 94.1033333,31.6066667 94.41,32 L94.66,32.32 L95.42,33.32 L95.6,33.56 C95.8933333,33.9666667 96.1833333,34.3766667 96.47,34.79 L96.69,35.11 L97,35.56 L97,35.49 L97,35.54 L97.63,34.6 L97.79,34.37 C98.2633333,33.7033333 98.7366667,33.0366667 99.21,32.37 L99.36,32.17 L99.96,31.39 L100.09,31.23 L100.81,30.34 L100.91,30.22 L101.55,29.47 L101.71,29.29 C102.196667,28.73 102.69,28.19 103.19,27.67 L103.34,27.51 L104,26.85 L104.11,26.74 L104.89,25.99 L104.98,25.9 L105.68,25.25 L105.83,25.11 C106.363333,24.63 106.906667,24.1633333 107.46,23.71 L107.6,23.59 L108.37,22.97 L108.45,22.91 L109.34,22.22 L109.4,22.22 L110.24,21.59 L110.3,21.59 C109.3,19.59 108.22,17.64 107.19,15.77 L96.94,0.97 L87.16,15.8 L85.67,18.64 L84.07,21.71 L84.57,22.12 L84.93,22.38 Z" id="Shape"/><path d="M76.65,50.7 L76.76,50.78 L77.24,51.14 L77.58,51.4 L78.08,51.79 L78.37,52.02 L79.12,52.63 L79.35,52.82 L79.86,53.25 L80.16,53.51 L80.57,53.87 L80.88,54.15 L81.26,54.49 L81.57,54.78 L81.93,55.12 L82.23,55.41 L82.57,55.75 L82.86,56.04 L83.19,56.38 L83.46,56.66 L83.79,57.01 L84.04,57.28 L84.38,57.66 L84.6,57.9 L85.01,58.37 L85.14,58.52 L85.65,59.13 L85.8,59.31 L86.15,59.74 L86.33,59.97 L86.62,60.36 L86.8,60.6 L87.07,60.97 L87.14,61.07 L87.14,60.88 L87.14,60.62 C87.14,60.46 87.14,60.3 87.19,60.14 L87.19,59.87 L87.25,59.38 L87.25,59.12 C87.3366667,58.56 87.4333333,57.99 87.54,57.41 L87.61,57.06 L87.7,56.64 L87.79,56.24 L87.88,55.83 L87.98,55.4 L88.08,55 L88.19,54.56 L88.3,54.16 L88.43,53.7 L88.54,53.31 L88.68,52.83 L88.8,52.44 L88.96,51.93 L89.08,51.56 L89.27,50.99 L89.38,50.67 L89.65,49.91 L89.7,49.77 L90.05,48.85 L90.14,48.62 L90.42,47.92 L90.55,47.6 C90.64,47.39 90.69,47.19 90.78,46.98 C90.78,46.98 90.84,46.78 90.86,46.74 L92,44.39 C92.56,43.22 93.15,42.1 93.75,40.99 C90.4929085,35.5908332 86.3519526,30.7771831 81.5,26.75 C80.08,25.56 78.61,24.44 77.11,23.36 C76.25,25.11 75.48,26.77 74.8,28.36 C72.2958407,34.271004 71.0232524,40.6305427 71.06,47.05 C72.14,47.7 73.2,48.38 74.28,49.11 L76.65,50.7 Z M90.75,46.78 L90.87,46.78 L90.75,46.78 Z" id="Shape"/><polygon id="Shape" points="76.6 50.67 76.64 50.7 76.59 50.67"/><path d="M71.36,53.62 C71.5252013,56.0436437 71.8391258,58.4548511 72.3,60.84 L72.37,60.84 C74.68,71.84 80.37,78.38 87.42,81.33 L87.55,81.33 C87.55,81.33 87.55,81.33 87.55,81.39 C87.55,81.45 87.5,81.3 87.55,81.26 C87.55,80.99 87.55,80.72 87.61,80.45 L87.61,77.91 C87.61,77.74 87.61,77.58 87.61,77.41 C87.5336571,75.8383543 87.2889234,74.2794342 86.88,72.76 C85.56,67.76 82.43,62.83 77.14,58.09 C77.14,58.38 77.19,58.68 77.22,58.97 L77.12,58.07 C75.3014425,56.4598069 73.377141,54.9731503 71.36,53.62 Z M77.83,63.83 L77.69,62.64 C77.71,63.02 77.76,63.38 77.83,63.83 Z" id="Shape"/><path d="M117.36,23.38 C115.74,24.47 114.2,25.51 112.79,26.59 C112.79,26.59 112.79,26.69 112.79,26.74 L112.72,26.59 C107.594839,30.4552488 103.31103,35.3242962 100.13,40.9 C100.74,42 101.31,43.12 101.87,44.28 L101.93,44.42 L103.01,46.65 L103.01,46.71 L103.01,46.77 L103.01,46.83 L103.36,47.66 L103.41,47.78 C103.81,48.7466667 104.17,49.6933333 104.49,50.62 L104.49,50.73 L104.76,51.51 L104.83,51.74 L105.04,52.39 L105.12,52.67 L105.3,53.26 L105.39,53.56 L105.54,54.12 L105.62,54.43 L105.76,54.97 L105.84,55.29 L105.96,55.82 L106.03,56.13 L106.15,56.67 L106.21,56.95 L106.33,57.58 L106.33,57.76 C106.376667,58.0266667 106.423333,58.29 106.47,58.55 L106.47,58.81 L106.55,59.33 L106.55,59.66 L106.61,60.1 L106.61,60.44 L106.61,60.86 L106.61,60.99 L106.71,60.85 L106.9,60.59 L107.16,60.24 L107.37,59.96 L107.62,59.63 L107.87,59.32 L108.11,59.02 L108.56,58.47 L108.79,58.2 L109.14,57.8 L109.38,57.54 L109.7,57.18 L109.96,56.9 L110.28,56.56 L110.56,56.27 L110.89,55.94 L111.18,55.65 L111.51,55.32 L111.82,55.02 L112.16,54.7 L112.49,54.4 L112.84,54.09 L113.18,53.78 L113.53,53.47 L113.89,53.15 L114.23,52.86 L115.23,52.07 L115.39,51.94 L115.85,51.58 L116.17,51.33 L116.63,50.98 L117.04,50.66 C117.04,50.66 117.24,50.77 117.24,50.5 L117.24,50.38 L116.99,50.38 C116.99,50.38 116.99,50.38 116.99,50.38 C116.99,50.38 116.99,50.5 116.99,50.5 C116.99,50.5 117.06,50.33 117.06,50.21 C117.06,50.31 117.06,50.42 117.06,50.52 L119.21,49.07 L119.26,49.07 L119.19,49.07 C119.64,48.76 119.98,48.46 120.45,48.16 C120.92,47.86 122.55,47.38 122.55,47.04 C122.5904,44.8993317 122.493535,42.758275 122.26,40.63 C122.12,39.55 122,38.49 121.8,37.45 C121.205892,34.446252 120.376673,31.4938317 119.32,28.62 L117.36,23.38 Z M117.45,49.84 C117.443509,49.8313452 117.44,49.8208185 117.44,49.81 L117.45,49.84 Z" id="Shape"/><path d="M99.71,53.54 L99.38,54.33 C99.4672108,54.057716 99.5776155,53.793414 99.71,53.54 C98.9580516,51.2122143 98.0595906,48.9343315 97.02,46.72 C95.9518333,48.9155533 95.0330785,51.1807015 94.27,53.5 L94.27,53.56 C91.81,61.09 91.83,67.56 93.71,72.82 C94.1574182,74.078991 94.7197913,75.2941186 95.39,76.45 L95.55,76.67 L96.11,77.61 C96.41,78.05 96.71,78.48 97.04,78.9 C101.78,72.73 103.22,64.26 99.71,53.54 Z" id="Shape"/><path d="M106.66,81.38 L106.8,81.32 C112.47,79 114.89,72.32 116.05,65.48 C114.88,72.29 112.47,79.03 106.81,81.35 C106.93,81.35 107.05,81.23 107.17,81.17 L107.49,81.02 L107.96,80.79 L108.26,80.64 L108.59,80.47 L108.85,80.33 L109.26,80.1 L109.41,80.01 L109.6,79.9 L110.19,79.53 L110.55,79.38 L110.88,79.15 L111.26,78.88 L111.78,78.49 L112.41,77.98 L112.61,77.81 L112.72,77.71 L113.13,77.35 L113.39,77.1 L113.72,76.79 L113.97,76.54 L114.48,76.01 L114.65,75.82 L115.04,75.38 L115.22,75.16 L115.74,74.52 C118.419715,70.956106 120.317682,66.8671276 121.31,62.52 C121.44,62 121.56,61.52 121.66,60.93 L121.56,61 L121.69,60.91 C122.186086,58.5152191 122.520177,56.0897207 122.69,53.65 C120.66796,55.015313 118.740257,56.5153802 116.92,58.14 L116.92,58.36 L116.92,58.14 C108.55,65.6 105.61,73.74 106.66,81.38 Z" id="Shape"/><path d="M109.16,173.71 L108.03,172.71 L107.7,172.42 L106.84,171.65 L106.48,171.32 L105.4,170.32 L105.2,170.12 L104.3,169.22 L103.99,168.9 C103.643333,168.54 103.31,168.176667 102.99,167.81 C102.66,167.45 102.33,167.08 101.99,166.7 L101.73,166.4 L100.84,165.35 L100.74,165.23 C100.42,164.836667 100.086667,164.436667 99.74,164.03 L99.52,163.74 L98.72,162.67 L98.58,162.48 C98.2733333,162.06 97.9733333,161.636667 97.68,161.21 L97.5,160.95 L97.17,160.46 L97.17,160.53 L97.17,160.48 L96.54,161.43 L96.39,161.65 C95.9166667,162.316667 95.4433333,162.983333 94.97,163.65 L94.82,163.85 L94.22,164.63 L94.09,164.79 L93.37,165.68 L93.26,165.81 L92.64,166.54 L92.46,166.74 L91.75,167.54 L91.02,168.32 L90.82,168.52 L90.23,169.12 L90.06,169.29 L89.33,170 L89.15,170.17 L88.57,170.71 L88.33,170.93 L87.66,171.52 L87.51,171.65 L86.81,172.24 L86.52,172.48 L85.98,172.92 L85.7,173.14 L84.94,173.73 L84.62,173.97 L84.11,174.36 L83.91,174.51 C84.91,176.51 85.99,178.51 87.02,180.33 L97.27,195.13 L107.05,180.3 L108.52,177.47 L110.13,174.38 L109.72,174.05 L109.16,173.71 Z" id="Shape"/><path d="M77.21,138.05 C84.78,131.25 87.89,123.96 87.65,116.97 C87.6553425,116.866736 87.6553425,116.763264 87.65,116.66 C87.65,116.66 87.65,116.38 87.65,116.38 C87.65,116.38 87.65,116.86 87.65,116.85 C87.65,116.85 87.65,116.38 87.65,116.38 C87.65,116.38 87.65,115.21 87.65,114.54 L87.65,114.63 C87.65,114.63 87.52,114.71 87.49,114.73 C80.41,117.73 74.9,124.3 72.59,135.25 L72.65,135.25 L72.58,135.31 C72.0841193,137.701448 71.7500284,140.123607 71.58,142.56 C73.6020398,141.194687 75.5297431,139.69462 77.35,138.07" id="Shape"/><path d="M117.55,145.54 L117.55,145.6 L117.55,146.14 C117.55,146.24 117.55,146.34 117.55,146.45 C117.55,146.56 117.55,146.88 117.55,147.09 L117.55,147.38 C117.55,147.45 117.55,147.53 117.55,147.6 C117.55,147.23 117.55,146.86 117.55,146.49 C117.55,146.38 117.55,146.27 117.55,146.16 C117.55,146.05 117.55,146.04 117.55,145.99 C117.55,145.94 117.55,145.65 117.55,145.47 C117.55,145.7 117.55,145.93 117.55,146.16 C117.55,145.92 117.55,145.68 117.55,145.43 L117.37,145.3 L117.18,145.16 L117.37,145.29 C117.42,145.29 117.47,145.39 117.53,145.39 C117.48,145.39 117.42,145.33 117.37,145.29 L117.18,145.15 L117.37,145.3 L117.18,145.16 L116.57,144.7 L116.45,144.61 C115.783333,144.103333 115.153333,143.593333 114.56,143.08 L114.36,142.91 L113.94,142.55 L113.64,142.29 L113.27,141.96 L112.95,141.67 L112.55,141.38 L112.22,141.07 L111.91,140.77 L111.55,140.38 L111.26,140.1 L110.92,139.75 L110.66,139.48 L110.31,139.11 L110.08,138.86 L109.72,138.46 L109.53,138.24 L109.09,137.73 L108.99,137.62 L108.48,137 L108.33,136.81 L107.99,136.39 L107.79,136.13 L107.52,135.78 L107.3,135.49 L107.07,135.18 L106.98,135.06 L106.98,135.19 L106.98,135.63 L106.98,135.96 C106.98,136.11 106.98,136.25 106.92,136.4 L106.92,136.73 L106.85,137.19 L106.85,137.51 C106.85,137.73 106.77,137.96 106.73,138.19 L106.65,138.61 L106.56,139.09 L106.48,139.48 L106.39,139.9 L106.3,140.31 L106.2,140.73 L106.1,141.15 L105.99,141.57 L105.88,142 L105.76,142.42 L105.64,142.85 L105.51,143.28 L105.38,143.72 L105.24,144.16 L105.1,144.6 L104.95,145.05 L104.8,145.5 L104.63,145.97 L104.35,146.72 L104.13,147.29 L103.94,147.77 L103.76,148.22 L103.55,148.72 L103.37,149.16 L103.31,149.31 C103.41,149.49 103.51,149.72 103.6,149.9 C103.5,149.72 103.6,149.4 103.51,149.4 L103.55,149.4 L103.55,149.31 C103.55,149.31 103.33,149.31 103.32,149.37 L103.25,149.44 L102.05,151.81 C101.48,152.98 100.88,154.1 100.27,155.21 C103.541095,160.587566 107.692171,165.377529 112.55,169.38 C113.97,170.57 115.43,171.69 116.94,172.77 C117.8,171.02 118.57,169.36 119.25,167.77 C121.753621,161.85883 123.026187,155.499403 122.99,149.08 C121.9,148.42 120.82,147.73 119.76,147.01 L117.55,145.54 Z M114.78,164.2 L114.27,163.74 L114.78,164.2 L114.78,164.15 L114.78,164.2 Z M117.55,148.76 C117.55,148.88 117.55,148.99 117.55,149.11 C117.55,149.39 117.55,149.66 117.55,149.94 L117.55,150.23 C117.55,150.57 117.55,150.9 117.55,151.23 C117.55,151.34 117.55,151.45 117.55,151.57 C117.55,151.69 117.55,152.04 117.55,152.27 C117.55,152.5 117.55,152.51 117.55,152.62 C117.55,152.5 117.55,152.38 117.55,152.27 C117.55,152.16 117.55,151.81 117.55,151.57 C117.55,151.33 117.55,151.35 117.55,151.23 C117.55,150.903333 117.55,150.57 117.55,150.23 C117.55,150.13 117.55,150.03 117.55,149.94 C117.55,149.666667 117.55,149.39 117.55,149.11 C117.55,148.99 117.55,148.88 117.55,148.76 C117.55,148.39 117.55,148.02 117.55,147.64 C117.55,148.02 117.55,148.38 117.55,148.76 Z" id="Shape"/><path d="M98.92,120.06 C98.3806379,119.091893 97.7688966,118.165924 97.09,117.29 C96.5292495,118.020353 96.0149045,118.785191 95.55,119.58 C92.08,125.47 91.27,133.19 94.36,142.58 L94.56,142.14 L94.36,142.6 C95.1268063,144.91613 96.0488973,147.177926 97.12,149.37 C98.1878893,147.174323 99.1066363,144.909194 99.87,142.59 L99.78,142.38 L99.87,142.58 C102.86,133.45 102.16,125.88 98.92,120.06 Z M96.92,136.45 L97.04,136.13 L96.92,136.45 Z" id="Shape"/><path d="M122.77,142.52 C122.600274,140.083575 122.26618,137.661396 121.77,135.27 L121.72,135.27 C119.41,124.27 113.88,117.72 106.79,114.77 L106.79,114.84 L106.65,114.78 L106.65,114.83 C106.563333,115.496667 106.506667,116.163333 106.48,116.83 C106.21,123.83 109.33,131.19 116.95,138.03 L116.95,137.6 L117.01,138.04 C118.827296,139.660893 120.751646,141.15761 122.77,142.52 Z" id="Shape"/><path d="M81.39,169.5 C86.5131592,165.631438 90.7936871,160.75885 93.97,155.18 C93.36,154.06 92.77,152.92 92.22,151.79 L92.22,151.73 L91.06,149.38 C91.06,149.38 91.28,149.38 91.27,149.38 L91.55,149.38 L91.55,149.3 C90.55,149.47 91.13,149.64 91.03,149.81 C91.12,149.64 91.1,149.47 91.19,149.3 C91.28,149.13 91.1,149.23 91.09,149.2 C90.99,148.98 90.87,148.76 90.78,148.54 C90.69,148.32 90.69,148.35 90.65,148.26 C90.54,148 90.43,147.74 90.33,147.48 L90.27,147.33 C90.15,147.01 90.02,146.7 89.91,146.39 L89.58,145.49 L89.5,145.24 L89.28,144.59 L89.18,144.28 L89,143.7 L88.9,143.37 L88.74,142.83 L88.64,142.49 L88.49,141.96 L88.4,141.63 L88.27,141.1 L88.19,140.78 L88.06,140.24 L87.99,139.94 L87.87,139.36 L87.82,139.12 C87.7666667,138.873333 87.72,138.626667 87.68,138.38 L87.68,138.31 C87.68,138.04 87.58,137.77 87.54,137.5 L87.54,137.36 C87.5066667,137.146667 87.4733333,136.933333 87.44,136.72 L87.44,136.48 L87.37,135.95 L87.37,135.68 L87.32,135.19 L87.32,135.08 L87.23,135.2 L87,135.52 L86.79,135.81 L86.51,136.18 L86.32,136.42 L85.95,136.89 L85.83,137.04 L85.31,137.67 L84.78,138.28 L84.63,138.44 L84.21,138.9 L84.02,139.1 L83.63,139.52 L83.42,139.74 L83.03,140.14 L82.8,140.37 L82.4,140.77 L82.16,141 L81.74,141.4 L81.49,141.63 L81.04,142.04 L80.8,142.25 L80.28,142.71 L80.08,142.88 L79.35,143.5 L78.57,144.14 L78.45,144.24 L77.78,144.77 L77.55,144.94 C77.35,145.09 77.07,145.24 76.87,145.39 L76.71,145.39 L74.63,146.92 C74.63,146.92 74.63,146.97 74.63,147 C73.63,147.71 72.53,148.4 71.45,149.06 C71.5726536,155.262816 72.7215245,161.402517 74.85,167.23 L74.55,167.23 C74.55,167.23 74.61,167.23 74.61,167.23 C74.75,167.53 74.91,168.11 75.04,168.4 C75.43,169.31 75.79,170.21 76.17,171.11 C76.32,171.47 76.48,171.66 76.65,172.02 C76.71,172.15 76.65,172.24 76.65,172.24 L76.55,172.24 L76.55,172.57 L76.84,172.57 C78.46,171.49 79.96,170.45 81.36,169.38" id="Shape"/></g></g></svg>