<svg width="908" height="512" viewBox="0 0 908 512" fill="none" xmlns="http://www.w3.org/2000/svg">
<path fill-rule="evenodd" clip-rule="evenodd" d="M95.4493 101.529L37.9703 118.529C36.2143 119.049 34.5313 117.53 34.9003 115.759L55.4343 17.4197C55.8183 15.5807 58.3603 15.2887 59.1623 16.9917L97.1823 97.7277C97.8993 99.2507 97.0813 101.047 95.4493 101.529ZM105.306 97.5187L61.2843 4.03669V4.03469C60.1803 1.69769 57.8763 0.155691 55.2653 0.0126908C52.5863 -0.143309 50.1863 1.14869 48.8323 3.34769L1.08827 80.6777C-0.390728 83.0877 -0.361728 86.0597 1.17227 88.4407L24.5103 124.593C25.9013 126.751 28.3113 128 30.8163 128C31.5263 128 32.2403 127.9 32.9423 127.692L100.686 107.656C102.761 107.042 104.458 105.574 105.346 103.628C106.231 101.681 106.217 99.4527 105.306 97.5187Z" transform="translate(128.567 128) scale(2)" fill="#0C344B"/>
<path fill-rule="evenodd" clip-rule="evenodd" d="M8.77905 19.484H11.6681C14.3681 19.484 16.3871 18.951 17.7281 17.884C19.0691 16.817 19.7391 15.264 19.7391 13.225C19.7391 11.168 19.1771 9.648 18.0541 8.666C16.9301 7.684 15.1701 7.193 12.7721 7.193H8.77905V19.484ZM28.603 12.914C28.603 17.37 27.211 20.777 24.425 23.137C21.641 25.498 17.681 26.677 12.546 26.677H8.779V41.404H0V0H13.225C18.248 0 22.066 1.081 24.681 3.242C27.296 5.404 28.603 8.628 28.603 12.914Z" transform="translate(407.656 216.692) scale(2)" fill="#0C344B"/>
<path fill-rule="evenodd" clip-rule="evenodd" d="M17.672 0C18.843 0 19.815 0.085 20.589 0.255L19.938 8.354C19.239 8.166 18.39 8.071 17.389 8.071C14.632 8.071 12.485 8.779 10.945 10.195C9.407 11.611 8.638 13.594 8.638 16.143V32.257H0V0.595H6.542L7.817 5.919H8.241C9.223 4.145 10.549 2.714 12.221 1.628C13.891 0.543 15.708 0 17.672 0Z" transform="translate(476.062 234.986) scale(2)" fill="#0C344B"/>
<path fill-rule="evenodd" clip-rule="evenodd" d="M0.366943 44.066H9.00494V12.404H0.366943V44.066ZM0 4.219C0 1.406 1.567 0 4.701 0C7.834 0 9.402 1.406 9.402 4.219C9.402 5.56 9.01 6.603 8.227 7.349C7.443 8.095 6.268 8.467 4.701 8.467C1.567 8.467 0 7.051 0 4.219Z" transform="translate(525.67 211.368) scale(2)" fill="#0C344B"/>
<path fill-rule="evenodd" clip-rule="evenodd" d="M24.016 22.854C24.016 26.102 22.888 28.575 20.631 30.274C18.375 31.973 15 32.823 10.507 32.823C8.203 32.823 6.241 32.667 4.617 32.355C2.993 32.044 1.473 31.586 0.057 30.982V23.845C1.662 24.601 3.469 25.233 5.481 25.743C7.491 26.252 9.261 26.507 10.79 26.507C13.924 26.507 15.492 25.601 15.492 23.789C15.492 23.109 15.284 22.557 14.869 22.132C14.453 21.707 13.736 21.226 12.716 20.687C11.697 20.149 10.337 19.522 8.638 18.804C6.203 17.785 4.413 16.841 3.272 15.972C2.129 15.104 1.298 14.108 0.78 12.984C0.26 11.861 0 10.478 0 8.835C0 6.022 1.09 3.847 3.272 2.308C5.452 0.769 8.543 0 12.546 0C16.36 0 20.07 0.831 23.676 2.492L21.071 8.722C19.485 8.042 18.002 7.486 16.624 7.051C15.246 6.617 13.839 6.4 12.405 6.4C9.856 6.4 8.581 7.089 8.581 8.467C8.581 9.242 8.993 9.912 9.813 10.478C10.635 11.044 12.433 11.885 15.208 12.999C17.682 14 19.495 14.934 20.646 15.802C21.797 16.671 22.647 17.671 23.195 18.804C23.743 19.937 24.016 21.287 24.016 22.854Z" transform="translate(556.469 234.987) scale(2)" fill="#0C344B"/>
<path fill-rule="evenodd" clip-rule="evenodd" d="M28.349 32.257H19.711V13.764C19.711 11.48 19.328 9.766 18.565 8.624C17.799 7.482 16.596 6.91 14.953 6.91C12.745 6.91 11.14 7.722 10.139 9.346C9.138 10.97 8.638 13.641 8.638 17.361V32.257H0V0.595H6.599L7.76 4.645H8.242C9.091 3.191 10.319 2.053 11.923 1.232C13.528 0.411 15.369 0 17.446 0C22.185 0 25.394 1.549 27.075 4.645H27.839C28.689 3.172 29.94 2.03 31.592 1.218C33.244 0.406 35.108 0 37.185 0C40.772 0 43.487 0.921 45.327 2.761C47.168 4.602 48.088 7.552 48.088 11.611V32.257H39.422V13.764C39.422 11.48 39.039 9.766 38.276 8.624C37.51 7.482 36.307 6.91 34.664 6.91C32.55 6.91 30.969 7.666 29.92 9.176C28.873 10.687 28.349 13.084 28.349 16.369V32.257Z" transform="translate(616.241 234.986) scale(2)" fill="#0C344B"/>
<path fill-rule="evenodd" clip-rule="evenodd" d="M19.654 17.644L16.312 17.757C13.801 17.833 11.932 18.286 10.705 19.117C9.47701 19.948 8.86401 21.212 8.86401 22.912C8.86401 25.347 10.261 26.565 13.055 26.565C15.056 26.565 16.657 25.989 17.855 24.837C19.054 23.686 19.654 22.157 19.654 20.249V17.644ZM22.203 32.314L20.532 28.009H20.305C18.851 29.841 17.355 31.11 15.816 31.818C14.278 32.526 12.272 32.88 9.799 32.88C6.758 32.88 4.366 32.012 2.619 30.275C0.873 28.538 0 26.065 0 22.855C0 19.495 1.175 17.017 3.525 15.421C5.877 13.826 9.421 12.943 14.16 12.773L19.654 12.603V11.215C19.654 8.006 18.011 6.401 14.726 6.401C12.196 6.401 9.222 7.165 5.805 8.695L2.945 2.861C6.589 0.954 10.63 0 15.066 0C19.314 0 22.571 0.926 24.837 2.776C27.102 4.626 28.235 7.439 28.235 11.215V32.314H22.203Z" transform="translate(723.381 234.872) scale(2)" fill="#0C344B"/>
</svg>
