<svg width="333px" height="50px" viewBox="0 0 414 62" version="1.1" xmlns="http://www.w3.org/2000/svg" xmlns:xlink="http://www.w3.org/1999/xlink"><title>rangleio</title><desc>Created with Sketch.</desc><defs><polygon id="path-1" points="0.137955808 0.14237037 367.92814 0.14237037 367.92814 61.6555556 0 61.6555556"/><polygon id="path-3" points="0.137955808 0.14237037 367.92814 0.14237037 367.92814 61.6555556 0 61.6555556"/></defs><g id="Landing-Page" stroke="none" stroke-width="1" fill="none" fill-rule="evenodd"><g id="rangleio"><g><path d="M7.5793291,29.0541761 L10.8866727,29.1918736 C20.5330916,29.1918736 26.1831369,25.8871332 26.1831369,18.1760722 C26.1831369,9.91422122 19.8440617,7.71106095 12.8159565,7.71106095 C9.92203083,7.71106095 7.30371714,8.26185102 7.30371714,8.26185102 L7.30371714,28.9164786 L7.5793291,28.9164786 L7.5793291,29.0541761 Z M7.5793291,56.4559819 C7.5793291,57.5575621 7.5793291,58.5214447 7.02810517,59.4853273 C6.61468722,60.4492099 5.23662738,60.8623025 3.72076156,60.8623025 C2.06708976,60.8623025 0.964641886,60.4492099 0.413417951,59.4853273 C0,58.5214447 0,57.5575621 0,56.4559819 L0,6.88487585 C0,4.13092551 0,2.75395034 4.13417951,1.79006772 C5.9256573,1.37697517 8.95738894,0.963882619 12.8159565,0.963882619 C17.225748,0.963882619 22.7379873,1.37697517 26.5965549,3.44243792 C31.9709882,6.19638826 34.8649139,11.0158014 34.8649139,17.4875847 C34.8649139,25.0609481 31.0063463,30.7065463 23.7026292,33.4604966 L39.9637353,55.9051919 C41.3417951,57.8329571 41.0661831,60.4492099 36.9320036,60.4492099 C33.62466,60.4492099 32.6600181,59.0722348 31.1441523,56.8690745 L20.6708976,41.8600451 C17.9147779,37.8668172 16.536718,35.2505643 16.536718,35.2505643 C16.536718,35.2505643 14.6074343,35.8013544 11.7135086,35.8013544 C9.37080689,35.8013544 8.406165,35.5259594 8.406165,35.5259594 L7.71713509,56.5936795 L7.5793291,56.4559819 Z M113.000907,56.4559819 C113.000907,57.5575621 113.000907,58.5214447 112.449683,59.4853273 C111.760653,60.724605 110.382593,60.8623025 109.142339,60.8623025 C107.488667,60.8623025 106.661831,60.4492099 105.834995,59.4853273 C105.421578,58.5214447 105.421578,57.5575621 105.421578,56.4559819 L105.421578,4.13092551 C105.421578,2.06546275 106.661831,0.963882619 109.004533,0.963882619 C111.622847,0.963882619 112.725295,2.34085779 114.516772,4.95711061 L147.728015,46.6794582 L147.728015,5.37020316 C147.728015,4.26862302 147.728015,3.30474041 148.141432,2.34085779 C148.968268,1.10158014 150.346328,0.963882619 151.448776,0.963882619 C153.102448,0.963882619 154.204896,1.37697517 154.75612,2.34085779 C155.307344,3.30474041 155.307344,4.26862302 155.307344,5.37020316 L155.307344,57.6952596 C155.307344,59.7607223 154.06709,60.8623025 152,60.8623025 C149.657298,60.8623025 148.417044,59.7607223 146.487761,56.8690745 L113.000907,14.8713318 L113.000907,56.4559819 Z M218.146872,52.462754 C218.146872,55.2167043 217.457842,56.5936795 212.634633,58.2460497 C208.500453,59.8984199 203.539438,61 198.027199,61 C180.801451,61 166.883046,50.8103837 166.883046,30.4311512 C166.883046,8.67494357 183.006346,0 198.027199,0 C203.81505,0 209.465095,1.10158014 213.874887,3.71783296 C216.631006,5.09480813 217.733454,6.4717833 217.733454,7.84875847 C217.733454,9.63882619 216.4932,11.8419865 214.426111,11.8419865 C212.772439,11.8419865 211.256573,10.4650113 207.949229,8.9503386 C205.468722,7.71106095 201.885766,7.02257336 197.338169,7.02257336 C186.727108,7.02257336 174.875793,13.2189616 174.875793,30.1557562 C174.875793,46.2663657 185.486854,54.1151242 198.027199,54.1151242 C205.19311,54.1151242 210.154125,51.3611738 210.154125,51.3611738 L210.154125,41.03386 C210.154125,39.9322799 210.154125,38.9683973 210.567543,38.0045147 C211.118767,37.0406321 212.496827,36.6275395 213.874887,36.6275395 C215.528558,36.6275395 216.631006,37.0406321 217.18223,38.0045147 C217.733454,38.9683973 217.733454,39.9322799 217.733454,41.03386 L218.146872,52.462754 Z M259.075249,53.1512415 C260.315503,53.1512415 261.142339,53.2889391 261.831369,53.8397291 C262.658205,54.2528217 263.209429,55.2167043 263.209429,56.5936795 C263.209429,57.9706546 262.658205,59.0722348 261.831369,59.4853273 C261.004533,59.8984199 260.039891,60.1738149 259.075249,60.1738149 L234.959202,60.1738149 C232.203083,60.1738149 231.238441,59.0722348 231.238441,56.4559819 L231.238441,5.09480813 C231.238441,3.99322799 231.238441,3.02934537 231.651859,2.06546275 C232.065277,1.10158014 233.581142,0.688487585 234.959202,0.688487585 C236.337262,0.688487585 237.715322,1.10158014 238.266546,2.06546275 C238.679964,3.02934537 238.679964,3.99322799 238.679964,5.09480813 L238.679964,53.1512415 L259.075249,53.1512415 Z M279.746147,25.0609481 L294.077969,25.0609481 C295.180417,25.0609481 296.145059,25.0609481 296.834089,25.7494357 C297.660925,26.1625282 298.074343,27.1264108 298.074343,28.503386 C298.074343,29.8803612 297.660925,30.8442438 296.834089,31.2573363 C296.007253,31.8081264 295.042611,32.0835214 294.077969,32.0835214 L279.608341,32.0835214 L279.608341,53.1512415 L300.003626,53.1512415 C301.106074,53.1512415 302.070716,53.2889391 302.759746,53.8397291 C303.448776,54.2528217 304,55.2167043 304,56.5936795 C304,57.9706546 303.448776,59.0722348 302.759746,59.4853273 C301.795104,59.8984199 300.968268,60.1738149 300.003626,60.1738149 L275.887579,60.1738149 C273.13146,60.1738149 272.029012,59.0722348 272.029012,56.4559819 L272.029012,5.09480813 C272.029012,2.61625282 273.269266,1.37697517 275.887579,1.37697517 L297.385313,1.37697517 C298.487761,1.37697517 299.452403,1.37697517 300.141432,2.06546275 C300.968268,2.61625282 301.381686,3.44243792 301.381686,4.81941309 C301.381686,6.33408578 300.968268,7.2979684 300.141432,7.71106095 C299.314597,8.26185102 298.349955,8.39954853 297.385313,8.39954853 L279.746147,8.39954853 L279.746147,24.9232506 L279.470535,24.9232506 L279.746147,25.0609481 Z" id="Shape" fill="#271D2F" fill-rule="nonzero"/><path d="M318,62 C315.058824,62 313,60.0882353 313,57 C313,54.0588235 314.911765,52 318,52 C320.941176,52 323,54.2058824 323,57 C322.705882,59.9411765 320.794118,62 318,62" id="Shape" fill="#D03333" fill-rule="nonzero"/><g id="Group" transform="translate(46.000000, 0.000000)"><g id="Clipped"><mask id="mask-2" fill="#fff"><use xlink:href="#path-1"/></mask><path d="M295.915208,56.9450864 C295.915208,58.0534321 295.915208,59.0232346 295.501341,59.993037 C294.949518,60.9628395 293.569959,61.3784691 292.190401,61.3784691 C290.534932,61.3784691 289.431285,60.9628395 288.879462,59.993037 C288.327639,59.0232346 288.327639,58.0534321 288.327639,56.9450864 L288.327639,5.68409877 C288.327639,4.29866667 288.327639,3.46740741 288.879462,2.49760494 C289.293329,1.52780247 290.672888,1.11217284 292.190401,1.11217284 C293.845871,1.11217284 294.949518,1.52780247 295.501341,2.49760494 C295.915208,3.46740741 295.915208,4.43720988 295.915208,5.54555556 L295.915208,56.8065432 L295.915208,56.9450864 Z M337.853774,55.2825679 C351.373443,55.2825679 359.926703,46.4158025 359.926703,31.1760494 C359.926703,15.7977531 351.097531,6.93098765 337.577862,6.93098765 C324.058193,6.93098765 315.504933,15.7977531 315.504933,31.0375062 C315.504933,46.4158025 324.334105,55.2825679 337.853774,55.2825679 Z M337.853774,0.14237037 C356.339852,0.14237037 367.92814,12.8883457 367.92814,30.7604198 C367.92814,48.771037 356.063941,61.6555556 337.301951,61.6555556 C318.953828,61.6555556 307.36554,48.771037 307.36554,31.0375062 C307.503496,13.0268889 319.367696,0.14237037 337.715818,0.14237037 L337.853774,0.14237037 Z" id="Shape" fill="#D03333" fill-rule="nonzero" mask="url(#mask-2)"/></g><g id="Clipped"><mask id="mask-4" fill="#fff"><use xlink:href="#path-3"/></mask><path d="M50.0779583,56.1138272 L30.7641452,5.54555556 C29.3845871,2.91323457 28.8327639,1.11217284 25.9356919,1.11217284 C23.1765757,1.11217284 22.2108851,2.91323457 21.2451944,5.82264198 L0.827734848,56.3909136 C0.413867424,57.6378025 0.137955808,58.3305185 0.137955808,59.1617778 C0.137955808,60.5472099 1.37955808,61.6555556 3.72480682,61.6555556 C6.75983459,61.6555556 7.44961363,59.993037 8.41530429,57.9148889 L11.4503321,50.0179259 L11.7262437,49.3252099 L14.4853598,41.7053333 L18.2101667,32.4229383 L25.6597803,13.0268889 L33.9371288,34.5010864 L22.6247525,34.5010864 C22.3488409,34.5010864 22.2108851,34.7781728 22.2108851,34.7781728 L19.8656364,41.0126173 C19.5897247,41.4282469 20.0035922,41.4282469 20.2795038,41.4282469 L36.4203333,41.4282469 L42.4903889,57.6378025 C43.7319911,60.2701235 44.4217702,61.3784691 47.1808863,61.3784691 C49.9400025,61.3784691 51.043649,60.2701235 51.043649,58.8846914 L50.0779583,56.3909136" id="Shape" fill="#271D2F" fill-rule="nonzero" mask="url(#mask-4)"/></g></g></g></g></g></svg>
