<?xml version="1.0" encoding="UTF-8"?>
<svg width="300px" height="45px" viewBox="0 0 300 45" version="1.1" xmlns="http://www.w3.org/2000/svg" xmlns:xlink="http://www.w3.org/1999/xlink">
    <!-- Generator: Sketch 48.2 (47327) - http://www.bohemiancoding.com/sketch -->
    <title>Rangleio-logo-RGB</title>
    <desc>Created with Sketch.</desc>
    <defs>
        <polygon id="path-1" points="0.114166667 0.574166667 266.666667 0.574166667 266.666667 44.95 0.114166667 44.95"></polygon>
    </defs>
    <g id="Page-1" stroke="none" stroke-width="1" fill="none" fill-rule="evenodd">
        <g id="Rangleio-logo-RGB">
            <path d="M5.48916667,21.6725 C5.48916667,21.6725 6.34666667,21.8441667 7.89,21.8441667 C14.9225,21.8441667 19.0391667,19.4425 19.0391667,13.7816667 C19.0391667,7.77833333 14.4083333,6.235 9.2625,6.235 C7.20416667,6.235 5.3175,6.57833333 5.3175,6.57833333 L5.3175,21.6725 L5.48916667,21.6725 Z M5.48916667,41.5691667 C5.48916667,42.4275 5.48916667,43.1133333 5.14583333,43.7991667 C4.8025,44.485 3.77333333,44.8283333 2.74416667,44.8283333 C1.54333333,44.8283333 0.685833333,44.485 0.343333333,43.7991667 C0,43.1133333 0,42.4275 0,41.5691667 L0,5.54916667 C0,3.66166667 0,2.6325 2.91583333,1.94666667 C4.28833333,1.60333333 6.51833333,1.26083333 9.2625,1.26083333 C12.5216667,1.26083333 16.4666667,1.60333333 19.3825,3.1475 C23.1558333,5.03416667 25.3858333,8.63666667 25.3858333,13.2675 C25.3858333,18.7566667 22.47,22.8733333 17.1525,24.9316667 L28.9875,41.2266667 C30.0175,42.5983333 29.8458333,44.485 26.7583333,44.485 C24.3566667,44.485 23.6708333,43.4558333 22.6416667,41.9125 L14.9225,30.935 C12.8641667,28.0183333 11.835,26.1316667 11.835,26.1316667 C11.835,26.1316667 10.4633333,26.475 8.405,26.475 C6.68916667,26.475 6.00333333,26.3033333 6.00333333,26.3033333 L5.48916667,41.5691667 Z" id="Fill-1" fill="#271D2F"></path>
            <path d="M81.99,41.5691667 C81.99,42.4275 81.99,43.1133333 81.6466667,43.7991667 C81.1316667,44.6566667 80.1025,44.8283333 79.245,44.8283333 C78.045,44.8283333 77.3583333,44.485 76.8441667,43.7991667 C76.5008333,43.1133333 76.5008333,42.4275 76.5008333,41.5691667 L76.5008333,3.66166667 C76.5008333,2.11833333 77.3583333,1.26083333 79.0733333,1.26083333 C80.9608333,1.26083333 81.8183333,2.29 83.19,4.17666667 L107.204167,34.5366667 L107.204167,4.52 C107.204167,3.6625 107.204167,2.97583333 107.5475,2.29 C108.061667,1.4325 109.090833,1.26083333 109.948333,1.26083333 C111.149167,1.26083333 111.835,1.60416667 112.35,2.29 C112.693333,2.97583333 112.693333,3.6625 112.693333,4.52 L112.693333,42.4275 C112.693333,43.9708333 111.835,44.8283333 110.291667,44.8283333 C108.576667,44.8283333 107.718333,43.9708333 106.346667,41.9125 L81.99,11.3808333 L81.99,41.5691667" id="Fill-2" fill="#271D2F"></path>
            <path d="M158.319167,38.6533333 C158.319167,40.7116667 157.804167,41.7408333 154.374167,42.9416667 C151.286667,44.1425 147.684167,44.8283333 143.739167,44.8283333 C131.2175,44.8283333 121.0975,37.4525 121.0975,22.7016667 C121.0975,6.92083333 132.761667,0.574166667 143.739167,0.574166667 C147.855833,0.574166667 151.9725,1.4325 155.231667,3.31916667 C157.118333,4.34833333 157.975833,5.20583333 157.975833,6.235 C157.975833,7.6075 157.118333,9.15083333 155.575,9.15083333 C154.374167,9.15083333 153.345,8.12166667 150.943333,7.0925 C149.056667,6.235 146.483333,5.72083333 143.225,5.72083333 C135.505833,5.72083333 126.93,10.18 126.93,22.53 C126.93,34.1941667 134.648333,39.8541667 143.739167,39.8541667 C148.885,39.8541667 152.4875,37.9675 152.4875,37.9675 L152.4875,30.42 C152.4875,29.5625 152.4875,28.8766667 152.83,28.19 C153.173333,27.5041667 154.2025,27.1608333 155.231667,27.1608333 C156.4325,27.1608333 157.29,27.5041667 157.633333,28.19 C157.975833,28.8766667 157.975833,29.5625 157.975833,30.42 L158.319167,38.6533333" id="Fill-3" fill="#271D2F"></path>
            <path d="M187.993333,39.1683333 C188.850833,39.1683333 189.536667,39.34 190.051667,39.6825 C190.565833,40.0258333 190.909167,40.7116667 190.909167,41.7408333 C190.909167,42.77 190.565833,43.4558333 190.051667,43.7991667 C189.365,44.1425 188.679167,44.3141667 187.993333,44.3141667 L170.4975,44.3141667 C168.439167,44.3141667 167.753333,43.4558333 167.753333,41.5691667 L167.753333,4.34833333 C167.753333,3.49083333 167.753333,2.80416667 168.095833,2.11833333 C168.439167,1.4325 169.468333,1.08916667 170.4975,1.08916667 C171.526667,1.08916667 172.555833,1.4325 172.898333,2.11833333 C173.241667,2.80416667 173.241667,3.49083333 173.241667,4.34833333 L173.241667,39.1683333 L187.993333,39.1683333" id="Fill-4" fill="#271D2F"></path>
            <path d="M202.915833,18.7566667 L213.379167,18.7566667 C214.236667,18.7566667 214.9225,18.7566667 215.4375,19.2708333 C215.951667,19.6141667 216.295,20.3 216.295,21.3291667 C216.295,22.3583333 215.951667,23.0441667 215.4375,23.3875 C214.751667,23.7308333 214.065,23.9025 213.379167,23.9025 L202.915833,23.9025 L202.915833,39.1683333 L217.6675,39.1683333 C218.525,39.1683333 219.210833,39.34 219.725833,39.6825 C220.24,40.0258333 220.583333,40.7116667 220.583333,41.7408333 C220.583333,42.77 220.24,43.4558333 219.725833,43.7991667 C219.039167,44.1425 218.353333,44.3141667 217.6675,44.3141667 L200.171667,44.3141667 C198.113333,44.3141667 197.426667,43.4558333 197.426667,41.5691667 L197.426667,4.34833333 C197.426667,2.46166667 198.285,1.60333333 200.171667,1.60333333 L215.780833,1.60333333 C216.638333,1.60333333 217.324167,1.60333333 217.839167,2.11833333 C218.353333,2.46166667 218.696667,3.1475 218.696667,4.17666667 C218.696667,5.20583333 218.353333,5.89166667 217.839167,6.235 C217.1525,6.57833333 216.466667,6.74916667 215.780833,6.74916667 L203.0875,6.74916667 L203.0875,18.7566667 L202.915833,18.7566667" id="Fill-5" fill="#271D2F"></path>
            <path d="M230.188333,44.8283333 C228.13,44.8283333 226.758333,43.4558333 226.758333,41.3975 C226.758333,39.34 228.13,37.9675 230.188333,37.9675 C232.246667,37.9675 233.619167,39.5108333 233.619167,41.3975 C233.4475,43.4558333 232.075833,44.8283333 230.188333,44.8283333" id="Fill-6" fill="#D03333"></path>
            <g id="Group-11" transform="translate(33.333333, 0.000000)">
                <mask id="mask-2" fill="white">
                    <use xlink:href="#path-1"></use>
                </mask>
                <g id="Clip-8"></g>
                <path d="M214.5225,41.5691667 C214.5225,42.4275 214.5225,43.1133333 214.179167,43.7991667 C213.836667,44.485 212.8075,44.8283333 211.778333,44.8283333 C210.5775,44.8283333 209.72,44.485 209.376667,43.7991667 C209.033333,43.1133333 209.033333,42.4275 209.033333,41.5691667 L209.033333,4.52 C209.033333,3.66166667 209.033333,2.97583333 209.376667,2.29 C209.72,1.60333333 210.749167,1.26083333 211.778333,1.26083333 C212.979167,1.26083333 213.836667,1.60333333 214.179167,2.29 C214.5225,2.97583333 214.5225,3.66166667 214.5225,4.52 L214.5225,41.5691667" id="Fill-7" fill="#D03333" mask="url(#mask-2)"></path>
                <path d="M244.8825,40.3683333 C254.66,40.3683333 260.835,34.0225 260.835,23.0441667 C260.835,11.895 254.488333,5.54916667 244.710833,5.54916667 C234.934167,5.54916667 228.759167,11.895 228.759167,22.8733333 C228.759167,34.0225 235.105833,40.3683333 244.8825,40.3683333 Z M244.8825,0.574166667 C258.261667,0.574166667 266.666667,9.83666667 266.666667,22.7016667 C266.666667,35.7375 258.09,45 244.54,45 C231.160833,45 222.755833,35.7375 222.755833,22.8733333 C222.9275,9.83666667 231.503333,0.574166667 244.8825,0.574166667 Z" id="Fill-9" fill="#D03333" mask="url(#mask-2)"></path>
                <path d="M36.3066667,41.055 L22.2408333,4.52 C21.3833333,2.6325 20.8691667,1.26083333 18.8108333,1.26083333 C16.7525,1.26083333 16.0658333,2.6325 15.38,4.69083333 L0.629166667,41.2266667 C0.285833333,42.0841667 0.114166667,42.5983333 0.114166667,43.1133333 C0.114166667,44.1425 0.971666667,45 2.6875,45 C4.91666667,45 5.43166667,43.7991667 6.1175,42.2558333 L8.3475,36.595 L8.51916667,36.0808333 L10.5775,30.5916667 L13.15,23.9025 L18.6391667,9.83666667 L24.6425,25.4458333 L16.4091667,25.4458333 C16.2375,25.4458333 16.0658333,25.6175 16.0658333,25.6175 L14.3508333,30.0775 C14.1791667,30.42 14.5225,30.42 14.6941667,30.42 L26.3575,30.42 L30.8175,42.0841667 C31.675,43.9708333 32.19,44.8283333 34.2483333,44.8283333 C36.135,44.8283333 36.9925,43.9708333 36.9925,42.9416667 C36.8208333,42.4275 36.6491667,41.7408333 36.3066667,41.055" id="Fill-10" fill="#271D2F" mask="url(#mask-2)"></path>
            </g>
        </g>
    </g>
</svg>