<?xml version="1.0" encoding="UTF-8"?>
<svg width="230px" height="65px" viewBox="0 0 230 65" version="1.1" xmlns="http://www.w3.org/2000/svg" xmlns:xlink="http://www.w3.org/1999/xlink">
    <!-- Generator: Sketch 48.2 (47327) - http://www.bohemiancoding.com/sketch -->
    <title>Artboard</title>
    <desc>Created with Sketch.</desc>
    <defs></defs>
    <g id="Page-1" stroke="none" stroke-width="1" fill="none" fill-rule="evenodd">
        <g id="Artboard" fill="#00DD3B">
            <g id="react-amsterdam">
                <path d="M40.6017915,17.474399 C39.2345277,15.7534114 37.9267101,14.0917682 36.5,12.6675026 C35.1327362,14.1511126 33.7654723,15.7534114 32.4576547,17.474399 C35.1327362,17.3557102 37.8672638,17.3557102 40.6017915,17.474399 Z M34.1221498,10.2937266 C31.0903909,7.38585103 24.0162866,1.62944426 19.9739414,3.94387585 C15.8721498,6.31765183 17.4177524,15.2786562 18.3688925,19.3140754 C21.3412052,18.661287 24.5513029,18.1271874 27.9991857,17.771121 C30.0203583,15.0412786 32.0415309,12.4894694 34.1221498,10.2937266 Z M47.497557,43.5265904 C49.6970684,43.2298684 51.7776873,42.873802 53.7394137,42.3990468 C53.1127512,40.3908052 52.3987188,38.4107802 51.5993485,36.4646069 C50.3509772,38.8977273 48.9837134,41.2715032 47.497557,43.5265904 Z M45.0008143,47.2059432 C43.0390879,49.99513 40.9584691,52.5469392 38.8778502,54.742682 L41.6123779,57.1758023 C46.3086319,60.9144995 50.529316,62.5167983 53.0260586,61.0925327 C57.1278502,58.7187567 55.5822476,49.7577524 54.6311075,45.6629888 C51.6587948,46.3751216 48.4486971,46.9092212 45.0008143,47.2059432 Z M36.5,57.1758023 C32.279316,61.2112215 24.1351792,67.4423835 18.25,64.0004083 C12.3648208,60.6177775 13.6726384,50.5292296 15.0993485,44.8321672 C9.4519544,43.170524 0,39.313138 0,32.4885321 C0,25.7232705 9.4519544,21.8065401 15.0993485,20.144897 C13.6726384,14.507179 12.3648208,4.41863104 18.25,0.976655863 C24.1351792,-2.40597492 32.279316,3.76584265 36.5,7.80126182 C40.7801303,3.82518705 48.8648208,-2.40597492 54.75,0.976655863 C60.6351792,4.35928664 59.3273616,14.4478346 57.9006515,20.144897 C63.5480456,21.8065401 73,25.7232705 73,32.4885321 C73,39.2537936 63.5480456,43.170524 57.9006515,44.8321672 C59.2679153,50.5292296 60.6351792,60.6177775 54.75,64.0004083 C50.8859935,66.2554955 45.2980456,64.4751635 39.531759,59.7869559 C38.4777017,58.9681775 37.4658216,58.0966787 36.5,57.1758023 Z M15.9910423,41.5682252 C16.8827362,38.6603497 18.0716612,35.6337853 19.4983713,32.4885321 C18.0716612,29.3432789 16.8827362,26.3167145 15.9910423,23.4088389 C11.9486971,24.5957269 3.38843648,27.8003245 3.38843648,32.4885321 C3.38843648,37.2360841 11.9486971,40.4406816 15.9910423,41.5682252 Z M21.4006515,28.5124573 C22.6490228,26.0793369 24.0162866,23.7649053 25.502443,21.5098181 C23.3029316,21.8065401 21.2223127,22.1626065 19.2605863,22.6373617 C19.8550489,24.4770381 20.5684039,26.4947477 21.4006515,28.5124573 Z M57.0089577,23.4088389 C56.1172638,26.3167145 54.9283388,29.3432789 53.5016287,32.4885321 C54.9283388,35.6337853 56.1172638,38.6603497 57.0089577,41.5682252 C60.9918567,40.3813372 69.6115635,37.1767397 69.6115635,32.4885321 C69.6115635,27.8003245 61.0513029,24.5957269 57.0089577,23.4088389 Z M34.1221498,54.742682 C31.9198482,52.3654337 29.8745543,49.8478875 27.9991857,47.2059432 C24.7556175,46.9273594 21.5368854,46.4116579 18.3688925,45.6629888 C17.3583062,49.698408 15.8721498,58.7187567 19.9739414,61.0925327 C24.0757329,63.4663087 31.0903909,57.6505575 34.1221498,54.742682 Z M36.5,52.368906 C37.8672638,50.885296 39.2345277,49.2829972 40.6017915,47.5620096 C37.8672638,47.6806984 35.1921824,47.6806984 32.4576547,47.5620096 C33.7654723,49.2829972 35.1327362,50.885296 36.5,52.368906 Z M43.1579805,44.0013456 C45.6543779,40.3618083 47.8606691,36.5322171 49.7565147,32.5478765 C47.8542345,28.5718017 45.5952769,24.7144157 43.0985342,21.0944074 C38.6995114,20.7976854 34.2410423,20.7976854 29.7825733,21.0944074 C27.2858306,24.7144157 25.0863192,28.6311461 23.1245928,32.5478765 C25.026873,36.5239513 27.2858306,40.3813372 29.7825733,44.0013456 C34.3004886,44.2980676 38.7589577,44.2980676 43.1579805,44.0013456 Z M51.5993485,28.5124573 C52.417414,26.5667082 53.1512627,24.5867316 53.7988599,22.5780173 C51.8371336,22.1032621 49.7565147,21.7471957 47.5570033,21.4504737 C48.9840839,23.7581431 50.3323082,26.113493 51.5993485,28.5124573 Z M54.6311075,19.3140754 C55.6416938,15.2786562 57.1278502,6.25830743 53.0260586,3.94387585 C48.9242671,1.57009986 41.8501629,7.38585103 38.8778502,10.2343822 C40.9584691,12.4894694 43.0390879,14.9819342 45.0008143,17.771121 C48.2381916,18.0983952 51.4537319,18.6135854 54.6311075,19.3140754 Z M21.4006515,36.4646069 C20.6012812,38.4107802 19.8872488,40.3908052 19.2605863,42.3990468 C21.2223127,42.8144576 23.3029316,43.2298684 25.502443,43.5265904 C24.0524083,41.2214857 22.6842935,38.8660261 21.4006515,36.4646069 Z" id="Shape" fill-rule="nonzero"></path>
                <path d="M34.3714286,22 L36.0285714,23.7417417 L37.6857143,22 L39,23.4414414 L37.3428571,25.1831832 L39,26.9249249 L37.6857143,28.3063063 L36.0285714,26.5645646 L34.3714286,28.3063063 L33,26.9249249 L34.6571429,25.1831832 L33,23.4414414 L34.3714286,22 Z M39,37.1351351 L37.3428571,38.8768769 L39,40.6186186 L37.6857143,42 L36.0285714,40.2582583 L34.3714286,42 L33.0571429,40.5585586 L34.7142857,38.8168168 L33.0571429,37.0750751 L34.4285714,35.6336336 L36.0857143,37.3753754 L37.7428571,35.6336336 L39,37.1351351 Z M39,30.2882883 L37.3428571,32.03003 L39,33.7717718 L37.6857143,35.1531532 L36.0285714,33.4114114 L34.3714286,35.1531532 L33,33.7717718 L34.6571429,32.03003 L33,30.2882883 L34.3714286,28.8468468 L36.0285714,30.5885886 L37.6857143,28.8468468 L39,30.2882883 Z" id="Shape"></path>
            </g>
            <path d="M92.1303711,21.0644531 L92.1303711,26 L88.4658203,26 L88.4658203,12.4365234 L92.909668,12.4365234 C96.5958843,12.4365234 98.4389648,13.7724476 98.4389648,16.4443359 C98.4389648,18.0153073 97.6720454,19.2306272 96.1381836,20.090332 L100.090332,26 L95.934082,26 L93.0581055,21.0644531 L92.1303711,21.0644531 Z M92.1303711,18.309082 L92.8168945,18.309082 C94.0971744,18.309082 94.7373047,17.7431697 94.7373047,16.6113281 C94.7373047,15.6774042 94.109544,15.2104492 92.8540039,15.2104492 L92.1303711,15.2104492 L92.1303711,18.309082 Z M111.941954,26 L103.889219,26 L103.889219,12.4365234 L111.941954,12.4365234 L111.941954,15.3774414 L107.55377,15.3774414 L107.55377,17.5112305 L111.617247,17.5112305 L111.617247,20.4521484 L107.55377,20.4521484 L107.55377,23.0126953 L111.941954,23.0126953 L111.941954,26 Z M125.203732,26 L124.535763,23.4580078 L120.129025,23.4580078 L119.442501,26 L115.416134,26 L119.841427,12.3808594 L124.730587,12.3808594 L129.211544,26 L125.203732,26 Z M123.775021,20.4521484 L123.190548,18.2255859 C123.05448,17.7307918 122.889035,17.0906615 122.69421,16.3051758 C122.499385,15.5196901 122.37105,14.9568702 122.3092,14.6166992 C122.253536,14.9321305 122.143755,15.4516565 121.979855,16.175293 C121.815954,16.8989294 121.452595,18.3245336 120.889767,20.4521484 L123.775021,20.4521484 Z M138.901545,15.2475586 C138.02947,15.2475586 137.349138,15.6047328 136.860529,16.3190918 C136.37192,17.0334508 136.127619,18.0183856 136.127619,19.2739258 C136.127619,21.8839649 137.120285,23.1889648 139.105646,23.1889648 C139.705584,23.1889648 140.286958,23.1054696 140.849787,22.9384766 C141.412615,22.7714835 141.978527,22.5704764 142.547541,22.3354492 L142.547541,25.434082 C141.415699,25.9350611 140.135438,26.1855469 138.70672,26.1855469 C136.65951,26.1855469 135.090108,25.5918028 133.998468,24.4042969 C132.906829,23.2167909 132.361017,21.5004995 132.361017,19.2553711 C132.361017,17.8513927 132.625419,16.6175183 133.15423,15.5537109 C133.683041,14.4899035 134.443776,13.6719592 135.436457,13.0998535 C136.429137,12.5277478 137.596525,12.2416992 138.938654,12.2416992 C140.404482,12.2416992 141.805346,12.5602182 143.141291,13.1972656 L142.018732,16.0825195 C141.517753,15.8474923 141.016781,15.6495776 140.515802,15.4887695 C140.014823,15.3279614 139.476743,15.2475586 138.901545,15.2475586 Z M153.740471,26 L150.07592,26 L150.07592,15.4331055 L146.763908,15.4331055 L146.763908,12.4365234 L157.043205,12.4365234 L157.043205,15.4331055 L153.740471,15.4331055 L153.740471,26 Z M96.7875977,48 L96.1196289,45.4580078 L91.7128906,45.4580078 L91.0263672,48 L87,48 L91.425293,34.3808594 L96.3144531,34.3808594 L100.79541,48 L96.7875977,48 Z M95.3588867,42.4521484 L94.7744141,40.2255859 C94.6383457,39.7307918 94.4729014,39.0906615 94.2780762,38.3051758 C94.083251,37.5196901 93.9549157,36.9568702 93.8930664,36.6166992 C93.8374021,36.9321305 93.7276213,37.4516565 93.5637207,38.175293 C93.3998201,38.8989294 93.0364611,40.3245336 92.4736328,42.4521484 L95.3588867,42.4521484 Z M110.735899,48 L107.961973,38.230957 L107.878477,38.230957 C108.008361,39.8947023 108.073301,41.1873326 108.073301,42.1088867 L108.073301,48 L104.826231,48 L104.826231,34.4365234 L109.706114,34.4365234 L112.535704,44.0664062 L112.609922,44.0664062 L115.383848,34.4365234 L120.273008,34.4365234 L120.273008,48 L116.905333,48 L116.905333,42.0532227 C116.905333,41.7439763 116.909971,41.400718 116.919249,41.0234375 C116.928526,40.646157 116.970274,39.7215243 117.044493,38.2495117 L116.960997,38.2495117 L114.22418,48 L110.735899,48 Z M134.629513,43.8808594 C134.629513,44.7220094 134.416136,45.4688281 133.989376,46.1213379 C133.562616,46.7738477 132.947225,47.2810041 132.143185,47.6428223 C131.339144,48.0046405 130.395957,48.1855469 129.313595,48.1855469 C128.410596,48.1855469 127.652953,48.1221523 127.040646,47.9953613 C126.428338,47.8685703 125.7913,47.6474625 125.129513,47.3320312 L125.129513,44.0664062 C125.82841,44.425132 126.555128,44.7049957 127.309689,44.9060059 C128.06425,45.107016 128.756951,45.2075195 129.387814,45.2075195 C129.932087,45.2075195 130.331009,45.1132008 130.584591,44.9245605 C130.838173,44.7359203 130.964962,44.4931655 130.964962,44.1962891 C130.964962,44.0107413 130.913937,43.8483894 130.811886,43.7092285 C130.709835,43.5700677 130.545936,43.4293627 130.320187,43.2871094 C130.094437,43.1448561 129.492962,42.8541689 128.515743,42.4150391 C127.631299,42.0130188 126.967975,41.6233743 126.525753,41.2460938 C126.083531,40.8688132 125.755735,40.4358748 125.542355,39.9472656 C125.328975,39.4586564 125.222286,38.8803744 125.222286,38.2124023 C125.222286,36.9630471 125.676872,35.9889358 126.586056,35.2900391 C127.49524,34.5911423 128.744576,34.2416992 130.334103,34.2416992 C131.738081,34.2416992 133.16987,34.566403 134.629513,35.2158203 L133.506954,38.0454102 C132.239044,37.464027 131.144329,37.1733398 130.222775,37.1733398 C129.746535,37.1733398 129.400184,37.2568351 129.183712,37.4238281 C128.96724,37.5908211 128.859005,37.7980131 128.859005,38.0454102 C128.859005,38.311362 128.996618,38.5494781 129.271847,38.7597656 C129.547076,38.9700531 130.293895,39.3535128 131.512325,39.9101562 C132.681276,40.435875 133.493036,41.0002411 133.947628,41.6032715 C134.40222,42.2063018 134.629513,42.9654902 134.629513,43.8808594 Z M145.27508,48 L141.610529,48 L141.610529,37.4331055 L138.298517,37.4331055 L138.298517,34.4365234 L148.577814,34.4365234 L148.577814,37.4331055 L145.27508,37.4331055 L145.27508,48 Z M161.134514,48 L153.081779,48 L153.081779,34.4365234 L161.134514,34.4365234 L161.134514,37.3774414 L156.74633,37.3774414 L156.74633,39.5112305 L160.809807,39.5112305 L160.809807,42.4521484 L156.74633,42.4521484 L156.74633,45.0126953 L161.134514,45.0126953 L161.134514,48 Z M169.739065,43.0644531 L169.739065,48 L166.074514,48 L166.074514,34.4365234 L170.518362,34.4365234 C174.204578,34.4365234 176.047659,35.7724476 176.047659,38.4443359 C176.047659,40.0153073 175.28074,41.2306272 173.746878,42.090332 L177.699026,48 L173.542776,48 L170.6668,43.0644531 L169.739065,43.0644531 Z M169.739065,40.309082 L170.425589,40.309082 C171.705868,40.309082 172.345999,39.7431697 172.345999,38.6113281 C172.345999,37.6774042 171.718238,37.2104492 170.462698,37.2104492 L169.739065,37.2104492 L169.739065,40.309082 Z M193.011097,40.9306641 C193.011097,43.1943473 192.387975,44.9384704 191.141712,46.1630859 C189.895449,47.3877014 188.143595,48 185.886097,48 L181.497913,48 L181.497913,34.4365234 L186.192249,34.4365234 C188.369344,34.4365234 190.050072,34.9931585 191.234486,36.1064453 C192.418899,37.2197321 193.011097,38.827789 193.011097,40.9306641 Z M189.207386,41.0605469 C189.207386,39.8173766 188.961539,38.8958363 188.469837,38.2958984 C187.978136,37.6959605 187.231317,37.3959961 186.229359,37.3959961 L185.162464,37.3959961 L185.162464,44.9941406 L185.97887,44.9941406 C187.092157,44.9941406 187.908555,44.670983 188.428089,44.0246582 C188.947623,43.3783334 189.207386,42.3903061 189.207386,41.0605469 Z M205.948168,48 L205.280199,45.4580078 L200.873461,45.4580078 L200.186937,48 L196.16057,48 L200.585863,34.3808594 L205.475023,34.3808594 L209.95598,48 L205.948168,48 Z M204.519457,42.4521484 L203.934984,40.2255859 C203.798916,39.7307918 203.633472,39.0906615 203.438646,38.3051758 C203.243821,37.5196901 203.115486,36.9568702 203.053637,36.6166992 C202.997972,36.9321305 202.888191,37.4516565 202.724291,38.175293 C202.56039,38.8989294 202.197031,40.3245336 201.634203,42.4521484 L204.519457,42.4521484 Z M219.896469,48 L217.122543,38.230957 L217.039047,38.230957 C217.168931,39.8947023 217.233871,41.1873326 217.233871,42.1088867 L217.233871,48 L213.986801,48 L213.986801,34.4365234 L218.866684,34.4365234 L221.696274,44.0664062 L221.770493,44.0664062 L224.544418,34.4365234 L229.433578,34.4365234 L229.433578,48 L226.065903,48 L226.065903,42.0532227 C226.065903,41.7439763 226.070541,41.400718 226.079819,41.0234375 C226.089096,40.646157 226.130844,39.7215243 226.205063,38.2495117 L226.121567,38.2495117 L223.38475,48 L219.896469,48 Z" id="React-Amsterdam"></path>
        </g>
    </g>
</svg>