<svg width="35" height="43" viewBox="0 0 35 43" version="1.1" xmlns="http://www.w3.org/2000/svg" xmlns:xlink="http://www.w3.org/1999/xlink"><title>coffee</title><desc>Created with Sketch.</desc><g id="GraphQL-day-2018" stroke="none" stroke-width="1" fill="none" fill-rule="evenodd" transform="translate(-307.000000, -1928.000000)"><g id="schedule" transform="translate(153.000000, 1873.000000)" fill="rgb(42, 53, 74)" fill-rule="nonzero"><g id="coffee-" transform="translate(154.000000, 55.000000)"><path d="M0.239776119,22.5522048 C0.239776119,24.029747 0.657686567,28.8597349 2.56544776,33.4053012 C5.11208955,39.4724458 9.33768657,42.6793133 14.7867164,42.6793133 C19.5691791,42.6793133 23.4092537,40.2065542 25.9987313,35.4988313 C32.0009701,34.2357711 34.5512687,31.0641325 34.9148507,28.4385422 C35.1739552,26.5662289 34.37,24.8928554 32.8655224,24.1753253 C31.7752985,23.6551807 30.5090299,23.7240843 29.2286567,24.3188313 C29.3038806,23.5474217 29.3326119,22.9345422 29.3326119,22.5516867 C29.3326119,18.7915181 22.0144776,16.8243976 14.786194,16.8243976 C7.55791045,16.8254337 0.239776119,18.7920361 0.239776119,22.5522048 Z M14.7867164,40.2252048 C6.65574627,40.2252048 3.98059701,31.2687711 3.11656716,26.1077349 C5.90977612,27.541241 10.3631343,28.2789759 14.7867164,28.2789759 C19.2102985,28.2789759 23.6647015,27.5407229 26.4563433,26.1077349 C25.5928358,31.268253 22.9176866,40.2252048 14.7867164,40.2252048 Z M28.7323881,27.6458916 C30.1109701,26.3097831 31.2079851,26.1098072 31.7935821,26.3869759 C32.3112687,26.6340964 32.5740299,27.3075904 32.4632836,28.1043855 C32.2595522,29.5783012 30.7639552,31.4739277 27.3229851,32.6126506 C27.974403,30.9040482 28.4252239,29.1850843 28.7323881,27.6458916 Z M14.7867164,19.2795422 C22.2751493,19.2795422 26.8591045,21.3984578 26.8591045,22.5522048 C26.8591045,23.7059518 22.2756716,25.8243494 14.7867164,25.8243494 C7.29776119,25.8243494 2.71432836,23.7054337 2.71432836,22.5522048 C2.71432836,21.3984578 7.29776119,19.2795422 14.7867164,19.2795422 Z" id="Shape"/><path d="M8.73746269,10.040759 C8.73746269,13.494747 11.6800746,15.1344458 11.8054478,15.2033494 C11.9940299,15.3054096 12.1982836,15.3541084 12.399403,15.3541084 C12.8366418,15.3541084 13.2602985,15.1240843 13.4854478,14.7173976 C13.8140299,14.1231687 13.5946269,13.3771446 12.9954478,13.0512771 C12.9776866,13.0414337 11.2125373,12.025494 11.2125373,10.040759 C11.2125373,9.32478313 12.0671642,8.34355422 12.8935821,7.39444578 C14.3735075,5.69568675 16.214403,3.58091566 15.2297015,0.818036145 C15.0019403,0.179771084 14.2956716,-0.15386747 13.6505224,0.0704578313 C13.0064179,0.296337349 12.6689552,0.997289157 12.8967164,1.63659036 C13.3684328,2.96026506 12.5028358,4.08862651 11.0208209,5.79101205 C9.89820896,7.07945783 8.73746269,8.41142169 8.73746269,10.040759 Z" id="Shape"/><path d="M14.0720896,10.040759 C14.0720896,13.5636506 17.6337313,15.1805542 17.7852239,15.2479036 C17.9492537,15.3204337 18.120597,15.3546265 18.2893284,15.3546265 C18.7620896,15.3546265 19.2144776,15.0836747 19.4197761,14.627253 C19.6976866,14.0086747 19.4176866,13.2818193 18.7939552,13.0067229 C18.7714925,12.9963614 16.5466418,11.9586627 16.5466418,10.040759 C16.5466418,9.32478313 17.4012687,8.34355422 18.2276866,7.39444578 C19.7076119,5.69568675 21.5490299,3.58091566 20.5643284,0.818036145 C20.3360448,0.179771084 19.6313433,-0.15386747 18.9851493,0.0704578313 C18.3415672,0.296337349 18.0035821,0.997289157 18.2313433,1.63659036 C18.7035821,2.96026506 17.8374627,4.08862651 16.3559701,5.79101205 C15.2328358,7.07945783 14.0720896,8.41142169 14.0720896,10.040759 Z" id="Shape"/></g></g></g></svg>
