<svg width="26" height="32" viewBox="0 0 26 32" version="1.1" xmlns="http://www.w3.org/2000/svg" xmlns:xlink="http://www.w3.org/1999/xlink"><title>cutlery</title><desc>Created with Sketch.</desc><g id="GraphQL-day-2018" stroke="none" stroke-width="1" fill="none" fill-rule="evenodd" transform="translate(-941.000000, -2023.000000)"><g id="schedule" transform="translate(153.000000, 1873.000000)" fill="rgb(42, 53, 74)" fill-rule="nonzero"><g id="cutlery" transform="translate(788.000000, 150.000000)"><path d="M24.10785,0.0624 C23.2206,0.0624 22.5044625,0.76752 22.5044625,1.64112 L22.5044625,7.96848 C22.5044625,9.13536 21.8580375,10.14624 20.901075,10.69536 L20.901075,1.64736 C20.901075,0.77376 20.1849375,0.06864 19.2976875,0.06864 C18.4104375,0.06864 17.681625,0.77376 17.681625,1.64736 L17.681625,10.7016 C16.6993125,10.1088 16.0782375,8.9856 16.0782375,7.79376 L16.0782375,1.64736 C16.0782375,0.77376 15.3621,0.06864 14.47485,0.06864 C13.5876,0.06864 12.865125,0.77376 12.865125,1.64736 L12.865125,7.69392 C12.865125,10.66416 14.8551,13.34112 17.681625,14.07744 L17.681625,30.11424 C17.681625,30.98784 18.3977625,31.69296 19.2850125,31.69296 C20.1722625,31.69296 20.8884,30.9816 20.8884,30.11424 L20.8884,14.06496 C23.65155,13.3536 25.7049,10.91376 25.7049,7.97472 L25.7049,1.64736 C25.717575,0.77376 24.9951,0.0624 24.10785,0.0624 Z" id="Shape"/><path d="M0.291525,0.01248 C0.12675,0.0312 0.012675,0.16848 0.012675,0.33072 L0.012675,30.12048 C0.012675,30.99408 0.7288125,31.6992 1.6160625,31.6992 C2.5033125,31.6992 3.21945,30.99408 3.21945,30.12048 L3.21945,19.04448 L6.10935,19.04448 C6.2868,19.04448 6.4325625,18.89472 6.4325625,18.72 C6.3818625,0.5304 1.521,-0.11856 0.291525,0.01248 Z" id="Shape"/></g></g></g></svg>
