<svg xmlns="http://www.w3.org/2000/svg" xmlns:xlink="http://www.w3.org/1999/xlink" version="1.1" x="0px" y="0px" viewBox="0 0 100 125" enable-background="new 0 0 100 100" xml:space="preserve"><g><path fill="#13A87D" d="M1355.15,100.38c0-5.709-4.645-10.354-10.354-10.354s-10.354,4.645-10.354,10.354   c0,5.71,4.645,10.355,10.354,10.355S1355.15,106.09,1355.15,100.38z M1344.797,109.535c-5.049,0-9.154-4.106-9.154-9.155   c0-5.047,4.105-9.153,9.154-9.153c5.047,0,9.152,4.106,9.152,9.153C1353.949,105.429,1349.844,109.535,1344.797,109.535z"/><path fill="#13A87D" d="M1423.516,129.803c-0.004-0.005-0.01-0.013-0.014-0.019c-0.002-0.003-0.002-0.005-0.002-0.008   c-8.053-12.019-18.357-22.005-30.625-29.685c0,0,0-0.001-0.002-0.001c-6.977-5.015-15.174-7.768-23.738-8.016   c0.412-10.617-0.336-21.297-2.24-31.753c-0.227-1.24-0.922-2.318-1.959-3.035c-1.037-0.716-2.287-0.984-3.531-0.761   c-1.238,0.227-2.316,0.921-3.035,1.957c-0.717,1.037-0.986,2.291-0.762,3.531c1.891,10.366,2.57,20.956,2.021,31.478   c0,0.001,0,0.001,0,0.002l-1.086,15.755l0,0c-0.896,10.488-3.023,20.882-6.316,30.893c-0.812,2.472,0.539,5.144,3.01,5.957   c0.488,0.162,0.984,0.238,1.473,0.238c1.98,0,3.832-1.262,4.484-3.245c3.262-9.909,5.447-20.194,6.512-30.575   c4.695-0.11,9.307,1.366,13.029,4.238c8.537,7.494,15.441,16.445,20.523,26.602c0.65,1.297,1.766,2.263,3.141,2.721   c0.562,0.188,1.143,0.28,1.719,0.28c0.832,0,1.66-0.193,2.426-0.576c1.297-0.648,2.264-1.764,2.723-3.14   c0.457-1.376,0.352-2.849-0.297-4.145c-3.877-7.746-8.762-14.953-14.525-21.421c-0.131-0.149-0.137-0.368-0.012-0.521   c0.143-0.173,0.398-0.198,0.566-0.057c0.002,0.001,0.002,0.001,0.004,0.003c6.754,5.529,12.629,12.02,17.457,19.286   c1.043,1.571,2.77,2.424,4.529,2.424c1.031,0,2.074-0.293,2.994-0.906C1424.475,135.649,1425.156,132.272,1423.516,129.803z    M1421.32,136.306c-1.945,1.29-4.574,0.758-5.863-1.182c-4.893-7.367-10.846-13.945-17.695-19.551c0-0.001,0-0.002-0.002-0.003   c-0.68-0.56-1.693-0.461-2.256,0.224c-0.502,0.615-0.482,1.489,0.045,2.081c5.691,6.388,10.518,13.507,14.346,21.158   c0.506,1.011,0.588,2.157,0.232,3.229c-0.357,1.072-1.109,1.94-2.121,2.446c-1.01,0.505-2.156,0.589-3.229,0.23   c-1.07-0.356-1.941-1.108-2.445-2.119c-5.156-10.302-12.16-19.379-20.818-26.979c-0.004-0.005-0.012-0.006-0.018-0.011   c-0.004-0.003-0.006-0.009-0.012-0.013c-4.086-3.159-9.17-4.76-14.346-4.496c-0.041,0.002-0.076,0.019-0.115,0.029   c-0.014,0.003-0.027,0.006-0.041,0.01c-0.064,0.021-0.121,0.052-0.174,0.093c-0.008,0.006-0.018,0.013-0.025,0.021   c-0.043,0.036-0.078,0.078-0.109,0.126c-0.016,0.022-0.029,0.044-0.043,0.068c-0.018,0.04-0.029,0.079-0.037,0.123   c-0.006,0.024-0.021,0.044-0.023,0.07c-1.035,10.477-3.227,20.858-6.516,30.855c-0.607,1.845-2.602,2.848-4.443,2.243   c-1.844-0.607-2.85-2.601-2.246-4.443c3.326-10.103,5.469-20.592,6.373-31.175c0-0.001,0-0.004,0-0.005s0.002-0.004,0.002-0.006   l1.092-15.834c0.002-0.008-0.004-0.015-0.004-0.021c0.549-10.589-0.137-21.246-2.039-31.677c-0.168-0.925,0.033-1.858,0.568-2.632   s1.338-1.292,2.264-1.459c0.924-0.175,1.857,0.032,2.633,0.565c0.771,0.536,1.291,1.34,1.459,2.265   c1.926,10.562,2.668,21.355,2.205,32.08c0,0.003,0,0.006,0,0.009s0,0.005,0,0.007c0,0.032,0.012,0.059,0.016,0.09   c0.008,0.047,0.01,0.095,0.025,0.138c0.014,0.032,0.035,0.057,0.053,0.085c0.023,0.037,0.041,0.077,0.07,0.108   c0.025,0.027,0.059,0.044,0.09,0.065c0.033,0.023,0.061,0.051,0.096,0.067s0.074,0.019,0.111,0.028   c0.037,0.009,0.072,0.025,0.113,0.027c0.006,0,0.01,0,0.016,0c8.541,0.128,16.725,2.833,23.664,7.822   c0.006,0.004,0.012,0.002,0.016,0.005c0.008,0.005,0.012,0.012,0.018,0.017c12.137,7.592,22.328,17.465,30.293,29.351   c0.002,0.001,0.002,0.004,0.002,0.005C1423.791,132.386,1423.262,135.015,1421.32,136.306z"/></g><path fill="#13A87D" d="M92.107,88.223c-5.352-13.651-13.828-26.176-24.514-36.22C67.592,52.001,67.59,52.001,67.59,52  c-0.002-0.001-0.002-0.002-0.002-0.003c-6.273-5.841-14.301-9.659-22.777-10.871c1.244-10.236,1.421-20.615,0.495-30.881  c-0.011-0.124-0.035-0.245-0.069-0.359c-0.47-3.061-3.238-5.277-6.357-5.007c-3.126,0.282-5.444,2.966-5.359,6.062  c-0.014,0.112-0.014,0.229-0.005,0.347c0.001,0.007,0,0.012,0,0.018l0,0v0.001c0.938,10.39,0.661,20.895-0.818,31.224l-0.662,4.125  c-0.649-5.76-5.545-10.253-11.475-10.253c-3.086,0-5.987,1.202-8.169,3.385c-2.183,2.182-3.384,5.083-3.384,8.17  c0,6.37,5.183,11.554,11.553,11.554c4.657,0,8.668-2.775,10.496-6.754l-0.858,5.349l0,0c-1.825,10.281-4.854,20.354-8.998,29.936  c-0.001,0.001-0.002,0.003-0.002,0.004c-0.627,1.45-0.652,3.06-0.07,4.53c0.583,1.471,1.703,2.626,3.153,3.253  c0.685,0.296,1.403,0.439,2.127,0.467c1.046,0.63,2.229,0.968,3.422,0.968c1.222,0,2.445-0.334,3.518-1.006  c0.001,0,0.002,0,0.003-0.001c11.967-7.514,22.349-17.671,30.156-29.461c6.969,7.731,12.445,16.546,16.258,26.265  c0,0.001,0,0.001,0,0.001l0.002,0.001l0,0l0,0c0.645,1.648,1.893,2.946,3.516,3.655c0.852,0.371,1.75,0.558,2.65,0.558  c0.818,0,1.639-0.153,2.422-0.461c1.648-0.646,2.947-1.895,3.656-3.518S92.754,89.872,92.107,88.223z M20.56,55.911  c-4.385,0-7.952-3.568-7.952-7.954c-0.001-2.126,0.826-4.122,2.328-5.625c1.502-1.502,3.5-2.329,5.624-2.329  c4.386,0,7.953,3.568,7.953,7.954S24.946,55.911,20.56,55.911z M88.711,91.854c-0.322,0.74-0.916,1.312-1.672,1.606  c-0.754,0.294-1.576,0.28-2.316-0.043s-1.311-0.917-1.605-1.67v-0.001l0,0c-4.264-10.869-10.502-20.672-18.545-29.136  c-0.006-0.006-0.014-0.008-0.02-0.014c-0.098-0.1-0.205-0.193-0.328-0.271c-0.062-0.04-0.131-0.066-0.195-0.097  c-0.025-0.013-0.049-0.026-0.074-0.037c-0.193-0.08-0.391-0.121-0.592-0.132c-0.029-0.001-0.057-0.004-0.086-0.004  c-0.201-0.002-0.4,0.033-0.592,0.1c-0.027,0.009-0.055,0.016-0.082,0.027c-0.199,0.079-0.381,0.195-0.543,0.342  c-0.01,0.009-0.023,0.012-0.033,0.021c-0.006,0.006-0.008,0.013-0.014,0.019c-0.1,0.098-0.193,0.204-0.271,0.328  C54.221,74.878,43.95,85.199,32.026,92.812c0.01-0.023,0.026-0.042,0.036-0.065c0-0.001,0.001-0.001,0.001-0.001l0,0  c0.001-0.001,0.001-0.001,0.001-0.001v-0.001c1.442-3.333,2.75-6.727,3.941-10.163c5.986-4.71,11.361-10.161,15.975-16.22  c0.016-0.019,0.023-0.04,0.037-0.059c0.01-0.013,0.021-0.022,0.031-0.036c0.023-0.034,0.037-0.071,0.057-0.106  c0.031-0.056,0.062-0.109,0.088-0.167c0.023-0.054,0.041-0.107,0.059-0.161c0.02-0.058,0.037-0.114,0.051-0.173  c0.012-0.058,0.02-0.114,0.027-0.172c0.006-0.058,0.014-0.114,0.014-0.17c0.002-0.06-0.002-0.117-0.006-0.176  c-0.004-0.057-0.008-0.112-0.018-0.169c-0.01-0.058-0.025-0.112-0.041-0.17c-0.014-0.055-0.029-0.109-0.049-0.163  s-0.045-0.105-0.07-0.158c-0.027-0.053-0.051-0.103-0.082-0.153c-0.031-0.049-0.066-0.096-0.104-0.145  c-0.035-0.045-0.07-0.092-0.109-0.136c-0.041-0.043-0.088-0.083-0.133-0.124c-0.033-0.028-0.059-0.06-0.092-0.086  c-0.018-0.013-0.035-0.02-0.053-0.031c-0.016-0.011-0.027-0.024-0.043-0.035c-3.491-2.32-7.551-3.635-11.743-3.805  c-0.017,0-0.033,0.003-0.05,0.003c-0.069-0.001-0.136,0.006-0.203,0.013c-0.046,0.005-0.093,0.008-0.138,0.016  c-0.091,0.017-0.178,0.042-0.264,0.071c-0.019,0.007-0.037,0.012-0.055,0.018c-0.322,0.123-0.602,0.334-0.807,0.612  c-0.001,0.001-0.002,0.002-0.003,0.003c-0.058,0.077-0.105,0.161-0.15,0.247c-0.013,0.025-0.025,0.047-0.037,0.07  c-0.03,0.067-0.053,0.138-0.075,0.209c-0.016,0.049-0.032,0.096-0.044,0.147c-0.004,0.018-0.012,0.033-0.015,0.051  c-1.964,10.256-5.06,20.313-9.203,29.89l0,0v0.001c-0.246,0.568-0.698,1.007-1.274,1.235c-0.574,0.228-1.206,0.218-1.774-0.028  s-1.008-0.698-1.235-1.274c-0.229-0.576-0.219-1.206,0.027-1.774c0.001-0.003,0.001-0.004,0.001-0.006  c4.257-9.839,7.365-20.18,9.239-30.735c0.001-0.007,0-0.014,0.001-0.02c0.001-0.004,0.003-0.006,0.003-0.01l2.508-15.628  c0-0.001,0.002-0.002,0.002-0.005c0.001-0.009,0.003-0.02,0.004-0.029l0.002-0.009c0-0.001,0-0.003,0-0.005  c1.518-10.6,1.801-21.381,0.839-32.045c-0.113-1.272,0.829-2.403,2.101-2.519c1.265-0.104,2.404,0.829,2.519,2.103l0,0v0.001  c0.956,10.604,0.723,21.333-0.694,31.888c-0.002,0.012,0,0.022-0.002,0.034c-0.001,0.01-0.004,0.019-0.006,0.029  c-0.004,0.048,0.002,0.094,0.001,0.141c-0.002,0.065-0.005,0.13,0.001,0.193c0.004,0.059,0.018,0.114,0.028,0.171  c0.011,0.059,0.02,0.117,0.036,0.175c0.017,0.059,0.041,0.112,0.064,0.169c0.021,0.052,0.038,0.104,0.063,0.151  c0.028,0.056,0.064,0.106,0.099,0.158c0.029,0.044,0.056,0.09,0.088,0.131c0.039,0.05,0.084,0.093,0.128,0.139  c0.036,0.037,0.07,0.076,0.11,0.11c0.049,0.042,0.102,0.076,0.154,0.113c0.043,0.029,0.084,0.061,0.129,0.087  c0.058,0.032,0.118,0.056,0.179,0.083c0.048,0.02,0.094,0.043,0.144,0.06c0.064,0.022,0.133,0.034,0.201,0.048  c0.042,0.01,0.082,0.025,0.126,0.031c0.012,0.001,0.023,0.001,0.036,0.002c0.01,0.001,0.019,0.005,0.028,0.006  c8.36,0.818,16.35,4.419,22.497,10.142c10.299,9.68,18.467,21.751,23.625,34.909C89.051,90.29,89.035,91.112,88.711,91.854z   M41.171,63.689c2.341,0.279,4.604,0.99,6.688,2.086c-2.973,3.721-6.247,7.189-9.788,10.368  C39.286,72.039,40.321,67.883,41.171,63.689z"/></svg>