<?xml version="1.0" encoding="UTF-8"?>
<svg width="571px" height="751px" viewBox="0 0 571 751" version="1.1" xmlns="http://www.w3.org/2000/svg" xmlns:xlink="http://www.w3.org/1999/xlink">
    <!-- Generator: Sketch 47 (45396) - http://www.bohemiancoding.com/sketch -->
    <title>bg-graph</title>
    <desc>Created with Sketch.</desc>
    <defs></defs>
    <g id="Landing-Page" stroke="none" stroke-width="1" fill="none" fill-rule="evenodd" opacity="0.346665112">
        <g id="bg-graph" transform="translate(303.750239, 379.840845) rotate(-70.000000) translate(-303.750239, -379.840845) translate(-20.749761, 102.340845)">
            <circle id="Combined-Shape" fill="#D6D6D6" cx="476.529205" cy="279.208978" r="5.5"></circle>
            <circle id="Oval" fill="#D6D6D6" cx="511.679756" cy="259.098316" r="5.5"></circle>
            <circle id="Oval" fill="#D6D6D6" cx="476.766458" cy="322.486498" r="5.5"></circle>
            <circle id="Oval" fill="#D6D6D6" cx="511.414722" cy="337.200363" r="5.5"></circle>
            <circle id="Oval" fill="#D6D6D6" cx="546.168999" cy="320.673409" r="5.5"></circle>
            <circle id="Oval" fill="#D6D6D6" cx="545.412215" cy="279.570766" r="5.5"></circle>
            <circle id="Oval" fill="#D6D6D6" cx="599.493867" cy="264.901925" r="5.5"></circle>
            <circle id="Oval" fill="#D6D6D6" cx="547.172297" cy="364.593716" r="5.5"></circle>
            <circle id="Oval" fill="#D6D6D6" cx="581.177773" cy="380.073626" r="5.5"></circle>
            <circle id="Oval" fill="#D6D6D6" cx="616.698095" cy="364.18946" r="5.5"></circle>
            <circle id="Oval" fill="#D6D6D6" cx="615.818054" cy="321.677984" r="5.5"></circle>
            <circle id="Combined-Shape" fill="#D6D6D6" cx="424.973679" cy="379.543557" r="5.5"></circle>
            <circle id="Oval" fill="#D6D6D6" cx="459.358186" cy="358.790107" r="5.5"></circle>
            <circle id="Oval" fill="#D6D6D6" cx="425.087675" cy="421.412245" r="5.5"></circle>
            <circle id="Combined-Shape" fill="#D6D6D6" cx="424.648932" cy="286.587145" r="5.5"></circle>
            <circle id="Oval" fill="#D6D6D6" cx="424.762929" cy="328.455833" r="5.5"></circle>
            <circle id="Oval" fill="#D6D6D6" cx="459.859196" cy="437.534942" r="5.5"></circle>
            <circle id="Oval" fill="#D6D6D6" cx="494.613473" cy="421.007988" r="5.5"></circle>
            <circle id="Oval" fill="#D6D6D6" cx="493.090645" cy="379.262557" r="5.5"></circle>
            <circle id="Combined-Shape" fill="#D6D6D6" cx="494.613473" cy="421.007988" r="5.5"></circle>
            <circle id="Oval" fill="#D6D6D6" cx="494.850726" cy="464.285508" r="5.5"></circle>
            <circle id="Oval" fill="#D6D6D6" cx="529.622247" cy="480.408205" r="5.5"></circle>
            <circle id="Oval" fill="#D6D6D6" cx="564.376524" cy="463.881251" r="5.5"></circle>
            <circle id="Oval" fill="#D6D6D6" cx="563.496483" cy="421.369776" r="5.5"></circle>
            <circle id="Combined-Shape" fill="#D6D6D6" cx="504.021867" cy="25.5317154" r="5.5"></circle>
            <circle id="Oval" fill="#D6D6D6" cx="538.529631" cy="6.18709755" r="5.5"></circle>
            <circle id="Oval" fill="#D6D6D6" cx="503.493076" cy="68.1664475" r="5.5"></circle>
            <circle id="Oval" fill="#D6D6D6" cx="538.264596" cy="84.2891446" r="5.5"></circle>
            <circle id="Oval" fill="#D6D6D6" cx="573.661661" cy="66.9961464" r="5.5"></circle>
            <circle id="Oval" fill="#D6D6D6" cx="572.138833" cy="25.2507156" r="5.5"></circle>
            <circle id="Oval" fill="#D6D6D6" cx="625.577697" cy="11.3479192" r="5.5"></circle>
            <circle id="Oval" fill="#D6D6D6" cx="573.898915" cy="110.273666" r="5.5"></circle>
            <circle id="Oval" fill="#D6D6D6" cx="608.027648" cy="127.162408" r="5.5"></circle>
            <circle id="Oval" fill="#D6D6D6" cx="643.424713" cy="109.869409" r="5.5"></circle>
            <circle id="Oval" fill="#D6D6D6" cx="642.544672" cy="67.3579342" r="5.5"></circle>
            <circle id="Combined-Shape" fill="#D6D6D6" cx="451.700297" cy="125.223507" r="5.5"></circle>
            <circle id="Oval" fill="#D6D6D6" cx="486.850848" cy="105.112844" r="5.5"></circle>
            <circle id="Oval" fill="#D6D6D6" cx="451.171505" cy="167.858239" r="5.5"></circle>
            <circle id="Combined-Shape" fill="#D6D6D6" cx="452.141595" cy="32.9098824" r="5.5"></circle>
            <circle id="Oval" fill="#D6D6D6" cx="451.612804" cy="75.5446144" r="5.5"></circle>
            <circle id="Oval" fill="#D6D6D6" cx="485.943026" cy="183.980936" r="5.5"></circle>
            <circle id="Oval" fill="#D6D6D6" cx="522.106135" cy="167.330725" r="5.5"></circle>
            <circle id="Oval" fill="#D6D6D6" cx="520.583307" cy="125.585295" r="5.5"></circle>
            <circle id="Combined-Shape" fill="#D6D6D6" cx="522.106135" cy="167.330725" r="5.5"></circle>
            <circle id="Oval" fill="#D6D6D6" cx="521.577344" cy="209.965457" r="5.5"></circle>
            <circle id="Oval" fill="#D6D6D6" cx="556.348865" cy="226.088155" r="5.5"></circle>
            <circle id="Oval" fill="#D6D6D6" cx="591.103142" cy="209.561201" r="5.5"></circle>
            <circle id="Oval" fill="#D6D6D6" cx="590.223101" cy="167.049726" r="5.5"></circle>
            <circle id="Combined-Shape" fill="#D6D6D6" cx="58.3260952" cy="326.444126" r="5.5"></circle>
            <circle id="Oval" fill="#D6D6D6" cx="92.833859" cy="307.099508" r="5.5"></circle>
            <circle id="Oval" fill="#D6D6D6" cx="58.5633485" cy="369.721646" r="5.5"></circle>
            <circle id="Oval" fill="#D6D6D6" cx="92.5688245" cy="385.201555" r="5.5"></circle>
            <circle id="Oval" fill="#D6D6D6" cx="128.089146" cy="369.317389" r="5.5"></circle>
            <circle id="Oval" fill="#D6D6D6" cx="127.209106" cy="326.805914" r="5.5"></circle>
            <circle id="Oval" fill="#D6D6D6" cx="180.64797" cy="312.903118" r="5.5"></circle>
            <circle id="Oval" fill="#D6D6D6" cx="128.3264" cy="412.594909" r="5.5"></circle>
            <circle id="Oval" fill="#D6D6D6" cx="163.09792" cy="428.717606" r="5.5"></circle>
            <circle id="Oval" fill="#D6D6D6" cx="197.852198" cy="412.190652" r="5.5"></circle>
            <circle id="Oval" fill="#D6D6D6" cx="196.972157" cy="369.679177" r="5.5"></circle>
            <circle id="Combined-Shape" fill="#D6D6D6" cx="6.77056921" cy="426.778705" r="5.5"></circle>
            <circle id="Oval" fill="#D6D6D6" cx="40.5122885" cy="406.7913" r="5.5"></circle>
            <circle id="Oval" fill="#D6D6D6" cx="6.24177805" cy="469.413437" r="5.5"></circle>
            <circle id="Combined-Shape" fill="#D6D6D6" cx="5.8030353" cy="334.588338" r="5.5"></circle>
            <circle id="Oval" fill="#D6D6D6" cx="6.6830762" cy="377.099813" r="5.5"></circle>
            <circle id="Oval" fill="#D6D6D6" cx="41.0132985" cy="485.536134" r="5.5"></circle>
            <circle id="Oval" fill="#D6D6D6" cx="76.5336204" cy="469.651968" r="5.5"></circle>
            <circle id="Oval" fill="#D6D6D6" cx="74.8875351" cy="426.497705" r="5.5"></circle>
            <circle id="Combined-Shape" fill="#D6D6D6" cx="76.5336204" cy="469.651968" r="5.5"></circle>
            <circle id="Oval" fill="#D6D6D6" cx="76.0048293" cy="512.2867" r="5.5"></circle>
            <circle id="Oval" fill="#D6D6D6" cx="110.77635" cy="528.409398" r="5.5"></circle>
            <circle id="Oval" fill="#D6D6D6" cx="145.530627" cy="511.882444" r="5.5"></circle>
            <circle id="Oval" fill="#D6D6D6" cx="144.650586" cy="469.370969" r="5.5"></circle>
            <circle id="Combined-Shape" fill="#D6D6D6" transform="translate(146.345529, 83.087229) scale(-1, 1) translate(-146.345529, -83.087229) " cx="146.345529" cy="83.0872293" r="5.5"></circle>
            <circle id="Oval" fill="#D6D6D6" transform="translate(111.970282, 63.380824) scale(-1, 1) translate(-111.970282, -63.380824) " cx="111.970282" cy="63.3808237" r="5.5"></circle>
            <circle id="Oval" fill="#D6D6D6" transform="translate(146.582782, 126.364749) scale(-1, 1) translate(-146.582782, -126.364749) " cx="146.582782" cy="126.364749" r="5.5"></circle>
            <circle id="Oval" fill="#D6D6D6" transform="translate(111.705248, 141.482871) scale(-1, 1) translate(-111.705248, -141.482871) " cx="111.705248" cy="141.482871" r="5.5"></circle>
            <circle id="Oval" fill="#D6D6D6" transform="translate(76.933727, 125.360174) scale(-1, 1) translate(-76.933727, -125.360174) " cx="76.9337274" cy="125.360174" r="5.5"></circle>
            <circle id="Oval" fill="#D6D6D6" transform="translate(78.228563, 83.368229) scale(-1, 1) translate(-78.228563, -83.368229) " cx="78.228563" cy="83.3682291" r="5.5"></circle>
            <circle id="Oval" fill="#D6D6D6" transform="translate(24.499438, 69.613915) scale(-1, 1) translate(-24.499438, -69.613915) " cx="24.4994383" cy="69.6139153" r="5.5"></circle>
            <circle id="Oval" fill="#D6D6D6" transform="translate(75.762149, 168.760950) scale(-1, 1) translate(-75.762149, -168.760950) " cx="75.7621487" cy="168.76095" r="5.5"></circle>
            <circle id="Oval" fill="#D6D6D6" transform="translate(41.650659, 184.521859) scale(-1, 1) translate(-41.650659, -184.521859) " cx="41.6506589" cy="184.521859" r="5.5"></circle>
            <circle id="Oval" fill="#D6D6D6" transform="translate(6.879138, 168.399162) scale(-1, 1) translate(-6.879138, -168.399162) " cx="6.87913837" cy="168.399162" r="5.5"></circle>
            <circle id="Oval" fill="#D6D6D6" transform="translate(7.407930, 125.764430) scale(-1, 1) translate(-7.407930, -125.764430) " cx="7.40792952" cy="125.76443" r="5.5"></circle>
            <circle id="Combined-Shape" fill="#D6D6D6" transform="translate(198.374284, 182.877052) scale(-1, 1) translate(-198.374284, -182.877052) " cx="198.374284" cy="182.877052" r="5.5"></circle>
            <circle id="Oval" fill="#D6D6D6" transform="translate(163.999037, 163.170646) scale(-1, 1) translate(-163.999037, -163.170646) " cx="163.999037" cy="163.170646" r="5.5"></circle>
            <circle id="Oval" fill="#D6D6D6" transform="translate(198.611537, 226.154571) scale(-1, 1) translate(-198.611537, -226.154571) " cx="198.611537" cy="226.154571" r="5.5"></circle>
            <circle id="Combined-Shape" fill="#D6D6D6" transform="translate(198.172794, 91.329472) scale(-1, 1) translate(-198.172794, -91.329472) " cx="198.172794" cy="91.3294718" r="5.5"></circle>
            <circle id="Oval" fill="#D6D6D6" transform="translate(198.286791, 133.198159) scale(-1, 1) translate(-198.286791, -133.198159) " cx="198.286791" cy="133.198159" r="5.5"></circle>
            <circle id="Oval" fill="#D6D6D6" transform="translate(163.734003, 241.272693) scale(-1, 1) translate(-163.734003, -241.272693) " cx="163.734003" cy="241.272693" r="5.5"></circle>
            <circle id="Oval" fill="#D6D6D6" transform="translate(128.319695, 225.916041) scale(-1, 1) translate(-128.319695, -225.916041) " cx="128.319695" cy="225.916041" r="5.5"></circle>
            <circle id="Oval" fill="#D6D6D6" transform="translate(130.257318, 183.158052) scale(-1, 1) translate(-130.257318, -183.158052) " cx="130.257318" cy="183.158052" r="5.5"></circle>
            <circle id="Combined-Shape" fill="#D6D6D6" transform="translate(128.319695, 225.916041) scale(-1, 1) translate(-128.319695, -225.916041) " cx="128.319695" cy="225.916041" r="5.5"></circle>
            <circle id="Oval" fill="#D6D6D6" transform="translate(127.790904, 268.550773) scale(-1, 1) translate(-127.790904, -268.550773) " cx="127.790904" cy="268.550773" r="5.5"></circle>
            <circle id="Oval" fill="#D6D6D6" transform="translate(93.679414, 284.311682) scale(-1, 1) translate(-93.679414, -284.311682) " cx="93.6794137" cy="284.311682" r="5.5"></circle>
            <circle id="Oval" fill="#D6D6D6" transform="translate(58.907893, 268.188985) scale(-1, 1) translate(-58.907893, -268.188985) " cx="58.9078932" cy="268.188985" r="5.5"></circle>
            <circle id="Oval" fill="#D6D6D6" transform="translate(59.436684, 225.554253) scale(-1, 1) translate(-59.436684, -225.554253) " cx="59.4366844" cy="225.554253" r="5.5"></circle>
            <circle id="Combined-Shape" fill="#D6D6D6" cx="274.510927" cy="347.279642" r="5.5"></circle>
            <circle id="Oval" fill="#D6D6D6" cx="309.01869" cy="327.935024" r="5.5"></circle>
            <circle id="Oval" fill="#D6D6D6" cx="274.74818" cy="390.557162" r="5.5"></circle>
            <circle id="Oval" fill="#D6D6D6" cx="308.753656" cy="406.037071" r="5.5"></circle>
            <circle id="Oval" fill="#D6D6D6" cx="343.507933" cy="389.510117" r="5.5"></circle>
            <circle id="Oval" fill="#D6D6D6" cx="342.627892" cy="346.998642" r="5.5"></circle>
            <circle id="Oval" fill="#D6D6D6" cx="396.066757" cy="333.095846" r="5.5"></circle>
            <circle id="Oval" fill="#D6D6D6" cx="344.511231" cy="433.430425" r="5.5"></circle>
            <circle id="Oval" fill="#D6D6D6" cx="378.516707" cy="448.910334" r="5.5"></circle>
            <circle id="Oval" fill="#D6D6D6" cx="414.037029" cy="433.026168" r="5.5"></circle>
            <circle id="Oval" fill="#D6D6D6" cx="412.390944" cy="389.871905" r="5.5"></circle>
            <circle id="Combined-Shape" fill="#D6D6D6" cx="222.955401" cy="447.614221" r="5.5"></circle>
            <circle id="Oval" fill="#D6D6D6" cx="256.69712" cy="427.626815" r="5.5"></circle>
            <circle id="Oval" fill="#D6D6D6" cx="222.426609" cy="490.248953" r="5.5"></circle>
            <circle id="Combined-Shape" fill="#D6D6D6" cx="222.630654" cy="354.657809" r="5.5"></circle>
            <circle id="Oval" fill="#D6D6D6" cx="222.101863" cy="397.292541" r="5.5"></circle>
            <circle id="Oval" fill="#D6D6D6" cx="257.19813" cy="506.37165" r="5.5"></circle>
            <circle id="Oval" fill="#D6D6D6" cx="291.952407" cy="489.844696" r="5.5"></circle>
            <circle id="Oval" fill="#D6D6D6" cx="291.072366" cy="447.333221" r="5.5"></circle>
            <circle id="Combined-Shape" fill="#D6D6D6" cx="291.952407" cy="489.844696" r="5.5"></circle>
            <circle id="Oval" fill="#D6D6D6" cx="292.189661" cy="533.122216" r="5.5"></circle>
            <circle id="Oval" fill="#D6D6D6" cx="326.961181" cy="549.244913" r="5.5"></circle>
            <circle id="Oval" fill="#D6D6D6" cx="362.358246" cy="531.951915" r="5.5"></circle>
            <circle id="Oval" fill="#D6D6D6" cx="360.835418" cy="490.206484" r="5.5"></circle>
            <circle id="Combined-Shape" fill="#D6D6D6" transform="translate(362.530360, 103.922745) scale(-1, 1) translate(-362.530360, -103.922745) " cx="362.53036" cy="103.922745" r="5.5"></circle>
            <circle id="Oval" fill="#D6D6D6" transform="translate(328.155114, 84.216339) scale(-1, 1) translate(-328.155114, -84.216339) " cx="328.155114" cy="84.2163393" r="5.5"></circle>
            <circle id="Oval" fill="#D6D6D6" transform="translate(362.001569, 146.557477) scale(-1, 1) translate(-362.001569, -146.557477) " cx="362.001569" cy="146.557477" r="5.5"></circle>
            <circle id="Oval" fill="#D6D6D6" transform="translate(327.890079, 162.318386) scale(-1, 1) translate(-327.890079, -162.318386) " cx="327.890079" cy="162.318386" r="5.5"></circle>
            <circle id="Oval" fill="#D6D6D6" transform="translate(292.352514, 145.552902) scale(-1, 1) translate(-292.352514, -145.552902) " cx="292.352514" cy="145.552902" r="5.5"></circle>
            <circle id="Oval" fill="#D6D6D6" transform="translate(293.647350, 103.560957) scale(-1, 1) translate(-293.647350, -103.560957) " cx="293.64735" cy="103.560957" r="5.5"></circle>
            <circle id="Oval" fill="#D6D6D6" transform="translate(239.918225, 89.806643) scale(-1, 1) translate(-239.918225, -89.806643) " cx="239.918225" cy="89.8066433" r="5.5"></circle>
            <circle id="Oval" fill="#D6D6D6" transform="translate(291.946980, 189.596466) scale(-1, 1) translate(-291.946980, -189.596466) " cx="291.94698" cy="189.596466" r="5.5"></circle>
            <circle id="Oval" fill="#D6D6D6" transform="translate(257.835490, 205.357375) scale(-1, 1) translate(-257.835490, -205.357375) " cx="257.83549" cy="205.357375" r="5.5"></circle>
            <circle id="Oval" fill="#D6D6D6" transform="translate(222.297925, 188.591890) scale(-1, 1) translate(-222.297925, -188.591890) " cx="222.297925" cy="188.59189" r="5.5"></circle>
            <circle id="Oval" fill="#D6D6D6" transform="translate(223.592761, 146.599946) scale(-1, 1) translate(-223.592761, -146.599946) " cx="223.592761" cy="146.599946" r="5.5"></circle>
            <circle id="Combined-Shape" fill="#D6D6D6" transform="translate(414.559115, 203.712567) scale(-1, 1) translate(-414.559115, -203.712567) " cx="414.559115" cy="203.712567" r="5.5"></circle>
            <circle id="Oval" fill="#D6D6D6" transform="translate(380.183869, 184.006162) scale(-1, 1) translate(-380.183869, -184.006162) " cx="380.183869" cy="184.006162" r="5.5"></circle>
            <circle id="Oval" fill="#D6D6D6" transform="translate(414.030324, 246.347300) scale(-1, 1) translate(-414.030324, -246.347300) " cx="414.030324" cy="246.3473" r="5.5"></circle>
            <circle id="Combined-Shape" fill="#D6D6D6" transform="translate(414.234369, 110.756155) scale(-1, 1) translate(-414.234369, -110.756155) " cx="414.234369" cy="110.756155" r="5.5"></circle>
            <circle id="Oval" fill="#D6D6D6" transform="translate(414.471622, 154.033675) scale(-1, 1) translate(-414.471622, -154.033675) " cx="414.471622" cy="154.033675" r="5.5"></circle>
            <circle id="Oval" fill="#D6D6D6" transform="translate(379.918834, 262.108209) scale(-1, 1) translate(-379.918834, -262.108209) " cx="379.918834" cy="262.108209" r="5.5"></circle>
            <circle id="Oval" fill="#D6D6D6" transform="translate(343.738482, 246.108769) scale(-1, 1) translate(-343.738482, -246.108769) " cx="343.738482" cy="246.108769" r="5.5"></circle>
            <circle id="Oval" fill="#D6D6D6" transform="translate(345.676105, 203.350780) scale(-1, 1) translate(-345.676105, -203.350780) " cx="345.676105" cy="203.35078" r="5.5"></circle>
            <circle id="Combined-Shape" fill="#D6D6D6" transform="translate(343.738482, 246.108769) scale(-1, 1) translate(-343.738482, -246.108769) " cx="343.738482" cy="246.108769" r="5.5"></circle>
            <circle id="Oval" fill="#D6D6D6" transform="translate(343.975735, 289.386288) scale(-1, 1) translate(-343.975735, -289.386288) " cx="343.975735" cy="289.386288" r="5.5"></circle>
            <circle id="Oval" fill="#D6D6D6" transform="translate(309.864245, 305.147198) scale(-1, 1) translate(-309.864245, -305.147198) " cx="309.864245" cy="305.147198" r="5.5"></circle>
            <circle id="Oval" fill="#D6D6D6" transform="translate(274.326680, 288.381713) scale(-1, 1) translate(-274.326680, -288.381713) " cx="274.32668" cy="288.381713" r="5.5"></circle>
            <circle id="Oval" fill="#D6D6D6" transform="translate(275.621516, 246.389768) scale(-1, 1) translate(-275.621516, -246.389768) " cx="275.621516" cy="246.389768" r="5.5"></circle>
            <path d="M513.396488,258.999263 L545.396488,277.999263" id="Path-10" stroke="#D6D6D6" stroke-width="2"></path>
            <polyline id="Path-11" stroke="#D6D6D6" stroke-width="2" points="546.619287 279.309279 478.619287 278.301015 477.619287 322.160519 513.119287 339.301015 480.619287 280.821676"></polyline>
            <polyline id="Path-12" stroke="#D6D6D6" stroke-width="1.5" points="545.785866 277.99812 547.814035 319.841095 511.814035 338.99812"></polyline>
            <path d="M511.584423,336.271761 L546.584423,278.271761" id="Path-13" stroke="#D6D6D6" stroke-width="1.5"></path>
            <path d="M598.805486,264.557728 L615.805486,321.557728" id="Path-10" stroke="#D6D6D6" stroke-width="2"></path>
            <polyline id="Path-11" stroke="#D6D6D6" stroke-width="2" points="616.382338 322.182542 548.382338 321.174278 547.382338 365.033782 582.882338 382.174278 550.382338 323.694939"></polyline>
            <polyline id="Path-12" stroke="#D6D6D6" stroke-width="1.5" points="615.548917 320.871383 617.577086 362.714359 581.577086 381.871383"></polyline>
            <path d="M581.347474,379.145024 L616.347474,321.145024" id="Path-13" stroke="#D6D6D6" stroke-width="1.5"></path>
            <path d="M461.074918,358.691055 L493.074918,377.691055" id="Path-10" stroke="#D6D6D6" stroke-width="2"></path>
            <polyline id="Path-11" stroke="#D6D6D6" stroke-width="2" points="494.297716 379.001071 426.297716 377.992806 425.297716 421.85231 460.797716 438.992806 428.297716 380.513467"></polyline>
            <polyline id="Path-12" stroke="#D6D6D6" stroke-width="1.5" points="493.464295 377.689912 495.492464 419.532887 459.492464 438.689912"></polyline>
            <path d="M459.262853,435.963552 L494.262853,377.963552" id="Path-13" stroke="#D6D6D6" stroke-width="1.5"></path>
            <path d="M546.483915,364.249519 L563.483915,421.249519" id="Path-10" stroke="#D6D6D6" stroke-width="2"></path>
            <polyline id="Path-11" stroke="#D6D6D6" stroke-width="2" points="564.703555 421.108289 496.703555 420.100025 495.703555 463.959529 531.203555 481.100025 498.703555 422.620686"></polyline>
            <polyline id="Path-12" stroke="#D6D6D6" stroke-width="1.5" points="563.227346 420.563175 565.255515 462.40615 529.255515 481.563175"></polyline>
            <path d="M529.025904,478.836815 L564.025904,420.836815" id="Path-13" stroke="#D6D6D6" stroke-width="1.5"></path>
            <path d="M494.585976,377.870122 L550.585976,363.870122" id="Path-14" stroke="#D6D6D6" stroke-width="1.5"></path>
            <polyline id="Path-15" stroke="#D6D6D6" stroke-width="1.5" points="476.654317 277.842596 425.194858 328.342596 479.17684 321.342596 459.501164 358.842596 424.690353 377.842596 423.17684 330.342596"></polyline>
            <polyline id="Path-16" stroke="#D6D6D6" stroke-width="1.5" points="598.489266 263.665545 546.989266 321.165545 547.489266 274.665545 598.489266 263.665545 511.489266 259.165545 424.989266 284.165545 424.489266 328.165545"></polyline>
            <path d="M475.740037,278.316207 L512.740037,260.316207" id="Path-17" stroke="#D6D6D6" stroke-width="1.5"></path>
            <polyline id="Path-18" stroke="#D6D6D6" stroke-width="1.5" points="493.819591 376.92045 514.319591 333.668988 548.819591 364.347351 495.819591 419.668988"></polyline>
            <polyline id="Path-19" stroke="#D6D6D6" stroke-width="1.5" points="581.038126 379.878636 563.882162 421.739506 618.882162 363.739506"></polyline>
            <path d="M566.010991,463.313914 L618.010991,364.313914" id="Path-20" stroke="#D6D6D6" stroke-width="1.5"></path>
            <path d="M491.629435,465.107995 L456.629435,437.107995" id="Path-21" stroke="#D6D6D6" stroke-width="1.5"></path>
            <path d="M539.480319,5.44525763 L571.480319,24.4452576" id="Path-10" stroke="#D6D6D6" stroke-width="2"></path>
            <polyline id="Path-11" stroke="#D6D6D6" stroke-width="2" points="573.345904 24.9892291 505.345904 23.9809647 504.345904 67.8404688 539.845904 84.9809647 507.345904 26.5016258"></polyline>
            <polyline id="Path-12" stroke="#D6D6D6" stroke-width="1.5" points="572.63574 25.0869022 574.663909 66.9298774 538.663909 86.0869022"></polyline>
            <path d="M537.668253,82.7177552 L572.668253,24.7177552" id="Path-13" stroke="#D6D6D6" stroke-width="1.5"></path>
            <path d="M624.889316,11.0037224 L641.889316,68.0037224" id="Path-10" stroke="#D6D6D6" stroke-width="2"></path>
            <polyline id="Path-11" stroke="#D6D6D6" stroke-width="2" points="643.108956 67.8624922 575.108956 66.8542277 574.108956 110.713732 609.608956 127.854228 577.108956 69.3748889"></polyline>
            <polyline id="Path-12" stroke="#D6D6D6" stroke-width="1.5" points="643.041579 67.1941208 645.069748 109.037096 609.069748 128.194121"></polyline>
            <path d="M608.074092,124.824974 L643.074092,66.8249738" id="Path-13" stroke="#D6D6D6" stroke-width="1.5"></path>
            <path d="M488.56758,105.013792 L520.56758,124.013792" id="Path-10" stroke="#D6D6D6" stroke-width="2"></path>
            <polyline id="Path-11" stroke="#D6D6D6" stroke-width="2" points="521.790378 125.323808 453.790378 124.315544 452.790378 168.175048 488.290378 185.315544 455.790378 126.836205"></polyline>
            <polyline id="Path-12" stroke="#D6D6D6" stroke-width="1.5" points="520.956958 124.012649 522.985127 165.855624 486.985127 185.012649"></polyline>
            <path d="M485.98947,181.643502 L520.98947,123.643502" id="Path-13" stroke="#D6D6D6" stroke-width="1.5"></path>
            <path d="M573.210533,109.929469 L590.210533,166.929469" id="Path-10" stroke="#D6D6D6" stroke-width="2"></path>
            <polyline id="Path-11" stroke="#D6D6D6" stroke-width="2" points="591.55343 168.197071 523.55343 167.188807 522.55343 211.048311 558.05343 228.188807 525.55343 169.709468"></polyline>
            <polyline id="Path-12" stroke="#D6D6D6" stroke-width="1.5" points="590.720009 166.885912 592.748178 208.728887 556.748178 227.885912"></polyline>
            <path d="M555.752522,224.516765 L590.752522,166.516765" id="Path-13" stroke="#D6D6D6" stroke-width="1.5"></path>
            <path d="M522.078638,124.192859 L578.078638,110.192859" id="Path-14" stroke="#D6D6D6" stroke-width="1.5"></path>
            <polyline id="Path-15" stroke="#D6D6D6" stroke-width="1.5" points="504.146979 24.1653333 452.68752 74.6653333 506.669502 67.6653333 486.993826 105.165333 452.183015 124.165333 450.669502 76.6653333"></polyline>
            <polyline id="Path-16" stroke="#D6D6D6" stroke-width="1.5" points="624.573096 10.1115396 573.073096 67.6115396 573.573096 21.1115396 624.573096 10.1115396 537.573096 5.61153957 451.073096 30.6115396 450.573096 74.6115396"></polyline>
            <path d="M501.823867,24.7622017 L538.823867,6.76220169" id="Path-17" stroke="#D6D6D6" stroke-width="1.5"></path>
            <polyline id="Path-18" stroke="#D6D6D6" stroke-width="1.5" points="519.903421 123.366444 540.403421 80.1149823 574.903421 110.793345 521.903421 166.114982"></polyline>
            <polyline id="Path-19" stroke="#D6D6D6" stroke-width="1.5" points="607.764743 125.558586 590.60878 167.419456 645.60878 109.419456"></polyline>
            <path d="M592.737609,208.993864 L644.737609,109.993864" id="Path-20" stroke="#D6D6D6" stroke-width="1.5"></path>
            <path d="M519.122097,211.430732 L484.122097,183.430732" id="Path-21" stroke="#D6D6D6" stroke-width="1.5"></path>
            <path d="M94.5505913,307.000456 L126.550591,326.000456" id="Path-10" stroke="#D6D6D6" stroke-width="2"></path>
            <polyline id="Path-11" stroke="#D6D6D6" stroke-width="2" points="127.773389 327.310472 59.7733895 326.302208 58.7733895 370.161712 94.2733895 387.302208 61.7733895 328.822869"></polyline>
            <polyline id="Path-12" stroke="#D6D6D6" stroke-width="1.5" points="127.706013 326.642101 129.734182 368.485076 93.7341821 387.642101"></polyline>
            <path d="M92.738526,384.272954 L127.738526,326.272954" id="Path-13" stroke="#D6D6D6" stroke-width="1.5"></path>
            <path d="M179.959589,312.558921 L196.959589,369.558921" id="Path-10" stroke="#D6D6D6" stroke-width="2"></path>
            <polyline id="Path-11" stroke="#D6D6D6" stroke-width="2" points="198.179228 369.417691 130.179228 368.409426 129.179228 412.26893 164.679228 429.409426 132.179228 370.930087"></polyline>
            <polyline id="Path-12" stroke="#D6D6D6" stroke-width="1.5" points="197.469064 369.515364 199.497233 411.358339 163.497233 430.515364"></polyline>
            <path d="M162.501577,427.146217 L197.501577,369.146217" id="Path-13" stroke="#D6D6D6" stroke-width="1.5"></path>
            <path d="M42.2290209,406.692247 L74.2290209,425.692247" id="Path-10" stroke="#D6D6D6" stroke-width="2"></path>
            <polyline id="Path-11" stroke="#D6D6D6" stroke-width="2" points="75.451819 427.002263 7.45181902 425.993999 6.45181902 469.853503 41.951819 486.993999 9.45181902 428.51466"></polyline>
            <polyline id="Path-12" stroke="#D6D6D6" stroke-width="1.5" points="75.3844426 426.333892 77.4126117 468.176867 41.4126117 487.333892"></polyline>
            <path d="M40.4169555,483.964745 L75.4169555,425.964745" id="Path-13" stroke="#D6D6D6" stroke-width="1.5"></path>
            <path d="M127.638018,412.250712 L144.638018,469.250712" id="Path-10" stroke="#D6D6D6" stroke-width="2"></path>
            <polyline id="Path-11" stroke="#D6D6D6" stroke-width="2" points="145.857658 469.109482 77.8576578 468.101218 76.8576578 511.960722 112.357658 529.101218 79.8576578 470.621879"></polyline>
            <polyline id="Path-12" stroke="#D6D6D6" stroke-width="1.5" points="145.147494 469.207155 147.175663 511.05013 111.175663 530.207155"></polyline>
            <path d="M110.822794,526.071964 L145.822794,468.071964" id="Path-13" stroke="#D6D6D6" stroke-width="1.5"></path>
            <path d="M76.5061235,426.514102 L132.506123,412.514102" id="Path-14" stroke="#D6D6D6" stroke-width="1.5"></path>
            <polyline id="Path-15" stroke="#D6D6D6" stroke-width="1.5" points="57.2666409 325.351385 6.72610036 375.851385 59.7441184 368.851385 40.4197941 406.351385 6.23060487 425.351385 4.74411838 377.851385"></polyline>
            <polyline id="Path-16" stroke="#D6D6D6" stroke-width="1.5" points="179.643369 311.666738 128.143369 369.166738 128.643369 322.666738 179.643369 311.666738 92.6433686 307.166738 6.14336856 332.166738 5.64336856 376.166738"></polyline>
            <path d="M56.89414,326.3174 L93.89414,308.3174" id="Path-17" stroke="#D6D6D6" stroke-width="1.5"></path>
            <polyline id="Path-18" stroke="#D6D6D6" stroke-width="1.5" points="74.9736935 424.921643 95.4736935 381.670181 129.973693 412.348543 76.9736935 467.670181"></polyline>
            <polyline id="Path-19" stroke="#D6D6D6" stroke-width="1.5" points="162.192229 427.879829 145.036265 469.740699 200.036265 411.740699"></polyline>
            <path d="M147.165094,511.315107 L199.165094,412.315107" id="Path-20" stroke="#D6D6D6" stroke-width="1.5"></path>
            <path d="M73.4263254,512.343143 L38.4263254,484.343143" id="Path-21" stroke="#D6D6D6" stroke-width="1.5"></path>
            <path d="M78.2196998,63.5455281 L110.2197,82.5455281" id="Path-10" stroke="#D6D6D6" stroke-width="2" transform="translate(94.219700, 73.045528) scale(-1, 1) translate(-94.219700, -73.045528) "></path>
            <polyline id="Path-11" stroke="#D6D6D6" stroke-width="2" transform="translate(111.000981, 113.206780) scale(-1, 1) translate(-111.000981, -113.206780) " points="145.500981 83.7150441 77.5009808 82.7067797 76.5009808 126.566284 112.000981 143.70678 79.5009808 85.2274408"></polyline>
            <polyline id="Path-12" stroke="#D6D6D6" stroke-width="1.5" transform="translate(93.228414, 113.167642) scale(-1, 1) translate(-93.228414, -113.167642) " points="109.200245 82.6676419 111.228414 124.510617 75.228414 143.667642"></polyline>
            <path d="M77.050422,140.051981 L112.050422,82.0519812" id="Path-13" stroke="#D6D6D6" stroke-width="1.5" transform="translate(94.550422, 111.051981) scale(-1, 1) translate(-94.550422, -111.051981) "></path>
            <path d="M7.42460286,68.573924 L24.4246029,125.573924" id="Path-10" stroke="#D6D6D6" stroke-width="2" transform="translate(15.924603, 97.073924) scale(-1, 1) translate(-15.924603, -97.073924) "></path>
            <polyline id="Path-11" stroke="#D6D6D6" stroke-width="2" transform="translate(41.589179, 155.479724) scale(-1, 1) translate(-41.589179, -155.479724) " points="76.0891793 125.987988 8.08917934 124.979724 7.08917934 168.839228 42.5891793 185.979724 10.0891793 127.500385"></polyline>
            <polyline id="Path-12" stroke="#D6D6D6" stroke-width="1.5" transform="translate(23.173825, 156.206631) scale(-1, 1) translate(-23.173825, -156.206631) " points="39.1456559 125.706631 41.1738249 167.549606 5.17382494 186.706631"></polyline>
            <path d="M6.9958329,183.09097 L41.9958329,125.09097" id="Path-13" stroke="#D6D6D6" stroke-width="1.5" transform="translate(24.495833, 154.090970) scale(-1, 1) translate(-24.495833, -154.090970) "></path>
            <path d="M130.248455,163.335351 L162.248455,182.335351" id="Path-10" stroke="#D6D6D6" stroke-width="2" transform="translate(146.248455, 172.835351) scale(-1, 1) translate(-146.248455, -172.835351) "></path>
            <polyline id="Path-11" stroke="#D6D6D6" stroke-width="2" transform="translate(163.029736, 212.996602) scale(-1, 1) translate(-163.029736, -212.996602) " points="197.529736 183.504867 129.529736 182.496602 128.529736 226.356106 164.029736 243.496602 131.529736 185.017263"></polyline>
            <polyline id="Path-12" stroke="#D6D6D6" stroke-width="1.5" transform="translate(145.257169, 212.957464) scale(-1, 1) translate(-145.257169, -212.957464) " points="161.229 182.457464 163.257169 224.30044 127.257169 243.457464"></polyline>
            <path d="M129.079177,239.841804 L164.079177,181.841804" id="Path-13" stroke="#D6D6D6" stroke-width="1.5" transform="translate(146.579177, 210.841804) scale(-1, 1) translate(-146.579177, -210.841804) "></path>
            <path d="M59.4533577,168.363746 L76.4533577,225.363746" id="Path-10" stroke="#D6D6D6" stroke-width="2" transform="translate(67.953358, 196.863746) scale(-1, 1) translate(-67.953358, -196.863746) "></path>
            <polyline id="Path-11" stroke="#D6D6D6" stroke-width="2" transform="translate(92.851890, 254.626759) scale(-1, 1) translate(-92.851890, -254.626759) " points="127.35189 225.135023 59.3518898 224.126759 58.3518898 267.986263 93.8518898 285.126759 61.3518898 226.64742"></polyline>
            <polyline id="Path-12" stroke="#D6D6D6" stroke-width="1.5" transform="translate(75.202580, 255.996453) scale(-1, 1) translate(-75.202580, -255.996453) " points="91.1744108 225.496453 93.2025798 267.339428 57.2025798 286.496453"></polyline>
            <path d="M59.0245878,282.880792 L94.0245878,224.880792" id="Path-13" stroke="#D6D6D6" stroke-width="1.5" transform="translate(76.524588, 253.880792) scale(-1, 1) translate(-76.524588, -253.880792) "></path>
            <path d="M72.2119327,182.715907 L128.211933,168.715907" id="Path-14" stroke="#D6D6D6" stroke-width="1.5" transform="translate(100.211933, 175.715907) scale(-1, 1) translate(-100.211933, -175.715907) "></path>
            <polyline id="Path-15" stroke="#D6D6D6" stroke-width="1.5" transform="translate(171.438101, 132.276142) scale(-1, 1) translate(-171.438101, -132.276142) " points="196.915578 82.2761419 145.456119 132.776142 199.438101 125.776142 179.762425 163.276142 144.951614 182.276142 143.438101 134.776142"></polyline>
            <polyline id="Path-16" stroke="#D6D6D6" stroke-width="1.5" transform="translate(111.779792, 97.948053) scale(-1, 1) translate(-111.779792, -97.948053) " points="198.779792 67.9480533 147.279792 125.448053 147.779792 78.9480533 198.779792 67.9480533 111.779792 63.4480533 25.279792 88.4480533 24.779792 132.448053"></polyline>
            <path d="M110.855091,83.1010031 L147.855091,65.1010031" id="Path-17" stroke="#D6D6D6" stroke-width="1.5" transform="translate(129.355091, 74.101003) scale(-1, 1) translate(-129.355091, -74.101003) "></path>
            <polyline id="Path-18" stroke="#D6D6D6" stroke-width="1.5" transform="translate(101.763211, 181.268260) scale(-1, 1) translate(-101.763211, -181.268260) " points="74.2632113 181.519722 94.7632113 138.26826 129.263211 168.946622 76.2632113 224.26826"></polyline>
            <polyline id="Path-19" stroke="#D6D6D6" stroke-width="1.5" transform="translate(31.242098, 196.861715) scale(-1, 1) translate(-31.242098, -196.861715) " points="20.8980616 184.000846 3.74209834 225.861715 58.7420983 167.861715"></polyline>
            <path d="M5.87092735,267.436123 L57.8709274,168.436123" id="Path-20" stroke="#D6D6D6" stroke-width="1.5" transform="translate(31.870927, 217.936123) scale(-1, 1) translate(-31.870927, -217.936123) "></path>
            <path d="M166.4383,269.259264 L131.4383,241.259264" id="Path-21" stroke="#D6D6D6" stroke-width="1.5" transform="translate(148.938300, 255.259264) scale(-1, 1) translate(-148.938300, -255.259264) "></path>
            <path d="M310.735423,327.835972 L342.735423,346.835972" id="Path-10" stroke="#D6D6D6" stroke-width="2"></path>
            <polyline id="Path-11" stroke="#D6D6D6" stroke-width="2" points="343.958221 348.145988 275.958221 347.137723 274.958221 390.997227 310.458221 408.137723 277.958221 349.658384"></polyline>
            <polyline id="Path-12" stroke="#D6D6D6" stroke-width="1.5" points="343.1248 346.834829 345.152969 388.677804 309.152969 407.834829"></polyline>
            <path d="M308.157313,404.465682 L343.157313,346.465682" id="Path-13" stroke="#D6D6D6" stroke-width="1.5"></path>
            <path d="M396.14442,333.394436 L413.14442,390.394436" id="Path-10" stroke="#D6D6D6" stroke-width="2"></path>
            <polyline id="Path-11" stroke="#D6D6D6" stroke-width="2" points="414.36406 390.253206 346.36406 389.244942 345.36406 433.104446 380.86406 450.244942 348.36406 391.765603"></polyline>
            <polyline id="Path-12" stroke="#D6D6D6" stroke-width="1.5" points="412.887851 389.708092 414.91602 431.551067 378.91602 450.708092"></polyline>
            <path d="M377.920364,447.338945 L412.920364,389.338945" id="Path-13" stroke="#D6D6D6" stroke-width="1.5"></path>
            <path d="M258.413852,427.527763 L290.413852,446.527763" id="Path-10" stroke="#D6D6D6" stroke-width="2"></path>
            <polyline id="Path-11" stroke="#D6D6D6" stroke-width="2" points="292.279438 447.071735 224.279438 446.06347 223.279438 489.922974 258.779438 507.06347 226.279438 448.584131"></polyline>
            <polyline id="Path-12" stroke="#D6D6D6" stroke-width="1.5" points="290.80323 446.52662 292.831399 488.369595 256.831399 507.52662"></polyline>
            <path d="M256.601787,504.800261 L291.601787,446.800261" id="Path-13" stroke="#D6D6D6" stroke-width="1.5"></path>
            <path d="M343.822849,433.086228 L360.822849,490.086228" id="Path-10" stroke="#D6D6D6" stroke-width="2"></path>
            <polyline id="Path-11" stroke="#D6D6D6" stroke-width="2" points="362.042489 489.944998 294.042489 488.936733 293.042489 532.796237 328.542489 549.936733 296.042489 491.457394"></polyline>
            <polyline id="Path-12" stroke="#D6D6D6" stroke-width="1.5" points="361.209068 488.633839 363.237237 530.476814 327.237237 549.633839"></polyline>
            <path d="M327.007626,546.907479 L362.007626,488.907479" id="Path-13" stroke="#D6D6D6" stroke-width="1.5"></path>
            <path d="M291.92491,446.70683 L347.92491,432.70683" id="Path-14" stroke="#D6D6D6" stroke-width="1.5"></path>
            <polyline id="Path-15" stroke="#D6D6D6" stroke-width="1.5" points="273.993251 346.679304 222.533792 397.179304 276.515774 390.179304 256.840098 427.679304 222.029287 446.679304 220.515774 399.179304"></polyline>
            <polyline id="Path-16" stroke="#D6D6D6" stroke-width="1.5" points="395.8282 332.502254 344.3282 390.002254 344.8282 343.502254 395.8282 332.502254 308.8282 328.002254 222.3282 353.002254 221.8282 397.002254"></polyline>
            <path d="M273.078971,347.152916 L310.078971,329.152916" id="Path-17" stroke="#D6D6D6" stroke-width="1.5"></path>
            <polyline id="Path-18" stroke="#D6D6D6" stroke-width="1.5" points="291.158525 445.757158 311.658525 402.505696 346.158525 433.184059 293.158525 488.505696"></polyline>
            <polyline id="Path-19" stroke="#D6D6D6" stroke-width="1.5" points="378.37706 448.715345 361.221097 490.576214 416.221097 432.576214"></polyline>
            <path d="M363.349926,532.150622 L415.349926,433.150622" id="Path-20" stroke="#D6D6D6" stroke-width="1.5"></path>
            <path d="M289.611157,533.178659 L254.611157,505.178659" id="Path-21" stroke="#D6D6D6" stroke-width="1.5"></path>
            <path d="M293.638487,83.7382561 L325.638487,102.738256" id="Path-10" stroke="#D6D6D6" stroke-width="2" transform="translate(309.638487, 93.238256) scale(-1, 1) translate(-309.638487, -93.238256) "></path>
            <polyline id="Path-11" stroke="#D6D6D6" stroke-width="2" transform="translate(327.185812, 134.042295) scale(-1, 1) translate(-327.185812, -134.042295) " points="361.685812 104.55056 293.685812 103.542295 292.685812 147.401799 328.185812 164.542295 295.685812 106.062956"></polyline>
            <polyline id="Path-12" stroke="#D6D6D6" stroke-width="1.5" transform="translate(309.413245, 134.003158) scale(-1, 1) translate(-309.413245, -134.003158) " points="325.385076 103.503158 327.413245 145.346133 291.413245 164.503158"></polyline>
            <path d="M293.235253,160.887497 L328.235253,102.887497" id="Path-13" stroke="#D6D6D6" stroke-width="1.5" transform="translate(310.735253, 131.887497) scale(-1, 1) translate(-310.735253, -131.887497) "></path>
            <path d="M223.609434,89.4094396 L240.609434,146.40944" id="Path-10" stroke="#D6D6D6" stroke-width="2" transform="translate(232.109434, 117.909440) scale(-1, 1) translate(-232.109434, -117.909440) "></path>
            <polyline id="Path-11" stroke="#D6D6D6" stroke-width="2" transform="translate(257.007966, 175.672452) scale(-1, 1) translate(-257.007966, -175.672452) " points="291.507966 146.180716 223.507966 145.172452 222.507966 189.031956 258.007966 206.172452 225.507966 147.693113"></polyline>
            <polyline id="Path-12" stroke="#D6D6D6" stroke-width="1.5" transform="translate(239.358656, 177.042146) scale(-1, 1) translate(-239.358656, -177.042146) " points="255.330487 146.542146 257.358656 188.385121 221.358656 207.542146"></polyline>
            <path d="M223.180664,203.926486 L258.180664,145.926486" id="Path-13" stroke="#D6D6D6" stroke-width="1.5" transform="translate(240.680664, 174.926486) scale(-1, 1) translate(-240.680664, -174.926486) "></path>
            <path d="M345.667241,183.528079 L377.667241,202.528079" id="Path-10" stroke="#D6D6D6" stroke-width="2" transform="translate(361.667241, 193.028079) scale(-1, 1) translate(-361.667241, -193.028079) "></path>
            <polyline id="Path-11" stroke="#D6D6D6" stroke-width="2" transform="translate(378.448523, 233.189330) scale(-1, 1) translate(-378.448523, -233.189330) " points="412.948523 203.697595 344.948523 202.68933 343.948523 246.548834 379.448523 263.68933 346.948523 205.209991"></polyline>
            <polyline id="Path-12" stroke="#D6D6D6" stroke-width="1.5" transform="translate(361.442000, 233.792980) scale(-1, 1) translate(-361.442000, -233.792980) " points="377.413831 203.29298 379.442 245.135955 343.442 264.29298"></polyline>
            <path d="M345.264008,260.677319 L380.264008,202.677319" id="Path-13" stroke="#D6D6D6" stroke-width="1.5" transform="translate(362.764008, 231.677319) scale(-1, 1) translate(-362.764008, -231.677319) "></path>
            <path d="M275.638189,189.199262 L292.638189,246.199262" id="Path-10" stroke="#D6D6D6" stroke-width="2" transform="translate(284.138189, 217.699262) scale(-1, 1) translate(-284.138189, -217.699262) "></path>
            <polyline id="Path-11" stroke="#D6D6D6" stroke-width="2" transform="translate(309.036721, 275.462274) scale(-1, 1) translate(-309.036721, -275.462274) " points="343.536721 245.970539 275.536721 244.962274 274.536721 288.821779 310.036721 305.962274 277.536721 247.482936"></polyline>
            <polyline id="Path-12" stroke="#D6D6D6" stroke-width="1.5" transform="translate(291.264154, 275.423137) scale(-1, 1) translate(-291.264154, -275.423137) " points="307.235985 244.923137 309.264154 286.766112 273.264154 305.923137"></polyline>
            <path d="M275.209419,303.716308 L310.209419,245.716308" id="Path-13" stroke="#D6D6D6" stroke-width="1.5" transform="translate(292.709419, 274.716308) scale(-1, 1) translate(-292.709419, -274.716308) "></path>
            <path d="M288.396764,203.551423 L344.396764,189.551423" id="Path-14" stroke="#D6D6D6" stroke-width="1.5" transform="translate(316.396764, 196.551423) scale(-1, 1) translate(-316.396764, -196.551423) "></path>
            <polyline id="Path-15" stroke="#D6D6D6" stroke-width="1.5" transform="translate(387.622932, 153.111657) scale(-1, 1) translate(-387.622932, -153.111657) " points="413.100409 103.111657 361.64095 153.611657 415.622932 146.611657 395.947256 184.111657 361.136445 203.111657 359.622932 155.611657"></polyline>
            <polyline id="Path-16" stroke="#D6D6D6" stroke-width="1.5" transform="translate(327.964623, 118.783569) scale(-1, 1) translate(-327.964623, -118.783569) " points="414.964623 88.7835689 363.464623 146.283569 363.964623 99.7835689 414.964623 88.7835689 327.964623 84.2835689 241.464623 109.283569 240.964623 153.283569"></polyline>
            <path d="M326.273878,103.293731 L363.273878,85.2937311" id="Path-17" stroke="#D6D6D6" stroke-width="1.5" transform="translate(344.773878, 94.293731) scale(-1, 1) translate(-344.773878, -94.293731) "></path>
            <polyline id="Path-18" stroke="#D6D6D6" stroke-width="1.5" transform="translate(317.948043, 202.103775) scale(-1, 1) translate(-317.948043, -202.103775) " points="290.448043 202.355237 310.948043 159.103775 345.448043 189.782138 292.448043 245.103775"></polyline>
            <polyline id="Path-19" stroke="#D6D6D6" stroke-width="1.5" transform="translate(247.426930, 217.697231) scale(-1, 1) translate(-247.426930, -217.697231) " points="237.082893 204.836361 219.92693 246.697231 274.92693 188.697231"></polyline>
            <path d="M221.289714,287.628851 L273.289714,188.628851" id="Path-20" stroke="#D6D6D6" stroke-width="1.5" transform="translate(247.289714, 238.128851) scale(-1, 1) translate(-247.289714, -238.128851) "></path>
            <path d="M381.857087,289.451992 L346.857087,261.451992" id="Path-21" stroke="#D6D6D6" stroke-width="1.5" transform="translate(364.357087, 275.451992) scale(-1, 1) translate(-364.357087, -275.451992) "></path>
            <polyline id="Path-22" stroke="#D6D6D6" stroke-width="1.5" points="425.546146 284.514281 416.546146 242.514281 512.546146 257.014281 559.046146 226.014281 601.546146 265.014281 593.046146 209.514281"></polyline>
            <polyline id="Path-23" stroke="#D6D6D6" stroke-width="1.5" points="522.237173 208.890432 512.237173 257.006095 484.737173 180.822962 413.237173 246.981999 397.237173 331.685613 424.737173 284.57236 423.737173 327.675974 412.737173 388.822962 424.237173 376.292842 396.237173 334.692842"></polyline>
            <polyline id="Path-24" stroke="#D6D6D6" stroke-width="1.5" points="396.719262 332.282318 343.219262 288.282318 308.219262 326.282318 274.219262 289.282318 224.219262 353.282318 197.719262 368.782318 221.719262 395.782318 198.719262 412.282318"></polyline>
            <polyline id="Path-25" stroke="#D6D6D6" stroke-width="1.5" points="197.475296 132.059312 224.0963 144.559312 199.986711 183.559312 222.589451 189.059312 198.982145 227.059312 274.324611 289.559312 182.406803 312.059312 164.324611 243.059312"></polyline>
            <polyline id="Path-26" stroke="#D6D6D6" stroke-width="1.5" points="59.3275781 267.283552 90.9768672 308.526156 129.659332 267.786511 127.147483 326.632665 165.327578 241.632665"></polyline>
            <path d="M58.0094806,266.87748 L6.42466481,333.60883" id="Path-27" stroke="#D6D6D6" stroke-width="1.5"></path>
            <polyline id="Path-28" stroke="#D6D6D6" stroke-width="1.5" points="452.760578 169.219176 416.774276 203.441399 450.73318 126.441399 415.760578 153.114601"></polyline>
            <polyline id="Path-29" stroke="#D6D6D6" stroke-width="1.5" points="197.512685 225.017582 180.312685 313.856663 223.312685 356.017582"></polyline>
            <path d="M424.092506,420.905409 L414.092506,432.905409" id="Path-30" stroke="#D6D6D6" stroke-width="1.5"></path>
            <polyline id="Path-31" stroke="#D6D6D6" stroke-width="1.5" points="182.337662 311.600892 277.337662 243.836186 198.837662 227.27148 224.337662 355.27148"></polyline>
        </g>
    </g>
</svg>