<?xml version="1.0" encoding="UTF-8"?>
<svg width="29px" height="25px" viewBox="0 0 29 25" version="1.1" xmlns="http://www.w3.org/2000/svg" xmlns:xlink="http://www.w3.org/1999/xlink">
    <!-- Generator: Sketch 47 (45396) - http://www.bohemiancoding.com/sketch -->
    <title>human</title>
    <desc>Created with Sketch.</desc>
    <defs></defs>
    <g id="Landing-Page" stroke="none" stroke-width="1" fill="none" fill-rule="evenodd">
        <g id="GraphQL-landingpage-2018" transform="translate(-1114.000000, -1958.000000)" stroke="#FFFFFF" stroke-width="0.6" fill="#DB3F74" fill-rule="nonzero">
            <g id="highlight-3" transform="translate(1088.000000, 1959.000000)">
                <path d="M36.6,0 C33.959694,0 31.8,2.12277588 31.8,4.71794811 C31.8,7.31312034 33.959694,9.43588738 36.6,9.43588738 C39.240306,9.43588738 41.4,7.31312034 41.4,4.71794811 C41.4,2.12277588 39.240306,0 36.6,0 Z M46.8,0.589743514 C44.65674,0.589743514 42.9,2.3164624 42.9,4.42307636 C42.9,6.52968737 44.65674,8.2564092 46.8,8.2564092 C48.94326,8.2564092 50.7,6.52968737 50.7,4.42307636 C50.7,2.3164624 48.94326,0.589743514 46.8,0.589743514 Z M36.6,1.76923054 C38.267514,1.76923054 39.6,3.07893884 39.6,4.71794811 C39.6,6.35695739 38.267514,7.66666568 36.6,7.66666568 C34.932486,7.66666568 33.6,6.35695739 33.6,4.71794811 C33.6,3.07893884 34.932486,1.76923054 36.6,1.76923054 Z M46.8,2.35897406 C47.970462,2.35897406 48.9,3.27262535 48.9,4.42307636 C48.9,5.57352441 47.970462,6.48717866 46.8,6.48717866 C45.629541,6.48717866 44.7,5.57352441 44.7,4.42307636 C44.7,3.27262535 45.629541,2.35897406 46.8,2.35897406 Z M46.8,8.84614387 C44.266083,8.84614387 42.004842,9.51821557 40.678125,10.864199 C39.437127,10.511727 38.059335,10.3205027 36.6,10.3205027 C34.047372,10.3205027 31.735509,10.9067785 29.9906251,11.9146796 C28.245741,12.9225808 27,14.4308498 27,16.2179496 L27,22.1153847 C27.000048,22.5785398 27.428775,22.999941 27.9,23 L45.3,23 C45.771225,22.999941 46.199952,22.5785398 46.2,22.1153847 L46.2,18.5769236 C48.43299,18.5769236 50.18076,18.5769236 53.1,18.5769236 C53.571225,18.5768647 53.999952,18.1554634 54,17.6923084 L54,13.269232 C54,11.8521963 53.01759,10.6889479 51.703125,9.96114244 C50.38866,9.23331048 48.676764,8.84614387 46.8,8.84614387 Z M46.8,10.6153744 C48.413436,10.6153744 49.849515,10.9760144 50.8125,11.509231 C51.775485,12.0424181 52.2,12.6533924 52.2,13.269232 L52.2,16.8076931 L46.2,16.8076931 C46.319325,14.2582319 44.954259,12.9225808 43.209375,11.9146796 C43.026441,11.8089976 42.832524,11.706795 42.6375,11.6105784 C43.603416,11.0423015 45.092163,10.6153744 46.8,10.6153744 Z M36.6,12.089745 C38.867172,12.089745 40.899834,12.6263231 42.3,13.4350974 C43.700166,14.2438716 44.4,15.2461113 44.4,16.2179496 L44.4,21.2307695 L28.8000001,21.2307695 L28.8000001,16.2179496 C28.8000001,15.2461113 29.4998341,14.2438716 30.9000001,13.4350974 C32.300166,12.6263231 34.332828,12.089745 36.6,12.089745 Z" id="human"></path>
            </g>
        </g>
    </g>
</svg>