<svg xmlns="http://www.w3.org/2000/svg" id="Layer_1" viewBox="0 0 657 657"><style>.st0{fill:#d6d6d6}.st1{fill:#f56199}.st2{fill:#db3f74}.st3{fill:#fa8d22}.st4{fill:#db6f46}.st5{fill:#6c33e2}.st6{fill:#331a99}</style><circle cx="91.2" cy="191.5" r="36" class="st0"/><circle cx="91.2" cy="465.5" r="36" class="st0"/><circle cx="328.5" cy="602.5" r="36" class="st0"/><circle cx="328.5" cy="54.5" r="36" class="st0"/><circle cx="565.8" cy="191.5" r="36" class="st0"/><circle cx="565.8" cy="465.5" r="36" class="st0"/><path d="M91.2 405.9c-8.6 0-15.5-6.9-15.5-15.5V266.6c0-8.6 6.9-15.5 15.5-15.5s15.5 6.9 15.5 15.5v123.7c0 8.6-6.9 15.6-15.5 15.6zM261 579c-2.6 0-5.3-.7-7.7-2.1l-102.2-59c-7.4-4.3-10-13.8-5.7-21.2 4.3-7.4 13.8-10 21.2-5.7l102.2 59c7.4 4.3 10 13.8 5.7 21.2-3 5-8.2 7.8-13.5 7.8zM396 579c-5.4 0-10.6-2.8-13.4-7.8-4.3-7.4-1.7-16.9 5.7-21.2l102.2-59c7.4-4.3 16.9-1.7 21.2 5.7 4.3 7.4 1.7 16.9-5.7 21.2l-102.2 59c-2.5 1.4-5.1 2.1-7.8 2.1zM565.8 405.9c-8.6 0-15.5-6.9-15.5-15.5V266.6c0-8.6 6.9-15.5 15.5-15.5s15.5 6.9 15.5 15.5v123.7c0 8.6-7 15.6-15.5 15.6zM498.2 168c-2.6 0-5.3-.7-7.7-2.1l-102.2-59c-7.4-4.3-10-13.8-5.7-21.2 4.3-7.4 13.8-10 21.2-5.7L506 139c7.4 4.3 10 13.8 5.7 21.2-2.9 5-8.1 7.8-13.5 7.8zM158.8 168c-5.4 0-10.6-2.8-13.4-7.8-4.3-7.4-1.7-16.9 5.7-21.2l102.2-59c7.4-4.3 16.9-1.7 21.2 5.7 4.3 7.4 1.7 16.9-5.7 21.2l-102.2 59c-2.5 1.5-5.2 2.1-7.8 2.1z" class="st0"/><path d="M468 455H189c-8.6 0-15.5-6.9-15.5-15.5S180.4 424 189 424h279c8.6 0 15.5 6.9 15.5 15.5S476.6 455 468 455z" class="st1"/><path d="M468 455H328.5c-8.6 0-15.5-6.9-15.5-15.5s6.9-15.5 15.5-15.5H468c8.6 0 15.5 6.9 15.5 15.5S476.6 455 468 455z" class="st2"/><path d="M161.2 402.4c-2.6 0-5.3-.7-7.7-2.1-7.4-4.3-10-13.8-5.7-21.2l137.3-237.8c4.3-7.4 13.8-10 21.2-5.7 7.4 4.3 10 13.8 5.7 21.2L174.6 394.6c-2.8 5-8 7.8-13.4 7.8z" class="st3"/><path d="M161.2 402.4c-2.6 0-5.3-.7-7.7-2.1-7.4-4.3-10-13.8-5.7-21.2l68.6-118.9c4.3-7.4 13.8-10 21.2-5.7 7.4 4.3 10 13.8 5.7 21.2l-68.6 118.9c-2.9 5-8.1 7.8-13.5 7.8z" class="st4"/><path d="M496 402.8c-5.4 0-10.6-2.8-13.4-7.8L344.8 156.5c-4.3-7.4-1.7-16.9 5.7-21.2s16.9-1.7 21.2 5.7l137.8 238.6c4.3 7.4 1.7 16.9-5.7 21.2-2.5 1.3-5.1 2-7.8 2z" class="st5"/><path d="M427.2 283.5c-5.4 0-10.6-2.8-13.4-7.8l-68.9-119.3c-4.3-7.4-1.7-16.9 5.7-21.2s16.9-1.7 21.2 5.7l68.9 119.3c4.3 7.4 1.7 16.9-5.7 21.2-2.5 1.4-5.2 2.1-7.8 2.1z" class="st6"/></svg>